{
.appVersion = "3151";
copyright = "Copyright © 2024 Silverblur_type";
customParameters = (
{
name = panose;
value = (
0,
0,
0,
0,
0,
0,
0,
0,
0,
0
);
},
{
name = fsType;
value = (
);
},
{
name = glyphOrder;
value = (
space,
exclam,
quotedbl,
numbersign,
dollar,
percent,
ampersand,
quotesingle,
parenleft,
parenright,
asterisk,
plus,
comma,
hyphen,
period,
slash,
zero,
one,
two,
three,
four,
five,
six,
seven,
eight,
nine,
colon,
semicolon,
less,
equal,
greater,
question,
at,
A,
B,
C,
D,
E,
F,
G,
H,
I,
J,
K,
L,
M,
N,
O,
P,
Q,
R,
S,
T,
U,
V,
W,
X,
Y,
Z,
bracketleft,
backslash,
bracketright,
asciicircum,
underscore,
a,
b,
c,
d,
e,
f,
g,
h,
i,
j,
k,
l,
m,
n,
o,
p,
q,
r,
s,
t,
u,
v,
w,
x,
y,
z,
braceleft,
bar,
braceright,
euro,
quotesinglbase,
quotedblbase,
ellipsis,
perthousand,
Scaron,
guilsinglleft,
OE,
quoteleft,
quoteright,
quotedblleft,
quotedblright,
bullet,
endash,
emdash,
scaron,
guilsinglright,
oe,
zcaron,
Ydieresis,
exclamdown,
cent,
sterling,
yen,
section,
copyright,
ordfeminine,
guillemetleft,
registered,
degree,
plusminus,
twosuperior,
threesuperior,
periodcentered,
onesuperior,
ordmasculine,
guillemetright,
questiondown,
Agrave,
Aacute,
Acircumflex,
Atilde,
Adieresis,
Aring,
AE,
Ccedilla,
Egrave,
Eacute,
Ecircumflex,
Edieresis,
Igrave,
Iacute,
Icircumflex,
Idieresis,
Ntilde,
Ograve,
Oacute,
Ocircumflex,
Otilde,
Odieresis,
multiply,
Oslash,
Ugrave,
Uacute,
Ucircumflex,
Udieresis,
Yacute,
germandbls,
agrave,
aacute,
acircumflex,
atilde,
adieresis,
aring,
ae,
ccedilla,
egrave,
eacute,
ecircumflex,
edieresis,
igrave,
iacute,
icircumflex,
idieresis,
ntilde,
ograve,
oacute,
ocircumflex,
otilde,
odieresis,
divide,
oslash,
ugrave,
uacute,
ucircumflex,
udieresis,
yacute,
ydieresis
);
},
{
name = license;
value = "SIL Open Font License Version 1.1";
}
);
date = "2024-02-27 10:54:35 +0000";
designer = "vlrn (Silverblur_type)";
designerURL = github.com/vlrntype;
familyName = "SB Skate blade";
featurePrefixes = (
{
automatic = 1;

glyphs = (
{
glyphname = exclam;
lastChange = "2024-03-15 09:59:37 +0000";
layers = (
{
layerId = "B204ABCD-8C29-4F1E-81B1-484861BEFD63";
paths = (
{
closed = 0;
nodes = (
"150 700 LINE"
);
},
{
closed = 1;
nodes = (
"150 200 LINE",
"250 200 LINE",
"250 700 LINE",
"150 700 LINE"
);
},
{
closed = 1;
nodes = (
"150 0 LINE",
"250 0 LINE",
"250 100 LINE",
"150 100 LINE"
);
}
);
width = 330;
}
);
rightMetricsKey = H;
unicode = 0021;
},
{
glyphname = quotedbl;
lastChange = "2024-03-13 11:24:47 +0000";
layers = (
{
layerId = "B204ABCD-8C29-4F1E-81B1-484861BEFD63";
paths = (
{
closed = 1;
nodes = (
"178.9 600 LINE",
"180 800 LINE",
"81.1 800 LINE",
"80 600 LINE"
);
},
{
closed = 1;
nodes = (
"378.9 600 LINE",
"380 800 LINE",
"281.1 800 LINE",
"280 600 LINE"
);
}
);
width = 460;
}
);
leftMetricsKey = H;
rightMetricsKey = H;
unicode = 0022;
},
{
glyphname = numbersign;
lastChange = "2024-03-13 11:24:47 +0000";
layers = (
{
layerId = "B204ABCD-8C29-4F1E-81B1-484861BEFD63";
paths = (
{
closed = 1;
nodes = (
"153.7 60 LINE",
"233.4 60 LINE",
"334.9 640 LINE",
"255.2 640 LINE"
);
},
{
closed = 1;
nodes = (
"353.7 60 LINE",
"433.4 60 LINE",
"534.9 640 LINE",
"455.2 640 LINE"
);
},
{
closed = 1;
nodes = (
"594.6 410 LINE",
"608.6 490 LINE",
"128.9 490 LINE",
"114.9 410 LINE"
);
},
{
closed = 1;
nodes = (
"559.7 210 LINE",
"573.7 290 LINE",
"94 290 LINE",
"80 210 LINE"
);
}
);
width = 688.6;
}
);
leftMetricsKey = H;
rightMetricsKey = H;
unicode = 0023;
},
{
glyphname = dollar;
lastChange = "2024-03-13 11:24:47 +0000";
layers = (
{
layerId = "B204ABCD-8C29-4F1E-81B1-484861BEFD63";
paths = (
{
closed = 1;
nodes = (
"280 400 LINE",
"224.8 400 OFFCURVE",
"180 444.8 OFFCURVE",
"180 500 CURVE SMOOTH",
"180 555.2 OFFCURVE",
"224.8 600 OFFCURVE",
"280 600 CURVE",
"280 700 LINE",
"169.5 700 OFFCURVE",
"80 610.4 OFFCURVE",
"80 500 CURVE SMOOTH",
"80 389.5 OFFCURVE",
"169.5 300 OFFCURVE",
"280 300 CURVE"
);
},
{
closed = 1;
nodes = (
"490.5 0 OFFCURVE",
"580 89.5 OFFCURVE",
"580 200 CURVE SMOOTH",
"580 310.4 OFFCURVE",
"490.5 400 OFFCURVE",
"380 400 CURVE",
"380 300 LINE",
"435.2 300 OFFCURVE",
"480 255.2 OFFCURVE",
"480 200 CURVE SMOOTH",
"480 144.8 OFFCURVE",
"435.2 100 OFFCURVE",
"380 100 CURVE",
"380 0 LINE"
);
},
{
closed = 1;
nodes = (
"530 600 LINE",
"555 700 LINE",
"280 700 LINE",
"280 600 LINE"
);
},
{
closed = 1;
nodes = (
"380 0 LINE",
"380 100 LINE",
"130 100 LINE",
"105 0 LINE"
);
},
{
closed = 1;
nodes = (
"280 300 LINE",
"380 300 LINE",
"380 400 LINE",
"280 400 LINE"
);
},
{
closed = 1;
nodes = (
"292.5 -75 LINE",
"367.5 -75 LINE",
"367.5 775 LINE",
"292.5 775 LINE"
);
}
);
width = 660;
}
);
leftMetricsKey = H;
rightMetricsKey = H;
unicode = 0024;
},
{
glyphname = percent;
lastChange = "2024-03-13 11:24:47 +0000";
layers = (
{
layerId = "B204ABCD-8C29-4F1E-81B1-484861BEFD63";
paths = (
{
closed = 1;
nodes = (
"225 0 LINE",
"596.4 700 LINE",
"492.9 700 LINE",
"121.5 0 LINE"
);
},
{
closed = 1;
nodes = (
"80 480.5 OFFCURVE",
"143.4 417.1 OFFCURVE",
"221.5 417.1 CURVE SMOOTH",
"299.6 417.1 OFFCURVE",
"363 480.5 OFFCURVE",
"363 558.6 CURVE",
"363 636.6 OFFCURVE",
"299.5 700 OFFCURVE",
"221.5 700 CURVE SMOOTH",
"143.5 700 OFFCURVE",
"80 636.6 OFFCURVE",
"80 558.6 CURVE SMOOTH"
);
},
{
closed = 1;
nodes = (
"158.2 593.7 OFFCURVE",
"186.4 621.9 OFFCURVE",
"221.5 621.9 CURVE SMOOTH",
"256.6 621.9 OFFCURVE",
"284.8 593.7 OFFCURVE",
"284.8 558.6 CURVE SMOOTH",
"284.8 523.4 OFFCURVE",
"256.7 495.2 OFFCURVE",
"221.5 495.2 CURVE SMOOTH",
"186.3 495.2 OFFCURVE",
"158.2 523.4 OFFCURVE",
"158.2 558.6 CURVE SMOOTH"
);
},
{
closed = 1;
nodes = (
"354.9 63.4 OFFCURVE",
"418.3 0 OFFCURVE",
"496.4 0 CURVE",
"574.4 0 OFFCURVE",
"637.8 63.5 OFFCURVE",
"637.8 141.5 CURVE",
"637.8 219.5 OFFCURVE",
"574.4 283 OFFCURVE",
"496.4 283 CURVE",
"418.3 283 OFFCURVE",
"354.9 219.6 OFFCURVE",
"354.9 141.5 CURVE"
);
},
{
closed = 1;
nodes = (
"433 176.7 OFFCURVE",
"461.2 204.8 OFFCURVE",
"496.4 204.8 CURVE",
"531.5 204.8 OFFCURVE",
"559.7 176.6 OFFCURVE",
"559.7 141.5 CURVE",
"559.7 106.4 OFFCURVE",
"531.5 78.2 OFFCURVE",
"496.4 78.2 CURVE",
"461.2 78.2 OFFCURVE",
"433 106.3 OFFCURVE",
"433 141.5 CURVE"
);
}
);
width = 717.8;
}
);
leftMetricsKey = H;
rightMetricsKey = H;
unicode = 0025;
},
{
glyphname = ampersand;
lastChange = "2024-03-13 11:24:47 +0000";
layers = (
{
layerId = "B204ABCD-8C29-4F1E-81B1-484861BEFD63";
paths = (
{
closed = 1;
nodes = (
"280 400 LINE",
"224.8 400 OFFCURVE",
"180 444.8 OFFCURVE",
"180 500 CURVE SMOOTH",
"180 555.2 OFFCURVE",
"224.8 600 OFFCURVE",
"280 600 CURVE",
"280 700 LINE",
"169.5 700 OFFCURVE",
"80 610.4 OFFCURVE",
"80 500 CURVE SMOOTH",
"80 389.5 OFFCURVE",
"169.5 300 OFFCURVE",
"280 300 CURVE"
);
},
{
closed = 1;
nodes = (
"530 600 LINE",
"505 700 LINE",
"280 700 LINE",
"280 600 LINE"
);
},
{
closed = 1;
nodes = (
"530 0 LINE",
"530 100 LINE",
"280 100 LINE",
"280 0 LINE"
);
},
{
closed = 1;
nodes = (
"280 300 LINE",
"580 300 LINE",
"580 400 LINE",
"280 400 LINE"
);
},
{
closed = 1;
nodes = (
"280 100 LINE",
"224.8 100 OFFCURVE",
"180 144.8 OFFCURVE",
"180 200 CURVE SMOOTH",
"180 255.2 OFFCURVE",
"224.8 300 OFFCURVE",
"280 300 CURVE",
"280 400 LINE",
"169.5 400 OFFCURVE",
"80 310.4 OFFCURVE",
"80 200 CURVE SMOOTH",
"80 89.5 OFFCURVE",
"169.5 0 OFFCURVE",
"280 0 CURVE"
);
},
{
closed = 1;
nodes = (
"530 350 LINE",
"430 350 LINE",
"430 0 LINE",
"530 0 LINE"
);
}
);
width = 660;
}
);
leftMetricsKey = H;
rightMetricsKey = H;
unicode = 0026;
},
{
glyphname = quotesingle;
lastChange = "2024-03-13 11:24:47 +0000";
layers = (
{
layerId = "B204ABCD-8C29-4F1E-81B1-484861BEFD63";
paths = (
{
closed = 1;
nodes = (
"178.9 600 LINE",
"180 800 LINE",
"81.1 800 LINE",
"80 600 LINE"
);
}
);
width = 260;
}
);
leftMetricsKey = H;
rightMetricsKey = H;
unicode = 0027;
},
{
glyphname = parenleft;
lastChange = "2024-03-13 11:24:47 +0000";
layers = (
{
layerId = "B204ABCD-8C29-4F1E-81B1-484861BEFD63";
paths = (
{
closed = 1;
nodes = (
"80 181.8 OFFCURVE",
"129 27 OFFCURVE",
"211 -100 CURVE",
"271 -100 LINE",
"220 40.3 OFFCURVE",
"180 191.8 OFFCURVE",
"180 350 CURVE SMOOTH",
"180 508.2 OFFCURVE",
"220 659.7 OFFCURVE",
"271 800 CURVE",
"211 800 LINE",
"129 674.1 OFFCURVE",
"80 518.2 OFFCURVE",
"80 350 CURVE SMOOTH"
);
}
);
width = 351;
}
);
leftMetricsKey = H;
rightMetricsKey = H;
unicode = 0028;
},
{
glyphname = parenright;
lastChange = "2024-03-13 11:24:47 +0000";
layers = (
{
layerId = "B204ABCD-8C29-4F1E-81B1-484861BEFD63";
paths = (
{
closed = 1;
nodes = (
"271 518.2 OFFCURVE",
"222 674.1 OFFCURVE",
"140 800 CURVE",
"80 800 LINE",
"131 659.7 OFFCURVE",
"171 508.2 OFFCURVE",
"171 350 CURVE SMOOTH",
"171 191.8 OFFCURVE",
"131 40.3 OFFCURVE",
"80 -100 CURVE",
"140 -100 LINE",
"222 27 OFFCURVE",
"271 181.8 OFFCURVE",
"271 350 CURVE SMOOTH"
);
}
);
width = 351;
}
);
leftMetricsKey = H;
rightMetricsKey = H;
unicode = 0029;
},
{
glyphname = asterisk;
lastChange = "2024-03-13 11:24:47 +0000";
layers = (
{
layerId = "B204ABCD-8C29-4F1E-81B1-484861BEFD63";
paths = (
{
closed = 1;
nodes = (
"142 625 LINE",
"89 678 LINE",
"62 651 LINE",
"115 598 LINE",
"40 598 LINE",
"40 561 LINE",
"115 561 LINE",
"62 508 LINE",
"89 481 LINE",
"142 534 LINE",
"142 459 LINE",
"179 459 LINE",
"179 534 LINE",
"233 481 LINE",
"259 508 LINE",
"206 561 LINE",
"281 561 LINE",
"281 598 LINE",
"206 598 LINE",
"259 651 LINE",
"233 678 LINE",
"179 625 LINE",
"179 700 LINE",
"142 700 LINE"
);
},
{
closed = 0;
nodes = (
"142 625 LINE"
);
},
{
closed = 0;
nodes = (
"142 534 LINE"
);
}
);
width = 531;
}
);
leftMetricsKey = O;
unicode = 002A;
},
{
glyphname = plus;
lastChange = "2024-03-13 11:24:47 +0000";
layers = (
{
layerId = "B204ABCD-8C29-4F1E-81B1-484861BEFD63";
paths = (
{
closed = 1;
nodes = (
"230 150 LINE",
"330 150 LINE",
"330 550 LINE",
"230 550 LINE"
);
},
{
closed = 1;
nodes = (
"480 300 LINE",
"480 400 LINE",
"80 400 LINE",
"80 300 LINE"
);
}
);
width = 560;
}
);
leftMetricsKey = H;
rightMetricsKey = H;
unicode = 002B;
},
{
glyphname = comma;
lastChange = "2024-03-13 11:24:47 +0000";
layers = (
{
layerId = "B204ABCD-8C29-4F1E-81B1-484861BEFD63";
paths = (
{
closed = 1;
nodes = (
"183.6 -100 LINE",
"237.2 100 LINE",
"133.6 100 LINE",
"80 -100 LINE"
);
}
);
width = 317.2;
}
);
leftMetricsKey = H;
rightMetricsKey = H;
unicode = 002C;
},
{
glyphname = hyphen;
lastChange = "2024-03-13 11:24:47 +0000";
layers = (
{
layerId = "B204ABCD-8C29-4F1E-81B1-484861BEFD63";
paths = (
{
closed = 1;
nodes = (
"380 300 LINE",
"380 400 LINE",
"80 400 LINE",
"80 300 LINE"
);
}
);
width = 460;
}
);
leftMetricsKey = H;
rightMetricsKey = H;
unicode = 002D;
},
{
glyphname = period;
lastChange = "2024-03-13 11:24:47 +0000";
layers = (
{
layerId = "B204ABCD-8C29-4F1E-81B1-484861BEFD63";
paths = (
{
closed = 1;
nodes = (
"80 0 LINE",
"180 0 LINE",
"180 100 LINE",
"80 100 LINE"
);
}
);
width = 260;
}
);
leftMetricsKey = H;
rightMetricsKey = H;
unicode = 002E;
},
{
glyphname = slash;
lastChange = "2024-03-15 09:43:42 +0000";
layers = (
{
layerId = "B204ABCD-8C29-4F1E-81B1-484861BEFD63";
paths = (
{
closed = 1;
nodes = (
"253.5 0 LINE",
"441.1 700 LINE",
"337.6 700 LINE",
"150 0 LINE"
);
}
);
width = 591.1;
}
);
unicode = 002F;
},
{
color = 4;
glyphname = zero;
lastChange = "2024-02-27 19:43:14 +0000";
layers = (
{
layerId = "B204ABCD-8C29-4F1E-81B1-484861BEFD63";
paths = (
{
closed = 1;
nodes = (
"40 156.7 OFFCURVE",
"196.7 0 OFFCURVE",
"390 0 CURVE SMOOTH",
"583.3 0 OFFCURVE",
"740 156.7 OFFCURVE",
"740 350 CURVE SMOOTH",
"740 543.3 OFFCURVE",
"583.3 700 OFFCURVE",
"390 700 CURVE SMOOTH",
"196.7 700 OFFCURVE",
"40 543.3 OFFCURVE",
"40 350 CURVE SMOOTH"
);
},
{
closed = 1;
nodes = (
"140 488.1 OFFCURVE",
"251.9 600 OFFCURVE",
"390 600 CURVE SMOOTH",
"528.1 600 OFFCURVE",
"640 488.1 OFFCURVE",
"640 350 CURVE SMOOTH",
"640 211.9 OFFCURVE",
"528.1 100 OFFCURVE",
"390 100 CURVE SMOOTH",
"251.9 100 OFFCURVE",
"140 211.9 OFFCURVE",
"140 350 CURVE SMOOTH"
);
}
);
width = 780;
}
);
leftMetricsKey = O;
rightMetricsKey = O;
unicode = 0030;
},
{
color = 1;
glyphname = one;
lastChange = "2024-02-27 19:41:16 +0000";
layers = (
{
layerId = "B204ABCD-8C29-4F1E-81B1-484861BEFD63";
paths = (
{
closed = 1;
nodes = (
"80 0 LINE",
"180 0 LINE",
"180 600 LINE",
"80 600 LINE"
);
},
{
closed = 1;
nodes = (
"80 600 LINE",
"180 600 LINE",
"180 700 LINE",
"105 700 LINE"
);
}
);
width = 260;
}
);
leftMetricsKey = H;
rightMetricsKey = H;
unicode = 0031;
},
{
color = 9;
glyphname = two;
lastChange = "2024-03-15 09:40:42 +0000";
layers = (
{
layerId = "B204ABCD-8C29-4F1E-81B1-484861BEFD63";
paths = (
{
closed = 1;
nodes = (
"170.5 0 LINE",
"500.3 0 LINE",
"500.3 100 LINE",
"254.4 100 LINE",
"123.8 100 LINE",
"98.9 70.2 OFFCURVE",
"71.1 37.1 OFFCURVE",
"40 0 CURVE"
);
},
{
closed = 1;
nodes = (
"296.4 150 LINE",
"446.3 328.8 LINE SMOOTH",
"479.5 368.4 OFFCURVE",
"500.3 419.2 OFFCURVE",
"500.3 475 CURVE SMOOTH",
"500.3 599.3 OFFCURVE",
"399.6 700 OFFCURVE",
"275.3 700 CURVE",
"275.3 600 LINE",
"344.3 600 OFFCURVE",
"400.3 544 OFFCURVE",
"400.3 475 CURVE SMOOTH",
"400.3 444.4 OFFCURVE",
"389.3 416.4 OFFCURVE",
"371.1 394.7 CURVE SMOOTH",
"322 336.2 OFFCURVE",
"276.3 281.8 OFFCURVE",
"165.7 150 CURVE"
);
},
{
closed = 1;
nodes = (
"90 600 LINE",
"275.3 600 LINE",
"275.3 700 LINE",
"115 700 LINE"
);
}
);
width = 580.3;
}
);
leftMetricsKey = O;
rightMetricsKey = H;
unicode = 0032;
},
{
color = 1;
glyphname = three;
lastChange = "2024-03-15 09:41:18 +0000";
layers = (
{
layerId = "B204ABCD-8C29-4F1E-81B1-484861BEFD63";
paths = (
{
closed = 1;
nodes = (
"305 0 LINE SMOOTH",
"429.3 0 OFFCURVE",
"530 100.7 OFFCURVE",
"530 225 CURVE SMOOTH",
"530 349.3 OFFCURVE",
"429.3 450 OFFCURVE",
"305 450 CURVE SMOOTH",
"255.7 450 LINE",
"193.2 350 LINE",
"305 350 LINE SMOOTH",
"374 350 OFFCURVE",
"430 294 OFFCURVE",
"430 225 CURVE SMOOTH",
"430 156 OFFCURVE",
"374 100 OFFCURVE",
"305 100 CURVE SMOOTH",
"80 100 LINE",
"80 0 LINE"
);
},
{
closed = 1;
nodes = (
"349.5 600 LINE",
"287 500 LINE",
"405 500 LINE",
"530 700 LINE",
"105 700 LINE",
"80 600 LINE"
);
}
);
width = 610;
}
);
leftMetricsKey = H;
rightMetricsKey = H;
unicode = 0033;
},
{
color = 9;
glyphname = four;
lastChange = "2024-03-15 09:40:35 +0000";
layers = (
{
layerId = "B204ABCD-8C29-4F1E-81B1-484861BEFD63";
paths = (
{
closed = 1;
nodes = (
"133.8 300 LINE",
"251.8 300 LINE",
"501.8 700.1 LINE",
"383.8 700.1 LINE"
);
},
{
closed = 1;
nodes = (
"40 150 LINE",
"540 150 LINE",
"540 250 LINE",
"102.5 250 LINE"
);
},
{
closed = 1;
nodes = (
"540 0 LINE",
"540 400 LINE",
"440 400 LINE",
"440 0 LINE"
);
}
);
width = 620;
}
);
leftMetricsKey = O;
rightMetricsKey = H;
unicode = 0034;
},
{
color = 1;
glyphname = five;
lastChange = "2024-03-02 14:16:57 +0000";
layers = (
{
layerId = "B204ABCD-8C29-4F1E-81B1-484861BEFD63";
paths = (
{
closed = 1;
nodes = (
"429.3 0 OFFCURVE",
"530 100.7 OFFCURVE",
"530 225 CURVE SMOOTH",
"530 349.3 OFFCURVE",
"429.3 450 OFFCURVE",
"305 450 CURVE",
"305 350 LINE",
"374 350 OFFCURVE",
"430 294 OFFCURVE",
"430 225 CURVE SMOOTH",
"430 156 OFFCURVE",
"374 100 OFFCURVE",
"305 100 CURVE",
"305 0 LINE"
);
},
{
closed = 1;
nodes = (
"80 600 LINE",
"505 600 LINE",
"480 700 LINE",
"80 700 LINE"
);
},
{
closed = 1;
nodes = (
"80 350 LINE",
"305 350 LINE",
"305 450 LINE",
"80 450 LINE"
);
},
{
closed = 1;
nodes = (
"80 0 LINE",
"305 0 LINE",
"305 100 LINE",
"80 100 LINE"
);
},
{
closed = 1;
nodes = (
"180 350 LINE",
"180 550 LINE",
"80 550 LINE",
"80 350 LINE"
);
}
);
width = 610;
}
);
leftMetricsKey = H;
rightMetricsKey = H;
unicode = 0035;
},
{
color = 1;
glyphname = six;
lastChange = "2024-02-27 19:41:16 +0000";
layers = (
{
layerId = "B204ABCD-8C29-4F1E-81B1-484861BEFD63";
paths = (
{
closed = 1;
nodes = (
"180 500 LINE",
"180 555.2 OFFCURVE",
"224.8 600 OFFCURVE",
"280 600 CURVE",
"280 700 LINE",
"169.5 700 OFFCURVE",
"80 610.4 OFFCURVE",
"80 500 CURVE"
);
},
{
closed = 1;
nodes = (
"380 0 LINE SMOOTH",
"490.5 0 OFFCURVE",
"580 89.5 OFFCURVE",
"580 200 CURVE SMOOTH",
"580 310.4 OFFCURVE",
"490.5 400 OFFCURVE",
"380 400 CURVE SMOOTH",
"230 400 LINE",
"230 300 LINE",
"380 300 LINE SMOOTH",
"435.2 300 OFFCURVE",
"480 255.2 OFFCURVE",
"480 200 CURVE SMOOTH",
"480 144.8 OFFCURVE",
"435.2 100 OFFCURVE",
"380 100 CURVE SMOOTH",
"280 100 LINE",
"280 0 LINE"
);
},
{
closed = 1;
nodes = (
"530 600 LINE",
"505 700 LINE",
"280 700 LINE",
"280 600 LINE"
);
},
{
closed = 1;
nodes = (
"280 100 LINE",
"224.8 100 OFFCURVE",
"180 144.8 OFFCURVE",
"180 200 CURVE",
"80 200 LINE",
"80 89.5 OFFCURVE",
"169.6 0 OFFCURVE",
"280 0 CURVE"
);
},
{
closed = 1;
nodes = (
"180 500 LINE",
"80 500 LINE",
"80 200 LINE",
"180 200 LINE"
);
}
);
width = 660;
}
);
leftMetricsKey = H;
rightMetricsKey = H;
unicode = 0036;
},
{
color = 5;
glyphname = seven;
lastChange = "2024-02-28 13:04:11 +0000";
layers = (
{
layerId = "B204ABCD-8C29-4F1E-81B1-484861BEFD63";
paths = (
{
closed = 1;
nodes = (
"465 475 LINE",
"465 599.3 OFFCURVE",
"364.3 700 OFFCURVE",
"240 700 CURVE",
"240 600 LINE",
"309 600 OFFCURVE",
"365 544 OFFCURVE",
"365 475 CURVE"
);
},
{
closed = 1;
nodes = (
"465 0 LINE",
"465 475 LINE",
"365 475 LINE",
"365 0 LINE"
);
},
{
closed = 1;
nodes = (
"15 600 LINE",
"240 600 LINE",
"240 700 LINE",
"40 700 LINE"
);
}
);
width = 545;
}
);
rightMetricsKey = H;
unicode = 0037;
},
{
color = 1;
glyphname = eight;
lastChange = "2024-02-28 10:43:15 +0000";
layers = (
{
layerId = "B204ABCD-8C29-4F1E-81B1-484861BEFD63";
paths = (
{
closed = 1;
nodes = (
"280 400 LINE",
"224.8 400 OFFCURVE",
"180 444.8 OFFCURVE",
"180 500 CURVE SMOOTH",
"180 555.2 OFFCURVE",
"224.8 600 OFFCURVE",
"280 600 CURVE",
"280 700 LINE",
"169.5 700 OFFCURVE",
"80 610.4 OFFCURVE",
"80 500 CURVE SMOOTH",
"80 389.5 OFFCURVE",
"169.5 300 OFFCURVE",
"280 300 CURVE"
);
},
{
closed = 1;
nodes = (
"490.5 0 OFFCURVE",
"580 89.5 OFFCURVE",
"580 200 CURVE SMOOTH",
"580 310.4 OFFCURVE",
"490.5 400 OFFCURVE",
"380 400 CURVE",
"380 300 LINE",
"435.2 300 OFFCURVE",
"480 255.2 OFFCURVE",
"480 200 CURVE SMOOTH",
"480 144.8 OFFCURVE",
"435.2 100 OFFCURVE",
"380 100 CURVE",
"380 0 LINE"
);
},
{
closed = 1;
nodes = (
"380 600 LINE",
"380 700 LINE",
"280 700 LINE",
"280 600 LINE"
);
},
{
closed = 1;
nodes = (
"380 0 LINE",
"380 100 LINE",
"280 100 LINE",
"280 0 LINE"
);
},
{
closed = 1;
nodes = (
"280 300 LINE",
"380 300 LINE",
"380 400 LINE",
"280 400 LINE"
);
},
{
closed = 1;
nodes = (
"280 100 LINE",
"224.8 100 OFFCURVE",
"180 144.8 OFFCURVE",
"180 200 CURVE SMOOTH",
"180 255.2 OFFCURVE",
"224.8 300 OFFCURVE",
"280 300 CURVE",
"280 400 LINE",
"169.5 400 OFFCURVE",
"80 310.4 OFFCURVE",
"80 200 CURVE SMOOTH",
"80 89.5 OFFCURVE",
"169.5 0 OFFCURVE",
"280 0 CURVE"
);
},
{
closed = 1;
nodes = (
"490.5 300 OFFCURVE",
"580 389.5 OFFCURVE",
"580 500 CURVE SMOOTH",
"580 610.4 OFFCURVE",
"490.5 700 OFFCURVE",
"380 700 CURVE",
"380 600 LINE",
"435.2 600 OFFCURVE",
"480 555.2 OFFCURVE",
"480 500 CURVE SMOOTH",
"480 444.8 OFFCURVE",
"435.2 400 OFFCURVE",
"380 400 CURVE",
"380 300 LINE"
);
}
);
width = 660;
}
);
leftMetricsKey = H;
rightMetricsKey = H;
unicode = 0038;
},
{
color = 1;
glyphname = nine;
lastChange = "2024-03-15 09:41:56 +0000";
layers = (
{
layerId = "B204ABCD-8C29-4F1E-81B1-484861BEFD63";
paths = (
{
closed = 1;
nodes = (
"480 200 LINE",
"480 144.8 OFFCURVE",
"435.2 100 OFFCURVE",
"380 100 CURVE",
"380 0 LINE",
"490.5 0 OFFCURVE",
"580 89.6 OFFCURVE",
"580 200 CURVE"
);
},
{
closed = 1;
nodes = (
"280 700 LINE SMOOTH",
"169.5 700 OFFCURVE",
"80 610.5 OFFCURVE",
"80 500 CURVE SMOOTH",
"80 389.6 OFFCURVE",
"169.5 300 OFFCURVE",
"280 300 CURVE SMOOTH",
"430 300 LINE",
"430 400 LINE",
"280 400 LINE SMOOTH",
"224.8 400 OFFCURVE",
"180 444.8 OFFCURVE",
"180 500 CURVE SMOOTH",
"180 555.2 OFFCURVE",
"224.8 600 OFFCURVE",
"280 600 CURVE SMOOTH",
"380 600 LINE",
"380 700 LINE"
);
},
{
closed = 1;
nodes = (
"130 100 LINE",
"155 0 LINE",
"380 0 LINE",
"380 100 LINE"
);
},
{
closed = 1;
nodes = (
"380 600 LINE",
"435.2 600 OFFCURVE",
"480 555.2 OFFCURVE",
"480 500 CURVE",
"580 500 LINE",
"580 610.5 OFFCURVE",
"490.4 700 OFFCURVE",
"380 700 CURVE"
);
},
{
closed = 1;
nodes = (
"480 200 LINE",
"580 200 LINE",
"580 500 LINE",
"480 500 LINE"
);
}
);
width = 660;
}
);
leftMetricsKey = H;
rightMetricsKey = H;
unicode = 0039;
},
{
glyphname = colon;
lastChange = "2024-03-13 11:24:47 +0000";
layers = (
{
layerId = "B204ABCD-8C29-4F1E-81B1-484861BEFD63";
paths = (
{
closed = 1;
nodes = (
"80 0 LINE",
"180 0 LINE",
"180 100 LINE",
"80 100 LINE"
);
},
{
closed = 1;
nodes = (
"80 400 LINE",
"180 400 LINE",
"180 500 LINE",
"80 500 LINE"
);
}
);
width = 260;
}
);
leftMetricsKey = H;
rightMetricsKey = H;
unicode = 003A;
},
{
glyphname = semicolon;
lastChange = "2024-03-13 11:24:47 +0000";
layers = (
{
layerId = "B204ABCD-8C29-4F1E-81B1-484861BEFD63";
paths = (
{
closed = 1;
nodes = (
"183.6 -100 LINE",
"237.2 100 LINE",
"133.6 100 LINE",
"80 -100 LINE"
);
},
{
closed = 1;
nodes = (
"237.2 400 LINE",
"237.2 500 LINE",
"137.2 500 LINE",
"137.2 400 LINE"
);
}
);
width = 317.2;
}
);
leftMetricsKey = H;
rightMetricsKey = H;
unicode = 003B;
},
{
glyphname = less;
lastChange = "2024-03-19 11:31:54 +0000";
layers = (
{
layerId = "B204ABCD-8C29-4F1E-81B1-484861BEFD63";
paths = (
{
closed = 1;
nodes = (
"80 307.1 OFFCURVE",
"107 270.5 OFFCURVE",
"144.9 256.3 CURVE SMOOTH",
"480 120.9 LINE",
"480 228.8 LINE",
"180 350 LINE",
"480 471.2 LINE",
"480 579.1 LINE",
"144.5 443.5 LINE SMOOTH",
"106.8 429.2 OFFCURVE",
"80 392.7 OFFCURVE",
"80 350 CURVE SMOOTH"
);
}
);
width = 560;
}
);
leftMetricsKey = H;
rightMetricsKey = H;
unicode = 003C;
},
{
glyphname = equal;
lastChange = "2024-03-13 11:24:47 +0000";
layers = (
{
layerId = "B204ABCD-8C29-4F1E-81B1-484861BEFD63";
paths = (
{
closed = 1;
nodes = (
"480 400 LINE",
"480 500 LINE",
"80 500 LINE",
"80 400 LINE"
);
},
{
closed = 1;
nodes = (
"480 200 LINE",
"480 300 LINE",
"80 300 LINE",
"80 200 LINE"
);
}
);
width = 560;
}
);
leftMetricsKey = H;
rightMetricsKey = H;
unicode = 003D;
},
{
glyphname = greater;
lastChange = "2024-03-13 11:24:47 +0000";
layers = (
{
layerId = "B204ABCD-8C29-4F1E-81B1-484861BEFD63";
paths = (
{
closed = 1;
nodes = (
"480 392.7 OFFCURVE",
"453.2 429.2 OFFCURVE",
"415.5 443.5 CURVE SMOOTH",
"80 579.1 LINE",
"80 471.2 LINE",
"380 350 LINE",
"80 228.8 LINE",
"80 120.9 LINE",
"415.1 256.3 LINE SMOOTH",
"453 270.5 OFFCURVE",
"480 307.1 OFFCURVE",
"480 350 CURVE SMOOTH"
);
}
);
width = 560;
}
);
leftMetricsKey = H;
rightMetricsKey = H;
unicode = 003E;
},
{
glyphname = question;
lastChange = "2024-03-15 09:59:52 +0000";
layers = (
{
layerId = "B204ABCD-8C29-4F1E-81B1-484861BEFD63";
paths = (
{
closed = 1;
nodes = (
"345 600 LINE",
"414 600 OFFCURVE",
"470 544 OFFCURVE",
"470 475 CURVE SMOOTH",
"470 406.5 OFFCURVE",
"414 351 OFFCURVE",
"345 350 CURVE",
"345 250 LINE",
"469.3 250 OFFCURVE",
"570 350.7 OFFCURVE",
"570 475 CURVE SMOOTH",
"570 599.3 OFFCURVE",
"469.3 700 OFFCURVE",
"345 700 CURVE"
);
},
{
closed = 1;
nodes = (
"345 250 LINE",
"345 350 LINE",
"175 350 LINE",
"175 250 LINE"
);
},
{
closed = 1;
nodes = (
"345 600 LINE",
"345 700 LINE",
"175 700 LINE",
"150 600 LINE"
);
},
{
closed = 1;
nodes = (
"175 200 LINE",
"275 200 LINE",
"275 350 LINE",
"175 350 LINE"
);
},
{
closed = 1;
nodes = (
"175 0 LINE",
"275 0 LINE",
"275 100 LINE",
"175 100 LINE"
);
}
);
width = 650;
}
);
rightMetricsKey = H;
unicode = 003F;
},
{
glyphname = at;
lastChange = "2024-03-14 19:03:48 +0000";
layers = (
{
layerId = "B204ABCD-8C29-4F1E-81B1-484861BEFD63";
paths = (
{
closed = 1;
nodes = (
"269.7 268.2 OFFCURVE",
"336.1 201.8 OFFCURVE",
"417.9 201.8 CURVE SMOOTH",
"441.5 201.8 OFFCURVE",
"464.1 207.3 OFFCURVE",
"484.5 217.6 CURVE",
"484.5 201.8 LINE",
"566.1 201.8 LINE",
"566.1 498.2 LINE",
"484.5 498.2 LINE",
"484.5 482.4 LINE",
"464.1 492.7 OFFCURVE",
"441.5 498.2 OFFCURVE",
"417.9 498.2 CURVE SMOOTH",
"336.1 498.2 OFFCURVE",
"269.7 431.8 OFFCURVE",
"269.7 350 CURVE SMOOTH"
);
},
{
closed = 1;
nodes = (
"351.3 386.8 OFFCURVE",
"381.1 416.6 OFFCURVE",
"417.9 416.6 CURVE SMOOTH",
"454.7 416.6 OFFCURVE",
"484.5 386.8 OFFCURVE",
"484.5 350 CURVE SMOOTH",
"484.5 313.2 OFFCURVE",
"454.7 283.4 OFFCURVE",
"417.9 283.4 CURVE SMOOTH",
"381.1 283.4 OFFCURVE",
"351.3 313.2 OFFCURVE",
"351.3 350 CURVE SMOOTH"
);
},
{
closed = 1;
nodes = (
"556.1 283.2 LINE",
"556.1 201.8 LINE",
"616.5 201.8 LINE",
"616.5 283.2 LINE"
);
},
{
closed = 1;
nodes = (
"80 162.8 OFFCURVE",
"231.9 10.9 OFFCURVE",
"419.1 10.9 CURVE SMOOTH",
"617.3 10.9 LINE",
"617.3 92.3 LINE",
"419.1 92.5 LINE",
"276.8 92.5 OFFCURVE",
"161.6 207.7 OFFCURVE",
"161.6 350 CURVE SMOOTH",
"161.6 492.3 OFFCURVE",
"276.8 607.5 OFFCURVE",
"419.1 607.5 CURVE SMOOTH",
"561.4 607.5 OFFCURVE",
"676.6 492.3 OFFCURVE",
"676.6 350 CURVE SMOOTH",
"676.6 297.2 OFFCURVE",
"660.5 245.4 OFFCURVE",
"629.8 201.8 CURVE",
"724.1 201.8 LINE",
"746.5 247.5 OFFCURVE",
"758.2 297.7 OFFCURVE",
"758.2 350 CURVE SMOOTH",
"758.2 537.2 OFFCURVE",
"606.3 689.1 OFFCURVE",
"419.1 689.1 CURVE SMOOTH",
"231.9 689.1 OFFCURVE",
"80 537.2 OFFCURVE",
"80 350 CURVE SMOOTH"
);
}
);
width = 838.2;
}
);
leftMetricsKey = H;
rightMetricsKey = H;
unicode = 0040;
},
{
color = 3;
glyphname = A;
lastChange = "2024-03-15 09:19:30 +0000";
layers = (
{
anchors = (
{
name = bottom;
position = "{370, 0}";
},
{
name = ogonek;
position = "{612.7, 0}";
},
{
name = top;
position = "{370.3, 700}";
}
);
layerId = "B204ABCD-8C29-4F1E-81B1-484861BEFD63";
paths = (
{
closed = 1;
nodes = (
"470.3 600 LINE",
"470.3 655.2 OFFCURVE",
"425.5 700 OFFCURVE",
"370.3 700 CURVE SMOOTH",
"315 700 OFFCURVE",
"270.3 655.2 OFFCURVE",
"270.3 600 CURVE"
);
},
{
closed = 1;
nodes = (
"20 0 LINE",
"127.9 0 LINE",
"370.3 600 LINE",
"277.6 637.5 LINE"
);
},
{
closed = 1;
nodes = (
"370.3 600 LINE",
"612.7 0 LINE",
"720.6 0 LINE",
"463 637.5 LINE"
);
}
);
width = 740.6;
}
);
leftKerningGroup = A;
rightKerningGroup = A;
unicode = 0041;
},
{
color = 6;
glyphname = B;
lastChange = "2024-03-12 18:22:13 +0000";
layers = (
{
anchors = (
{
name = bottom;
position = "{298, 0}";
},
{
name = top;
position = "{298, 700}";
}
);
layerId = "B204ABCD-8C29-4F1E-81B1-484861BEFD63";
paths = (
{
closed = 1;
nodes = (
"454.3 0 OFFCURVE",
"555 100.7 OFFCURVE",
"555 225 CURVE SMOOTH",
"555 349.3 OFFCURVE",
"454.3 450 OFFCURVE",
"330 450 CURVE",
"330 350 LINE",
"399 350 OFFCURVE",
"455 294 OFFCURVE",
"455 225 CURVE SMOOTH",
"455 156 OFFCURVE",
"399 100 OFFCURVE",
"330 100 CURVE",
"330 0 LINE"
);
},
{
closed = 1;
nodes = (
"426.7 350 OFFCURVE",
"505 428.3 OFFCURVE",
"505 525 CURVE SMOOTH",
"505 621.7 OFFCURVE",
"426.7 700 OFFCURVE",
"330 700 CURVE",
"330 600 LINE",
"371.4 600 OFFCURVE",
"405 566.4 OFFCURVE",
"405 525 CURVE SMOOTH",
"405 483.6 OFFCURVE",
"371.4 450 OFFCURVE",
"330 450 CURVE",
"330 350 LINE"
);
},
{
closed = 1;
nodes = (
"80 600 LINE",
"330 600 LINE",
"330 700 LINE",
"105 700 LINE"
);
},
{
closed = 1;
nodes = (
"80 350 LINE",
"330 350 LINE",
"330 450 LINE",
"80 450 LINE"
);
},
{
closed = 1;
nodes = (
"80 0 LINE",
"330 0 LINE",
"330 100 LINE",
"80 100 LINE"
);
},
{
closed = 1;
nodes = (
"180 0 LINE",
"180 350 LINE",
"80 350 LINE",
"80 0 LINE"
);
}
);
width = 595;
}
);
leftMetricsKey = H;
rightMetricsKey = O;
unicode = 0042;
},
{
color = 4;
glyphname = C;
lastChange = "2024-03-15 09:34:51 +0000";
layers = (
{
anchors = (
{
name = bottom;
position = "{390, 0}";
},
{
name = top;
position = "{390, 700}";
}
);
layerId = "B204ABCD-8C29-4F1E-81B1-484861BEFD63";
paths = (
{
closed = 1;
nodes = (
"40 156.7 OFFCURVE",
"196.7 0 OFFCURVE",
"390 0 CURVE SMOOTH",
"486.6 0 OFFCURVE",
"574.1 39.2 OFFCURVE",
"637.5 102.5 CURVE",
"566.8 173.2 LINE",
"521.5 128 OFFCURVE",
"459 100 OFFCURVE",
"390 100 CURVE SMOOTH",
"251.9 100 OFFCURVE",
"140 211.9 OFFCURVE",
"140 350 CURVE SMOOTH",
"140 488.1 OFFCURVE",
"251.9 600 OFFCURVE",
"390 600 CURVE SMOOTH",
"459.1 600 OFFCURVE",
"521.5 572 OFFCURVE",
"566.8 526.8 CURVE",
"637.5 597.5 LINE",
"574.1 660.8 OFFCURVE",
"486.6 700 OFFCURVE",
"390 700 CURVE SMOOTH",
"196.7 700 OFFCURVE",
"40 543.3 OFFCURVE",
"40 350 CURVE SMOOTH"
);
}
);
width = 677.5;
}
);
leftMetricsKey = O;
rightMetricsKey = O;
unicode = 0043;
},
{
color = 6;
glyphname = D;
lastChange = "2024-03-12 18:23:10 +0000";
layers = (
{
anchors = (
{
name = bottom;
position = "{280, 0}";
},
{
name = center;
position = "{335, 350}";
},
{
name = top;
position = "{280, 700}";
}
);
layerId = "B204ABCD-8C29-4F1E-81B1-484861BEFD63";
paths = (
{
closed = 1;
nodes = (
"473.3 0 OFFCURVE",
"630 156.7 OFFCURVE",
"630 350 CURVE SMOOTH",
"630 543.3 OFFCURVE",
"473.3 700 OFFCURVE",
"280 700 CURVE",
"280 600 LINE",
"418.1 600 OFFCURVE",
"530 488.1 OFFCURVE",
"530 350 CURVE SMOOTH",
"530 211.9 OFFCURVE",
"418.1 100 OFFCURVE",
"280 100 CURVE",
"280 0 LINE"
);
},
{
closed = 1;
nodes = (
"80 600 LINE",
"280 600 LINE",
"280 700 LINE",
"105 700 LINE"
);
},
{
closed = 1;
nodes = (
"80 0 LINE",
"280 0 LINE",
"280 100 LINE",
"80 100 LINE"
);
},
{
closed = 1;
nodes = (
"180 0 LINE",
"180 550 LINE",
"80 550 LINE",
"80 0 LINE"
);
}
);
width = 670;
}
);
leftMetricsKey = H;
rightMetricsKey = O;
unicode = 0044;
},
{
color = 1;
glyphname = E;
lastChange = "2024-03-12 18:23:20 +0000";
layers = (
{
anchors = (
{
name = bottom;
position = "{305, 0}";
},
{
name = ogonek;
position = "{530, 0}";
},
{
name = top;
position = "{300, 700}";
},
{
name = topleft;
position = "{20, 700}";
}
);
layerId = "B204ABCD-8C29-4F1E-81B1-484861BEFD63";
paths = (
{
closed = 1;
nodes = (
"80 0 LINE",
"180 0 LINE",
"180 400 LINE",
"80 400 LINE"
);
},
{
closed = 1;
nodes = (
"530 600 LINE",
"505 700 LINE",
"80 700 LINE",
"80 600 LINE"
);
},
{
closed = 1;
nodes = (
"530 0 LINE",
"530 100 LINE",
"80 100 LINE",
"80 0 LINE"
);
},
{
closed = 1;
nodes = (
"430 300 LINE",
"430 400 LINE",
"80 400 LINE",
"80 300 LINE"
);
}
);
width = 610;
}
);
leftMetricsKey = H;
rightMetricsKey = H;
unicode = 0045;
},
{
color = 6;
glyphname = F;
lastChange = "2024-03-12 18:23:41 +0000";
layers = (
{
anchors = (
{
name = bottom;
position = "{285, 0}";
},
{
name = top;
position = "{300, 700}";
}
);
layerId = "B204ABCD-8C29-4F1E-81B1-484861BEFD63";
paths = (
{
closed = 1;
nodes = (
"80 0 LINE",
"180 0 LINE",
"180 400 LINE",
"80 400 LINE"
);
},
{
closed = 1;
nodes = (
"530 600 LINE",
"505 700 LINE",
"80 700 LINE",
"80 600 LINE"
);
},
{
closed = 1;
nodes = (
"430 300 LINE",
"430 400 LINE",
"80 400 LINE",
"80 300 LINE"
);
}
);
width = 570;
}
);
leftMetricsKey = H;
rightMetricsKey = O;
unicode = 0046;
},
{
color = 9;
glyphname = G;
lastChange = "2024-03-15 09:34:41 +0000";
layers = (
{
anchors = (
{
name = bottom;
position = "{390, 0}";
},
{
name = top;
position = "{390, 700}";
}
);
layerId = "B204ABCD-8C29-4F1E-81B1-484861BEFD63";
paths = (
{
closed = 1;
nodes = (
"390 100 LINE",
"251.9 100 OFFCURVE",
"140 211.9 OFFCURVE",
"140 350 CURVE SMOOTH",
"140 488.1 OFFCURVE",
"251.9 600 OFFCURVE",
"390 600 CURVE",
"390 700 LINE",
"196.7 700 OFFCURVE",
"40 543.3 OFFCURVE",
"40 350 CURVE SMOOTH",
"40 156.7 OFFCURVE",
"196.7 0 OFFCURVE",
"390 0 CURVE"
);
},
{
closed = 1;
nodes = (
"390 700 LINE",
"390 600 LINE",
"590 600 LINE",
"565 700 LINE"
);
},
{
closed = 1;
nodes = (
"390 100 LINE",
"390 0 LINE",
"590 0 LINE",
"590 100 LINE"
);
},
{
closed = 1;
nodes = (
"590 0 LINE",
"590 350 LINE",
"490 350 LINE",
"490 0 LINE"
);
}
);
width = 670;
}
);
leftMetricsKey = O;
rightMetricsKey = H;
unicode = 0047;
},
{
color = 1;
glyphname = H;
lastChange = "2024-03-12 18:24:02 +0000";
layers = (
{
anchors = (
{
name = bottom;
position = "{355, 0}";
},
{
name = center;
position = "{355, 350}";
},
{
name = top;
position = "{355, 700}";
},
{
name = topleft;
position = "{20, 700}";
}
);
layerId = "B204ABCD-8C29-4F1E-81B1-484861BEFD63";
paths = (
{
closed = 1;
nodes = (
"80 0 LINE",
"180 0 LINE",
"180 700 LINE",
"80 700 LINE"
);
},
{
closed = 1;
nodes = (
"605 300 LINE",
"605 400 LINE",
"255 400 LINE",
"230 300 LINE"
);
},
{
closed = 1;
nodes = (
"530 0 LINE",
"630 0 LINE",
"630 700 LINE",
"530 700 LINE"
);
}
);
width = 710;
}
);
leftMetricsKey = H;
rightMetricsKey = H;
unicode = 0048;
},
{
color = 1;
glyphname = I;
lastChange = "2024-03-12 18:03:15 +0000";
layers = (
{
anchors = (
{
name = bottom;
position = "{130, 0}";
},
{
name = ogonek;
position = "{180, 0}";
},
{
name = top;
position = "{130, 700}";
},
{
name = topleft;
position = "{130, 700}";
}
);
layerId = "B204ABCD-8C29-4F1E-81B1-484861BEFD63";
paths = (
{
closed = 1;
nodes = (
"80 0 LINE",
"180 0 LINE",
"180 700 LINE",
"80 700 LINE"
);
}
);
width = 260;
}
);
leftMetricsKey = H;
rightMetricsKey = H;
unicode = 0049;
},
{
color = 10;
glyphname = J;
lastChange = "2024-03-15 09:36:37 +0000";
layers = (
{
anchors = (
{
name = bottom;
position = "{245, 0}";
},
{
name = top;
position = "{275, 700}";
}
);
layerId = "B204ABCD-8C29-4F1E-81B1-484861BEFD63";
paths = (
{
closed = 1;
nodes = (
"370 156 OFFCURVE",
"314 100 OFFCURVE",
"245 100 CURVE",
"245 0 LINE",
"369.3 0 OFFCURVE",
"470 100.7 OFFCURVE",
"470 225 CURVE",
"370 225 LINE"
);
},
{
closed = 1;
nodes = (
"370 225 LINE",
"470 225 LINE",
"470 700 LINE",
"370 700 LINE"
);
},
{
closed = 1;
nodes = (
"245 0 LINE",
"245 100 LINE",
"45 100 LINE",
"20 0 LINE"
);
}
);
width = 550;
}
);
rightMetricsKey = H;
unicode = 004A;
},
{
color = 0;
glyphname = K;
lastChange = "2024-03-12 18:24:37 +0000";
layers = (
{
anchors = (
{
name = bottom;
position = "{329, 0}";
},
{
name = top;
position = "{329, 700}";
}
);
layerId = "B204ABCD-8C29-4F1E-81B1-484861BEFD63";
paths = (
{
closed = 1;
nodes = (
"312.5 450 LINE",
"257.3 450 OFFCURVE",
"212.5 405.2 OFFCURVE",
"212.5 350 CURVE SMOOTH",
"212.5 294.7 OFFCURVE",
"257.3 250 OFFCURVE",
"312.5 250 CURVE"
);
},
{
closed = 1;
nodes = (
"312.5 350 LINE",
"638.9 700 LINE",
"502.1 700 LINE",
"239.4 418.2 LINE"
);
},
{
closed = 1;
nodes = (
"80 0 LINE",
"180 0 LINE",
"180 700 LINE",
"80 700 LINE"
);
},
{
closed = 1;
nodes = (
"502.1 0 LINE",
"638.9 0 LINE",
"312.5 350 LINE",
"239.4 281.8 LINE"
);
}
);
width = 658.9;
}
);
leftMetricsKey = H;
unicode = 004B;
},
{
color = 0;
glyphname = L;
lastChange = "2024-03-12 18:24:44 +0000";
layers = (
{
anchors = (
{
name = bottom;
position = "{275, 0}";
},
{
name = center;
position = "{275, 350}";
},
{
name = top;
position = "{275, 700}";
},
{
name = topright;
position = "{530, 700}";
}
);
layerId = "B204ABCD-8C29-4F1E-81B1-484861BEFD63";
paths = (
{
closed = 1;
nodes = (
"80 0 LINE",
"180 0 LINE",
"180 700 LINE",
"80 700 LINE"
);
},
{
closed = 1;
nodes = (
"530 0 LINE",
"505 100 LINE",
"80 100 LINE",
"80 0 LINE"
);
}
);
width = 550;
}
);
leftMetricsKey = H;
unicode = 004C;
},
{
color = 1;
glyphname = M;
lastChange = "2024-03-12 18:24:52 +0000";
layers = (
{
anchors = (
{
name = bottom;
position = "{500, 0}";
},
{
name = top;
position = "{500, 700}";
}
);
layerId = "B204ABCD-8C29-4F1E-81B1-484861BEFD63";
paths = (
{
closed = 1;
nodes = (
"394 600 OFFCURVE",
"450 544 OFFCURVE",
"450 475 CURVE",
"550 475 LINE",
"550 599.3 OFFCURVE",
"449.3 700 OFFCURVE",
"325 700 CURVE",
"325 600 LINE"
);
},
{
closed = 1;
nodes = (
"450 0 LINE",
"550 0 LINE",
"550 475 LINE",
"450 475 LINE"
);
},
{
closed = 1;
nodes = (
"325 600 LINE",
"325 700 LINE",
"105 700 LINE",
"80 600 LINE"
);
},
{
closed = 1;
nodes = (
"80 0 LINE",
"180 0 LINE",
"180 550 LINE",
"80 550 LINE"
);
},
{
closed = 1;
nodes = (
"764 600 OFFCURVE",
"820 544 OFFCURVE",
"820 475 CURVE",
"920 475 LINE",
"920 599.3 OFFCURVE",
"819.3 700 OFFCURVE",
"695 700 CURVE",
"695 600 LINE"
);
},
{
closed = 1;
nodes = (
"820 0 LINE",
"920 0 LINE",
"920 475 LINE",
"820 475 LINE"
);
},
{
closed = 1;
nodes = (
"695 600 LINE",
"695 700 LINE",
"570 700 LINE",
"545 600 LINE"
);
}
);
width = 1000;
}
);
leftMetricsKey = H;
rightMetricsKey = H;
unicode = 004D;
},
{
color = 1;
glyphname = N;
lastChange = "2024-03-12 18:25:00 +0000";
layers = (
{
anchors = (
{
name = bottom;
position = "{355, 0}";
},
{
name = top;
position = "{355, 700}";
}
);
layerId = "B204ABCD-8C29-4F1E-81B1-484861BEFD63";
paths = (
{
closed = 1;
nodes = (
"474 600 OFFCURVE",
"530 544 OFFCURVE",
"530 475 CURVE",
"630 475 LINE",
"630 599.3 OFFCURVE",
"529.3 700 OFFCURVE",
"405 700 CURVE",
"405 600 LINE"
);
},
{
closed = 1;
nodes = (
"530 0 LINE",
"630 0 LINE",
"630 475 LINE",
"530 475 LINE"
);
},
{
closed = 1;
nodes = (
"405 600 LINE",
"405 700 LINE",
"105 700 LINE",
"80 600 LINE"
);
},
{
closed = 1;
nodes = (
"80 0 LINE",
"180 0 LINE",
"180 550 LINE",
"80 550 LINE"
);
}
);
width = 710;
}
);
leftMetricsKey = H;
rightMetricsKey = H;
unicode = 004E;
},
{
color = 4;
glyphname = O;
lastChange = "2024-03-15 09:34:58 +0000";
layers = (
{
anchors = (
{
name = bottom;
position = "{390, 0}";
},
{
name = center;
position = "{390, 350}";
},
{
name = ogonek;
position = "{700, 0}";
},
{
name = top;
position = "{390, 700}";
},
{
name = topleft;
position = "{20, 700}";
},
{
name = topright;
position = "{760, 700}";
}
);
layerId = "B204ABCD-8C29-4F1E-81B1-484861BEFD63";
paths = (
{
closed = 1;
nodes = (
"40 156.7 OFFCURVE",
"196.7 0 OFFCURVE",
"390 0 CURVE SMOOTH",
"583.3 0 OFFCURVE",
"740 156.7 OFFCURVE",
"740 350 CURVE SMOOTH",
"740 543.3 OFFCURVE",
"583.3 700 OFFCURVE",
"390 700 CURVE SMOOTH",
"196.7 700 OFFCURVE",
"40 543.3 OFFCURVE",
"40 350 CURVE SMOOTH"
);
},
{
closed = 1;
nodes = (
"140 488.1 OFFCURVE",
"251.9 600 OFFCURVE",
"390 600 CURVE SMOOTH",
"528.1 600 OFFCURVE",
"640 488.1 OFFCURVE",
"640 350 CURVE SMOOTH",
"640 211.9 OFFCURVE",
"528.1 100 OFFCURVE",
"390 100 CURVE SMOOTH",
"251.9 100 OFFCURVE",
"140 211.9 OFFCURVE",
"140 350 CURVE SMOOTH"
);
}
);
width = 780;
}
);
leftKerningGroup = O;
rightKerningGroup = O;
unicode = 004F;
},
{
color = 6;
glyphname = P;
lastChange = "2024-03-12 18:25:42 +0000";
layers = (
{
anchors = (
{
name = bottom;
position = "{298, 0}";
},
{
name = top;
position = "{298, 700}";
}
);
layerId = "B204ABCD-8C29-4F1E-81B1-484861BEFD63";
paths = (
{
closed = 1;
nodes = (
"330 600 LINE",
"399 600 OFFCURVE",
"455 544 OFFCURVE",
"455 475 CURVE SMOOTH",
"455 406 OFFCURVE",
"399 350 OFFCURVE",
"330 350 CURVE",
"330 250 LINE",
"454.3 250 OFFCURVE",
"555 350.7 OFFCURVE",
"555 475 CURVE SMOOTH",
"555 599.3 OFFCURVE",
"454.3 700 OFFCURVE",
"330 700 CURVE"
);
},
{
closed = 1;
nodes = (
"330 250 LINE",
"330 350 LINE",
"80 350 LINE",
"80 250 LINE"
);
},
{
closed = 1;
nodes = (
"330 600 LINE",
"330 700 LINE",
"105 700 LINE",
"80 600 LINE"
);
},
{
closed = 1;
nodes = (
"180 0 LINE",
"180 350 LINE",
"80 350 LINE",
"80 0 LINE"
);
}
);
width = 595;
}
);
leftMetricsKey = H;
rightMetricsKey = O;
unicode = 0050;
},
{
color = 4;
glyphname = Q;
lastChange = "2024-03-15 09:34:46 +0000";
layers = (
{
layerId = "B204ABCD-8C29-4F1E-81B1-484861BEFD63";
paths = (
{
closed = 1;
nodes = (
"40 156.7 OFFCURVE",
"196.7 0 OFFCURVE",
"390 0 CURVE SMOOTH",
"583.3 0 OFFCURVE",
"740 156.7 OFFCURVE",
"740 350 CURVE SMOOTH",
"740 543.3 OFFCURVE",
"583.3 700 OFFCURVE",
"390 700 CURVE SMOOTH",
"196.7 700 OFFCURVE",
"40 543.3 OFFCURVE",
"40 350 CURVE SMOOTH"
);
},
{
closed = 1;
nodes = (
"140 488.1 OFFCURVE",
"251.9 600 OFFCURVE",
"390 600 CURVE SMOOTH",
"528.1 600 OFFCURVE",
"640 488.1 OFFCURVE",
"640 350 CURVE SMOOTH",
"640 211.9 OFFCURVE",
"528.1 100 OFFCURVE",
"390 100 CURVE SMOOTH",
"251.9 100 OFFCURVE",
"140 211.9 OFFCURVE",
"140 350 CURVE SMOOTH"
);
},
{
closed = 1;
nodes = (
"514.5 84.1 LINE",
"598.6 0 LINE",
"740 0 LINE",
"583.3 156.7 LINE"
);
}
);
width = 780;
}
);
leftMetricsKey = O;
rightMetricsKey = O;
unicode = 0051;
},
{
color = 7;
glyphname = R;
lastChange = "2024-03-15 09:37:57 +0000";
layers = (
{
layerId = "B204ABCD-8C29-4F1E-81B1-484861BEFD63";
paths = (
{
closed = 1;
nodes = (
"330 600 LINE",
"399 600 OFFCURVE",
"455 544 OFFCURVE",
"455 475 CURVE SMOOTH",
"455 406 OFFCURVE",
"399 350 OFFCURVE",
"330 350 CURVE",
"330 250 LINE",
"454.3 250 OFFCURVE",
"555 350.7 OFFCURVE",
"555 475 CURVE SMOOTH",
"555 599.3 OFFCURVE",
"454.3 700 OFFCURVE",
"330 700 CURVE"
);
},
{
closed = 1;
nodes = (
"330 250 LINE",
"330 350 LINE",
"80 350 LINE",
"80 250 LINE"
);
},
{
closed = 1;
nodes = (
"330 600 LINE",
"330 700 LINE",
"105 700 LINE",
"80 600 LINE"
);
},
{
closed = 1;
nodes = (
"474.2 200 LINE",
"366.4 200 LINE",
"446.9 0 LINE",
"555 0 LINE"
);
},
{
closed = 1;
nodes = (
"80 0 LINE",
"180 0 LINE",
"180 250 LINE",
"80 250 LINE"
);
}
);
width = 615;
}
);
leftMetricsKey = H;
unicode = 0052;
},
{
color = 4;
glyphname = S;
lastChange = "2024-03-15 09:30:30 +0000";
layers = (
{
layerId = "B204ABCD-8C29-4F1E-81B1-484861BEFD63";
paths = (
{
closed = 1;
nodes = (
"240 400 LINE",
"184.8 400 OFFCURVE",
"140 444.8 OFFCURVE",
"140 500 CURVE SMOOTH",
"140 555.2 OFFCURVE",
"184.8 600 OFFCURVE",
"240 600 CURVE",
"240 700 LINE",
"129.5 700 OFFCURVE",
"40 610.4 OFFCURVE",
"40 500 CURVE SMOOTH",
"40 389.5 OFFCURVE",
"129.5 300 OFFCURVE",
"240 300 CURVE"
);
},
{
closed = 1;
nodes = (
"450.5 0 OFFCURVE",
"540 89.5 OFFCURVE",
"540 200 CURVE SMOOTH",
"540 310.4 OFFCURVE",
"450.5 400 OFFCURVE",
"340 400 CURVE",
"340 300 LINE",
"395.2 300 OFFCURVE",
"440 255.2 OFFCURVE",
"440 200 CURVE SMOOTH",
"440 144.8 OFFCURVE",
"395.2 100 OFFCURVE",
"340 100 CURVE",
"340 0 LINE"
);
},
{
closed = 1;
nodes = (
"490 600 LINE",
"515 700 LINE",
"240 700 LINE",
"240 600 LINE"
);
},
{
closed = 1;
nodes = (
"340 0 LINE",
"340 100 LINE",
"90 100 LINE",
"65 0 LINE"
);
},
{
closed = 1;
nodes = (
"240 300 LINE",
"340 300 LINE",
"340 400 LINE",
"240 400 LINE"
);
}
);
width = 580;
}
);
leftMetricsKey = O;
rightMetricsKey = O;
unicode = 0053;
},
{
color = 3;
glyphname = T;
lastChange = "2024-03-15 09:25:41 +0000";
layers = (
{
layerId = "B204ABCD-8C29-4F1E-81B1-484861BEFD63";
paths = (
{
closed = 1;
nodes = (
"245 0 LINE",
"345 0 LINE",
"345 700 LINE",
"245 700 LINE"
);
},
{
closed = 1;
nodes = (
"570 600 LINE",
"570 700 LINE",
"20 700 LINE",
"20 600 LINE"
);
}
);
width = 590;
}
);
leftMetricsKey = A;
rightMetricsKey = A;
unicode = 0054;
},
{
color = 1;
glyphname = U;
lastChange = "2024-02-27 19:41:16 +0000";
layers = (
{
layerId = "B204ABCD-8C29-4F1E-81B1-484861BEFD63";
paths = (
{
closed = 1;
nodes = (
"405 0 LINE",
"529.3 0 OFFCURVE",
"630 100.7 OFFCURVE",
"630 225 CURVE",
"530 225 LINE",
"530 156 OFFCURVE",
"474 100 OFFCURVE",
"405 100 CURVE"
);
},
{
closed = 1;
nodes = (
"630 225 LINE",
"630 700 LINE",
"530 700 LINE",
"530 225 LINE"
);
},
{
closed = 1;
nodes = (
"105 0 LINE",
"405 0 LINE",
"405 100 LINE",
"80 100 LINE"
);
},
{
closed = 1;
nodes = (
"180 150 LINE",
"180 700 LINE",
"80 700 LINE",
"80 150 LINE"
);
}
);
width = 710;
}
);
leftMetricsKey = H;
rightMetricsKey = H;
unicode = 0055;
},
{
color = 3;
glyphname = V;
lastChange = "2024-03-15 09:38:31 +0000";
layers = (
{
layerId = "B204ABCD-8C29-4F1E-81B1-484861BEFD63";
paths = (
{
closed = 1;
nodes = (
"270.3 44.8 OFFCURVE",
"315 0 OFFCURVE",
"370.3 0 CURVE SMOOTH",
"425.5 0 OFFCURVE",
"470.3 44.8 OFFCURVE",
"470.3 100 CURVE",
"270.3 100 LINE"
);
},
{
closed = 1;
nodes = (
"370.3 100 LINE",
"127.9 700 LINE",
"20 700 LINE",
"277.6 62.5 LINE"
);
},
{
closed = 1;
nodes = (
"720.6 700 LINE",
"612.7 700 LINE",
"370.3 100 LINE",
"463 62.5 LINE"
);
}
);
width = 740.6;
}
);
leftKerningGroup = A;
leftMetricsKey = A;
rightMetricsKey = A;
unicode = 0056;
},
{
color = 1;
glyphname = W;
lastChange = "2024-03-08 10:45:58 +0000";
layers = (
{
layerId = "B204ABCD-8C29-4F1E-81B1-484861BEFD63";
paths = (
{
closed = 1;
nodes = (
"325 0 LINE",
"449.3 0 OFFCURVE",
"550 100.7 OFFCURVE",
"550 225 CURVE",
"450 225 LINE",
"450 156 OFFCURVE",
"394 100 OFFCURVE",
"325 100 CURVE"
);
},
{
closed = 1;
nodes = (
"550 225 LINE",
"550 700 LINE",
"450 700 LINE",
"450 225 LINE"
);
},
{
closed = 1;
nodes = (
"105 0 LINE",
"325 0 LINE",
"325 100 LINE",
"80 100 LINE"
);
},
{
closed = 1;
nodes = (
"180 150 LINE",
"180 700 LINE",
"80 700 LINE",
"80 150 LINE"
);
},
{
closed = 1;
nodes = (
"695 0 LINE",
"819.3 0 OFFCURVE",
"920 100.7 OFFCURVE",
"920 225 CURVE",
"820 225 LINE",
"820 156 OFFCURVE",
"764 100 OFFCURVE",
"695 100 CURVE"
);
},
{
closed = 1;
nodes = (
"920 225 LINE",
"920 700 LINE",
"820 700 LINE",
"820 225 LINE"
);
},
{
closed = 1;
nodes = (
"570 0 LINE",
"695 0 LINE",
"695 100 LINE",
"545 100 LINE"
);
}
);
width = 1000;
}
);
leftMetricsKey = H;
rightMetricsKey = H;
unicode = 0057;
},
{
color = 3;
glyphname = X;
lastChange = "2024-03-15 09:30:15 +0000";
layers = (
{
layerId = "B204ABCD-8C29-4F1E-81B1-484861BEFD63";
paths = (
{
closed = 1;
nodes = (
"651.8 699.3 LINE",
"528.5 699.4 LINE",
"368.5 479.2 LINE",
"425.5 388 LINE"
);
},
{
closed = 1;
nodes = (
"143.7 0 LINE",
"355.4 291.4 LINE",
"274.5 350 LINE",
"20 0 LINE"
);
},
{
closed = 1;
nodes = (
"329.7 250 OFFCURVE",
"374.5 294.7 OFFCURVE",
"374.5 350 CURVE SMOOTH",
"374.5 405.2 OFFCURVE",
"329.7 450 OFFCURVE",
"274.5 450 CURVE",
"274.5 250 LINE"
);
},
{
closed = 1;
nodes = (
"355.4 408.6 LINE",
"143 699.6 LINE",
"20 700 LINE",
"274.5 350 LINE"
);
},
{
closed = 1;
nodes = (
"368.4 219.9 LINE",
"527.8 0 LINE",
"651.8 -0.4 LINE",
"425.4 311.1 LINE"
);
}
);
width = 671.8;
}
);
unicode = 0058;
},
{
color = 3;
glyphname = Y;
lastChange = "2024-03-15 10:17:14 +0000";
layers = (
{
layerId = "B204ABCD-8C29-4F1E-81B1-484861BEFD63";
paths = (
{
closed = 1;
nodes = (
"235 369.8 OFFCURVE",
"279.7 325 OFFCURVE",
"335 325 CURVE SMOOTH",
"390.2 325 OFFCURVE",
"435 369.8 OFFCURVE",
"435 425 CURVE",
"235 425 LINE"
);
},
{
closed = 1;
nodes = (
"650 700.3 LINE",
"527.8 700.3 LINE",
"335 425 LINE",
"417 367.5 LINE"
);
},
{
closed = 1;
nodes = (
"335 425 LINE",
"142.2 700.3 LINE",
"20 700.3 LINE",
"253 367.5 LINE"
);
},
{
closed = 1;
nodes = (
"285 0 LINE",
"385 0 LINE",
"385 275 LINE",
"285 275 LINE"
);
}
);
width = 670;
}
);
leftKerningGroup = Y;
rightKerningGroup = Y;
unicode = 0059;
},
{
color = 4;
glyphname = Z;
lastChange = "2024-02-28 10:59:20 +0000";
layers = (
{
layerId = "B204ABCD-8C29-4F1E-81B1-484861BEFD63";
paths = (
{
closed = 1;
nodes = (
"595.6 0 LINE",
"595.6 100 LINE",
"102.5 100 LINE",
"40 0 LINE"
);
},
{
closed = 1;
nodes = (
"415.1 600 LINE",
"133.8 150 LINE",
"251.8 150 LINE",
"595.6 700 LINE",
"65 700 LINE",
"65 600 LINE"
);
}
);
width = 635.6;
}
);
leftMetricsKey = O;
rightMetricsKey = O;
unicode = 005A;
},
{
glyphname = bracketleft;
lastChange = "2024-03-15 10:11:28 +0000";
layers = (
{
layerId = "B204ABCD-8C29-4F1E-81B1-484861BEFD63";
paths = (
{
closed = 1;
nodes = (
"124.8 800 OFFCURVE",
"80 755.3 OFFCURVE",
"80 700 CURVE SMOOTH",
"80 0 LINE SMOOTH",
"80 -55.3 OFFCURVE",
"124.8 -100 OFFCURVE",
"180 -100 CURVE SMOOTH",
"280 -100 LINE",
"280 0 LINE",
"180 0 LINE",
"180 700 LINE",
"280 700 LINE",
"280 800 LINE",
"180 800 LINE SMOOTH"
);
}
);
width = 360;
}
);
leftMetricsKey = H;
rightMetricsKey = H;
unicode = 005B;
},
{
glyphname = backslash;
lastChange = "2024-03-15 09:43:50 +0000";
layers = (
{
layerId = "B204ABCD-8C29-4F1E-81B1-484861BEFD63";
paths = (
{
closed = 1;
nodes = (
"337.6 0 LINE",
"441.1 0 LINE",
"253.5 700 LINE",
"150 700 LINE"
);
}
);
width = 591.1;
}
);
unicode = 005C;
},
{
glyphname = bracketright;
lastChange = "2024-03-15 10:11:57 +0000";
layers = (
{
layerId = "B204ABCD-8C29-4F1E-81B1-484861BEFD63";
paths = (
{
closed = 1;
nodes = (
"80 800 LINE",
"80 700 LINE",
"180 700 LINE",
"180 0 LINE",
"80 0 LINE",
"80 -100 LINE",
"180 -100 LINE SMOOTH",
"235.2 -100 OFFCURVE",
"280 -55.3 OFFCURVE",
"280 0 CURVE SMOOTH",
"280 700 LINE SMOOTH",
"280 755.3 OFFCURVE",
"235.2 800 OFFCURVE",
"180 800 CURVE SMOOTH"
);
}
);
width = 360;
}
);
leftMetricsKey = H;
rightMetricsKey = H;
unicode = 005D;
},
{
glyphname = asciicircum;
lastChange = "2024-03-19 11:31:54 +0000";
layers = (
{
layerId = "B204ABCD-8C29-4F1E-81B1-484861BEFD63";
paths = (
{
closed = 1;
nodes = (
"381.1 663.4 LINE",
"362.8 685.8 OFFCURVE",
"335 700 OFFCURVE",
"303.8 700 CURVE SMOOTH",
"272.9 700 OFFCURVE",
"245.2 686 OFFCURVE",
"226.9 663.9 CURVE",
"80 500.8 LINE",
"214.5 500.8 LINE",
"303.8 600 LINE",
"393.1 500.8 LINE",
"527.6 500.8 LINE"
);
}
);
width = 607.6;
}
);
leftMetricsKey = H;
rightMetricsKey = H;
unicode = 005E;
},
{
glyphname = underscore;
lastChange = "2024-03-13 11:24:47 +0000";
layers = (
{
layerId = "B204ABCD-8C29-4F1E-81B1-484861BEFD63";
paths = (
{
closed = 1;
nodes = (
"530 -100 LINE",
"530 0 LINE",
"80 0 LINE",
"80 -100 LINE"
);
}
);
width = 610;
}
);
leftMetricsKey = H;
rightMetricsKey = H;
unicode = 005F;
},
{
color = 3;
glyphname = a;
lastChange = "2024-03-15 10:21:44 +0000";
layers = (
{
layerId = "B204ABCD-8C29-4F1E-81B1-484861BEFD63";
paths = (
{
closed = 1;
nodes = (
"470.3 600 LINE",
"470.3 655.2 OFFCURVE",
"425.5 700 OFFCURVE",
"370.3 700 CURVE SMOOTH",
"315 700 OFFCURVE",
"270.3 655.2 OFFCURVE",
"270.3 600 CURVE"
);
},
{
closed = 1;
nodes = (
"20 0 LINE",
"127.9 0 LINE",
"370.3 600 LINE",
"277.6 637.5 LINE"
);
},
{
closed = 1;
nodes = (
"370.3 600 LINE",
"612.7 0 LINE",
"720.6 0 LINE",
"463 637.5 LINE"
);
}
);
width = 740.6;
}
);
leftKerningGroup = A;
leftMetricsKey = A;
rightKerningGroup = A;
rightMetricsKey = A;
unicode = 0061;
},
{
color = 6;
glyphname = b;
lastChange = "2024-02-29 20:39:00 +0000";
layers = (
{
layerId = "B204ABCD-8C29-4F1E-81B1-484861BEFD63";
paths = (
{
closed = 1;
nodes = (
"454.3 0 OFFCURVE",
"555 100.7 OFFCURVE",
"555 225 CURVE SMOOTH",
"555 349.3 OFFCURVE",
"454.3 450 OFFCURVE",
"330 450 CURVE",
"330 350 LINE",
"399 350 OFFCURVE",
"455 294 OFFCURVE",
"455 225 CURVE SMOOTH",
"455 156 OFFCURVE",
"399 100 OFFCURVE",
"330 100 CURVE",
"330 0 LINE"
);
},
{
closed = 1;
nodes = (
"426.7 350 OFFCURVE",
"505 428.3 OFFCURVE",
"505 525 CURVE SMOOTH",
"505 621.7 OFFCURVE",
"426.7 700 OFFCURVE",
"330 700 CURVE",
"330 600 LINE",
"371.4 600 OFFCURVE",
"405 566.4 OFFCURVE",
"405 525 CURVE SMOOTH",
"405 483.6 OFFCURVE",
"371.4 450 OFFCURVE",
"330 450 CURVE",
"330 350 LINE"
);
},
{
closed = 1;
nodes = (
"80 600 LINE",
"330 600 LINE",
"330 700 LINE",
"105 700 LINE"
);
},
{
closed = 1;
nodes = (
"80 350 LINE",
"330 350 LINE",
"330 450 LINE",
"80 450 LINE"
);
},
{
closed = 1;
nodes = (
"80 0 LINE",
"330 0 LINE",
"330 100 LINE",
"80 100 LINE"
);
},
{
closed = 1;
nodes = (
"180 0 LINE",
"180 350 LINE",
"80 350 LINE",
"80 0 LINE"
);
}
);
width = 595;
}
);
leftMetricsKey = H;
rightMetricsKey = O;
unicode = 0062;
},
{
color = 4;
glyphname = c;
lastChange = "2024-03-15 09:34:28 +0000";
layers = (
{
layerId = "B204ABCD-8C29-4F1E-81B1-484861BEFD63";
paths = (
{
closed = 1;
nodes = (
"40 156.7 OFFCURVE",
"196.7 0 OFFCURVE",
"390 0 CURVE SMOOTH",
"486.6 0 OFFCURVE",
"574.1 39.2 OFFCURVE",
"637.5 102.5 CURVE",
"566.8 173.2 LINE",
"521.5 128 OFFCURVE",
"459 100 OFFCURVE",
"390 100 CURVE SMOOTH",
"251.9 100 OFFCURVE",
"140 211.9 OFFCURVE",
"140 350 CURVE SMOOTH",
"140 488.1 OFFCURVE",
"251.9 600 OFFCURVE",
"390 600 CURVE SMOOTH",
"459.1 600 OFFCURVE",
"521.5 572 OFFCURVE",
"566.8 526.8 CURVE",
"637.5 597.5 LINE",
"574.1 660.8 OFFCURVE",
"486.6 700 OFFCURVE",
"390 700 CURVE SMOOTH",
"196.7 700 OFFCURVE",
"40 543.3 OFFCURVE",
"40 350 CURVE SMOOTH"
);
}
);
width = 677.5;
}
);
leftMetricsKey = O;
rightMetricsKey = O;
unicode = 0063;
},
{
color = 6;
glyphname = d;
lastChange = "2024-02-29 20:39:00 +0000";
layers = (
{
layerId = "B204ABCD-8C29-4F1E-81B1-484861BEFD63";
paths = (
{
closed = 1;
nodes = (
"473.3 0 OFFCURVE",
"630 156.7 OFFCURVE",
"630 350 CURVE SMOOTH",
"630 543.3 OFFCURVE",
"473.3 700 OFFCURVE",
"280 700 CURVE",
"280 600 LINE",
"418.1 600 OFFCURVE",
"530 488.1 OFFCURVE",
"530 350 CURVE SMOOTH",
"530 211.9 OFFCURVE",
"418.1 100 OFFCURVE",
"280 100 CURVE",
"280 0 LINE"
);
},
{
closed = 1;
nodes = (
"80 600 LINE",
"280 600 LINE",
"280 700 LINE",
"105 700 LINE"
);
},
{
closed = 1;
nodes = (
"80 0 LINE",
"280 0 LINE",
"280 100 LINE",
"80 100 LINE"
);
},
{
closed = 1;
nodes = (
"180 0 LINE",
"180 550 LINE",
"80 550 LINE",
"80 0 LINE"
);
}
);
width = 670;
}
);
leftMetricsKey = H;
rightMetricsKey = O;
unicode = 0064;
},
{
color = 1;
glyphname = e;
lastChange = "2024-03-13 12:03:50 +0000";
layers = (
{
layerId = "B204ABCD-8C29-4F1E-81B1-484861BEFD63";
paths = (
{
closed = 1;
nodes = (
"80 0 LINE",
"180 0 LINE",
"180 400 LINE",
"80 400 LINE"
);
},
{
closed = 1;
nodes = (
"530 600 LINE",
"505 700 LINE",
"80 700 LINE",
"80 600 LINE"
);
},
{
closed = 1;
nodes = (
"530 0 LINE",
"530 100 LINE",
"80 100 LINE",
"80 0 LINE"
);
},
{
closed = 1;
nodes = (
"430 300 LINE",
"430 400 LINE",
"80 400 LINE",
"80 300 LINE"
);
}
);
width = 610;
}
);
leftMetricsKey = H;
rightMetricsKey = H;
unicode = 0065;
},
{
color = 6;
glyphname = f;
lastChange = "2024-02-29 20:39:00 +0000";
layers = (
{
layerId = "B204ABCD-8C29-4F1E-81B1-484861BEFD63";
paths = (
{
closed = 1;
nodes = (
"80 0 LINE",
"180 0 LINE",
"180 400 LINE",
"80 400 LINE"
);
},
{
closed = 1;
nodes = (
"530 600 LINE",
"505 700 LINE",
"80 700 LINE",
"80 600 LINE"
);
},
{
closed = 1;
nodes = (
"430 300 LINE",
"430 400 LINE",
"80 400 LINE",
"80 300 LINE"
);
}
);
width = 570;
}
);
leftMetricsKey = H;
rightMetricsKey = O;
unicode = 0066;
},
{
color = 9;
glyphname = g;
lastChange = "2024-03-15 09:34:17 +0000";
layers = (
{
layerId = "B204ABCD-8C29-4F1E-81B1-484861BEFD63";
paths = (
{
closed = 1;
nodes = (
"390 100 LINE",
"251.9 100 OFFCURVE",
"140 211.9 OFFCURVE",
"140 350 CURVE SMOOTH",
"140 488.1 OFFCURVE",
"251.9 600 OFFCURVE",
"390 600 CURVE",
"390 700 LINE",
"196.7 700 OFFCURVE",
"40 543.3 OFFCURVE",
"40 350 CURVE SMOOTH",
"40 156.7 OFFCURVE",
"196.7 0 OFFCURVE",
"390 0 CURVE"
);
},
{
closed = 1;
nodes = (
"390 700 LINE",
"390 600 LINE",
"590 600 LINE",
"565 700 LINE"
);
},
{
closed = 1;
nodes = (
"390 100 LINE",
"390 0 LINE",
"590 0 LINE",
"590 100 LINE"
);
},
{
closed = 1;
nodes = (
"590 0 LINE",
"590 350 LINE",
"490 350 LINE",
"490 0 LINE"
);
}
);
width = 670;
}
);
leftMetricsKey = O;
rightMetricsKey = H;
unicode = 0067;
},
{
color = 1;
glyphname = h;
lastChange = "2024-02-29 20:39:24 +0000";
layers = (
{
layerId = "B204ABCD-8C29-4F1E-81B1-484861BEFD63";
paths = (
{
closed = 1;
nodes = (
"80 0 LINE",
"180 0 LINE",
"180 700 LINE",
"80 700 LINE"
);
},
{
closed = 1;
nodes = (
"605 300 LINE",
"605 400 LINE",
"255 400 LINE",
"230 300 LINE"
);
},
{
closed = 1;
nodes = (
"530 0 LINE",
"630 0 LINE",
"630 700 LINE",
"530 700 LINE"
);
}
);
width = 710;
}
);
leftMetricsKey = H;
rightMetricsKey = H;
unicode = 0068;
},
{
color = 1;
glyphname = i;
lastChange = "2024-02-29 20:39:24 +0000";
layers = (
{
layerId = "B204ABCD-8C29-4F1E-81B1-484861BEFD63";
paths = (
{
closed = 1;
nodes = (
"80 0 LINE",
"180 0 LINE",
"180 700 LINE",
"80 700 LINE"
);
}
);
width = 260;
}
);
leftMetricsKey = H;
rightMetricsKey = H;
unicode = 0069;
},
{
color = 10;
glyphname = j;
lastChange = "2024-03-15 09:48:28 +0000";
layers = (
{
layerId = "B204ABCD-8C29-4F1E-81B1-484861BEFD63";
paths = (
{
closed = 1;
nodes = (
"370 156 OFFCURVE",
"314 100 OFFCURVE",
"245 100 CURVE",
"245 0 LINE",
"369.3 0 OFFCURVE",
"470 100.7 OFFCURVE",
"470 225 CURVE",
"370 225 LINE"
);
},
{
closed = 1;
nodes = (
"370 225 LINE",
"470 225 LINE",
"470 700 LINE",
"370 700 LINE"
);
},
{
closed = 1;
nodes = (
"245 0 LINE",
"245 100 LINE",
"45 100 LINE",
"20 0 LINE"
);
}
);
width = 550;
}
);
rightMetricsKey = H;
unicode = 006A;
},
{
color = 0;
glyphname = k;
lastChange = "2024-03-02 14:20:22 +0000";
layers = (
{
layerId = "B204ABCD-8C29-4F1E-81B1-484861BEFD63";
paths = (
{
closed = 1;
nodes = (
"312.5 450 LINE",
"257.3 450 OFFCURVE",
"212.5 405.2 OFFCURVE",
"212.5 350 CURVE SMOOTH",
"212.5 294.7 OFFCURVE",
"257.3 250 OFFCURVE",
"312.5 250 CURVE"
);
},
{
closed = 1;
nodes = (
"312.5 350 LINE",
"638.9 700 LINE",
"502.1 700 LINE",
"239.4 418.2 LINE"
);
},
{
closed = 1;
nodes = (
"80 0 LINE",
"180 0 LINE",
"180 700 LINE",
"80 700 LINE"
);
},
{
closed = 1;
nodes = (
"502.1 0 LINE",
"638.9 0 LINE",
"312.5 350 LINE",
"239.4 281.8 LINE"
);
}
);
width = 658.9;
}
);
leftMetricsKey = H;
unicode = 006B;
},
{
color = 0;
glyphname = l;
lastChange = "2024-03-02 14:20:22 +0000";
layers = (
{
layerId = "B204ABCD-8C29-4F1E-81B1-484861BEFD63";
paths = (
{
closed = 1;
nodes = (
"80 0 LINE",
"180 0 LINE",
"180 700 LINE",
"80 700 LINE"
);
},
{
closed = 1;
nodes = (
"530 0 LINE",
"505 100 LINE",
"80 100 LINE",
"80 0 LINE"
);
}
);
width = 550;
}
);
leftMetricsKey = H;
unicode = 006C;
},
{
color = 1;
glyphname = m;
lastChange = "2024-03-08 10:46:25 +0000";
layers = (
{
layerId = "B204ABCD-8C29-4F1E-81B1-484861BEFD63";
paths = (
{
closed = 1;
nodes = (
"394 600 OFFCURVE",
"450 544 OFFCURVE",
"450 475 CURVE",
"550 475 LINE",
"550 599.3 OFFCURVE",
"449.3 700 OFFCURVE",
"325 700 CURVE",
"325 600 LINE"
);
},
{
closed = 1;
nodes = (
"450 0 LINE",
"550 0 LINE",
"550 475 LINE",
"450 475 LINE"
);
},
{
closed = 1;
nodes = (
"325 600 LINE",
"325 700 LINE",
"105 700 LINE",
"80 600 LINE"
);
},
{
closed = 1;
nodes = (
"80 0 LINE",
"180 0 LINE",
"180 550 LINE",
"80 550 LINE"
);
},
{
closed = 1;
nodes = (
"764 600 OFFCURVE",
"820 544 OFFCURVE",
"820 475 CURVE",
"920 475 LINE",
"920 599.3 OFFCURVE",
"819.3 700 OFFCURVE",
"695 700 CURVE",
"695 600 LINE"
);
},
{
closed = 1;
nodes = (
"820 0 LINE",
"920 0 LINE",
"920 475 LINE",
"820 475 LINE"
);
},
{
closed = 1;
nodes = (
"695 600 LINE",
"695 700 LINE",
"570 700 LINE",
"545 600 LINE"
);
}
);
width = 1000;
}
);
leftMetricsKey = H;
rightMetricsKey = H;
unicode = 006D;
},
{
color = 1;
glyphname = n;
lastChange = "2024-02-29 20:39:24 +0000";
layers = (
{
layerId = "B204ABCD-8C29-4F1E-81B1-484861BEFD63";
paths = (
{
closed = 1;
nodes = (
"474 600 OFFCURVE",
"530 544 OFFCURVE",
"530 475 CURVE",
"630 475 LINE",
"630 599.3 OFFCURVE",
"529.3 700 OFFCURVE",
"405 700 CURVE",
"405 600 LINE"
);
},
{
closed = 1;
nodes = (
"530 0 LINE",
"630 0 LINE",
"630 475 LINE",
"530 475 LINE"
);
},
{
closed = 1;
nodes = (
"405 600 LINE",
"405 700 LINE",
"105 700 LINE",
"80 600 LINE"
);
},
{
closed = 1;
nodes = (
"80 0 LINE",
"180 0 LINE",
"180 550 LINE",
"80 550 LINE"
);
}
);
width = 710;
}
);
leftMetricsKey = H;
rightMetricsKey = H;
unicode = 006E;
},
{
color = 4;
glyphname = o;
lastChange = "2024-03-15 09:34:35 +0000";
layers = (
{
layerId = "B204ABCD-8C29-4F1E-81B1-484861BEFD63";
paths = (
{
closed = 1;
nodes = (
"40 156.7 OFFCURVE",
"196.7 0 OFFCURVE",
"390 0 CURVE SMOOTH",
"583.3 0 OFFCURVE",
"740 156.7 OFFCURVE",
"740 350 CURVE SMOOTH",
"740 543.3 OFFCURVE",
"583.3 700 OFFCURVE",
"390 700 CURVE SMOOTH",
"196.7 700 OFFCURVE",
"40 543.3 OFFCURVE",
"40 350 CURVE SMOOTH"
);
},
{
closed = 1;
nodes = (
"140 488.1 OFFCURVE",
"251.9 600 OFFCURVE",
"390 600 CURVE SMOOTH",
"528.1 600 OFFCURVE",
"640 488.1 OFFCURVE",
"640 350 CURVE SMOOTH",
"640 211.9 OFFCURVE",
"528.1 100 OFFCURVE",
"390 100 CURVE SMOOTH",
"251.9 100 OFFCURVE",
"140 211.9 OFFCURVE",
"140 350 CURVE SMOOTH"
);
}
);
width = 780;
}
);
leftKerningGroup = O;
leftMetricsKey = O;
rightKerningGroup = O;
rightMetricsKey = O;
unicode = 006F;
},
{
color = 6;
glyphname = p;
lastChange = "2024-03-15 09:24:03 +0000";
layers = (
{
layerId = "B204ABCD-8C29-4F1E-81B1-484861BEFD63";
paths = (
{
closed = 1;
nodes = (
"330 600 LINE",
"399 600 OFFCURVE",
"455 544 OFFCURVE",
"455 475 CURVE SMOOTH",
"455 406 OFFCURVE",
"399 350 OFFCURVE",
"330 350 CURVE",
"330 250 LINE",
"454.3 250 OFFCURVE",
"555 350.7 OFFCURVE",
"555 475 CURVE SMOOTH",
"555 599.3 OFFCURVE",
"454.3 700 OFFCURVE",
"330 700 CURVE"
);
},
{
closed = 1;
nodes = (
"330 250 LINE",
"330 350 LINE",
"80 350 LINE",
"80 250 LINE"
);
},
{
closed = 1;
nodes = (
"330 600 LINE",
"330 700 LINE",
"105 700 LINE",
"80 600 LINE"
);
},
{
closed = 1;
nodes = (
"180 0 LINE",
"180 350 LINE",
"80 350 LINE",
"80 0 LINE"
);
}
);
width = 595;
}
);
leftMetricsKey = H;
rightMetricsKey = O;
unicode = 0070;
},
{
color = 4;
glyphname = q;
lastChange = "2024-03-15 09:34:22 +0000";
layers = (
{
layerId = "B204ABCD-8C29-4F1E-81B1-484861BEFD63";
paths = (
{
closed = 1;
nodes = (
"40 156.7 OFFCURVE",
"196.7 0 OFFCURVE",
"390 0 CURVE SMOOTH",
"583.3 0 OFFCURVE",
"740 156.7 OFFCURVE",
"740 350 CURVE SMOOTH",
"740 543.3 OFFCURVE",
"583.3 700 OFFCURVE",
"390 700 CURVE SMOOTH",
"196.7 700 OFFCURVE",
"40 543.3 OFFCURVE",
"40 350 CURVE SMOOTH"
);
},
{
closed = 1;
nodes = (
"140 488.1 OFFCURVE",
"251.9 600 OFFCURVE",
"390 600 CURVE SMOOTH",
"528.1 600 OFFCURVE",
"640 488.1 OFFCURVE",
"640 350 CURVE SMOOTH",
"640 211.9 OFFCURVE",
"528.1 100 OFFCURVE",
"390 100 CURVE SMOOTH",
"251.9 100 OFFCURVE",
"140 211.9 OFFCURVE",
"140 350 CURVE SMOOTH"
);
},
{
closed = 1;
nodes = (
"514.5 84.1 LINE",
"598.6 0 LINE",
"740 0 LINE",
"583.3 156.7 LINE"
);
}
);
width = 780;
}
);
leftMetricsKey = O;
rightMetricsKey = O;
unicode = 0071;
},
{
color = 7;
glyphname = r;
lastChange = "2024-03-15 09:38:01 +0000";
layers = (
{
layerId = "B204ABCD-8C29-4F1E-81B1-484861BEFD63";
paths = (
{
closed = 1;
nodes = (
"330 600 LINE",
"399 600 OFFCURVE",
"455 544 OFFCURVE",
"455 475 CURVE SMOOTH",
"455 406 OFFCURVE",
"399 350 OFFCURVE",
"330 350 CURVE",
"330 250 LINE",
"454.3 250 OFFCURVE",
"555 350.7 OFFCURVE",
"555 475 CURVE SMOOTH",
"555 599.3 OFFCURVE",
"454.3 700 OFFCURVE",
"330 700 CURVE"
);
},
{
closed = 1;
nodes = (
"330 250 LINE",
"330 350 LINE",
"80 350 LINE",
"80 250 LINE"
);
},
{
closed = 1;
nodes = (
"330 600 LINE",
"330 700 LINE",
"105 700 LINE",
"80 600 LINE"
);
},
{
closed = 1;
nodes = (
"474.2 200 LINE",
"366.4 200 LINE",
"446.9 0 LINE",
"555 0 LINE"
);
},
{
closed = 1;
nodes = (
"80 0 LINE",
"180 0 LINE",
"180 250 LINE",
"80 250 LINE"
);
}
);
width = 615;
}
);
leftMetricsKey = H;
unicode = 0072;
},
{
color = 4;
glyphname = s;
lastChange = "2024-03-15 09:30:36 +0000";
layers = (
{
layerId = "B204ABCD-8C29-4F1E-81B1-484861BEFD63";
paths = (
{
closed = 1;
nodes = (
"240 400 LINE",
"184.8 400 OFFCURVE",
"140 444.8 OFFCURVE",
"140 500 CURVE SMOOTH",
"140 555.2 OFFCURVE",
"184.8 600 OFFCURVE",
"240 600 CURVE",
"240 700 LINE",
"129.5 700 OFFCURVE",
"40 610.4 OFFCURVE",
"40 500 CURVE SMOOTH",
"40 389.5 OFFCURVE",
"129.5 300 OFFCURVE",
"240 300 CURVE"
);
},
{
closed = 1;
nodes = (
"450.5 0 OFFCURVE",
"540 89.5 OFFCURVE",
"540 200 CURVE SMOOTH",
"540 310.4 OFFCURVE",
"450.5 400 OFFCURVE",
"340 400 CURVE",
"340 300 LINE",
"395.2 300 OFFCURVE",
"440 255.2 OFFCURVE",
"440 200 CURVE SMOOTH",
"440 144.8 OFFCURVE",
"395.2 100 OFFCURVE",
"340 100 CURVE",
"340 0 LINE"
);
},
{
closed = 1;
nodes = (
"490 600 LINE",
"515 700 LINE",
"240 700 LINE",
"240 600 LINE"
);
},
{
closed = 1;
nodes = (
"340 0 LINE",
"340 100 LINE",
"90 100 LINE",
"65 0 LINE"
);
},
{
closed = 1;
nodes = (
"240 300 LINE",
"340 300 LINE",
"340 400 LINE",
"240 400 LINE"
);
}
);
width = 580;
}
);
leftMetricsKey = O;
rightMetricsKey = O;
unicode = 0073;
},
{
color = 3;
glyphname = t;
lastChange = "2024-03-15 09:25:49 +0000";
layers = (
{
layerId = "B204ABCD-8C29-4F1E-81B1-484861BEFD63";
paths = (
{
closed = 1;
nodes = (
"245 0 LINE",
"345 0 LINE",
"345 700 LINE",
"245 700 LINE"
);
},
{
closed = 1;
nodes = (
"570 600 LINE",
"570 700 LINE",
"20 700 LINE",
"20 600 LINE"
);
}
);
width = 590;
}
);
leftMetricsKey = A;
rightMetricsKey = A;
unicode = 0074;
},
{
color = 1;
glyphname = u;
lastChange = "2024-02-29 20:39:24 +0000";
layers = (
{
layerId = "B204ABCD-8C29-4F1E-81B1-484861BEFD63";
paths = (
{
closed = 1;
nodes = (
"405 0 LINE",
"529.3 0 OFFCURVE",
"630 100.7 OFFCURVE",
"630 225 CURVE",
"530 225 LINE",
"530 156 OFFCURVE",
"474 100 OFFCURVE",
"405 100 CURVE"
);
},
{
closed = 1;
nodes = (
"630 225 LINE",
"630 700 LINE",
"530 700 LINE",
"530 225 LINE"
);
},
{
closed = 1;
nodes = (
"105 0 LINE",
"405 0 LINE",
"405 100 LINE",
"80 100 LINE"
);
},
{
closed = 1;
nodes = (
"180 150 LINE",
"180 700 LINE",
"80 700 LINE",
"80 150 LINE"
);
}
);
width = 710;
}
);
leftMetricsKey = H;
rightMetricsKey = H;
unicode = 0075;
},
{
color = 3;
glyphname = v;
lastChange = "2024-03-15 09:38:38 +0000";
layers = (
{
layerId = "B204ABCD-8C29-4F1E-81B1-484861BEFD63";
paths = (
{
closed = 1;
nodes = (
"270.3 44.8 OFFCURVE",
"315 0 OFFCURVE",
"370.3 0 CURVE SMOOTH",
"425.5 0 OFFCURVE",
"470.3 44.8 OFFCURVE",
"470.3 100 CURVE",
"270.3 100 LINE"
);
},
{
closed = 1;
nodes = (
"370.3 100 LINE",
"127.9 700 LINE",
"20 700 LINE",
"277.6 62.5 LINE"
);
},
{
closed = 1;
nodes = (
"720.6 700 LINE",
"612.7 700 LINE",
"370.3 100 LINE",
"463 62.5 LINE"
);
}
);
width = 740.6;
}
);
leftMetricsKey = A;
rightMetricsKey = A;
unicode = 0076;
},
{
color = 1;
glyphname = w;
lastChange = "2024-03-08 10:46:09 +0000";
layers = (
{
layerId = "B204ABCD-8C29-4F1E-81B1-484861BEFD63";
paths = (
{
closed = 1;
nodes = (
"325 0 LINE",
"449.3 0 OFFCURVE",
"550 100.7 OFFCURVE",
"550 225 CURVE",
"450 225 LINE",
"450 156 OFFCURVE",
"394 100 OFFCURVE",
"325 100 CURVE"
);
},
{
closed = 1;
nodes = (
"550 225 LINE",
"550 700 LINE",
"450 700 LINE",
"450 225 LINE"
);
},
{
closed = 1;
nodes = (
"105 0 LINE",
"325 0 LINE",
"325 100 LINE",
"80 100 LINE"
);
},
{
closed = 1;
nodes = (
"180 150 LINE",
"180 700 LINE",
"80 700 LINE",
"80 150 LINE"
);
},
{
closed = 1;
nodes = (
"695 0 LINE",
"819.3 0 OFFCURVE",
"920 100.7 OFFCURVE",
"920 225 CURVE",
"820 225 LINE",
"820 156 OFFCURVE",
"764 100 OFFCURVE",
"695 100 CURVE"
);
},
{
closed = 1;
nodes = (
"920 225 LINE",
"920 700 LINE",
"820 700 LINE",
"820 225 LINE"
);
},
{
closed = 1;
nodes = (
"570 0 LINE",
"695 0 LINE",
"695 100 LINE",
"545 100 LINE"
);
}
);
width = 1000;
}
);
leftMetricsKey = H;
rightMetricsKey = H;
unicode = 0077;
},
{
color = 3;
glyphname = x;
lastChange = "2024-03-15 09:30:53 +0000";
layers = (
{
layerId = "B204ABCD-8C29-4F1E-81B1-484861BEFD63";
paths = (
{
closed = 1;
nodes = (
"651.8 699.3 LINE",
"528.5 699.4 LINE",
"368.5 479.2 LINE",
"425.5 388 LINE"
);
},
{
closed = 1;
nodes = (
"143.7 0 LINE",
"355.4 291.4 LINE",
"274.5 350 LINE",
"20 0 LINE"
);
},
{
closed = 1;
nodes = (
"329.7 250 OFFCURVE",
"374.5 294.7 OFFCURVE",
"374.5 350 CURVE SMOOTH",
"374.5 405.2 OFFCURVE",
"329.7 450 OFFCURVE",
"274.5 450 CURVE",
"274.5 250 LINE"
);
},
{
closed = 1;
nodes = (
"355.4 408.6 LINE",
"143 699.6 LINE",
"20 700 LINE",
"274.5 350 LINE"
);
},
{
closed = 1;
nodes = (
"368.4 219.9 LINE",
"527.8 0 LINE",
"651.8 -0.4 LINE",
"425.4 311.1 LINE"
);
}
);
width = 671.8;
}
);
unicode = 0078;
},
{
color = 3;
glyphname = y;
lastChange = "2024-03-15 10:17:07 +0000";
layers = (
{
layerId = "B204ABCD-8C29-4F1E-81B1-484861BEFD63";
paths = (
{
closed = 1;
nodes = (
"235 369.8 OFFCURVE",
"279.7 325 OFFCURVE",
"335 325 CURVE SMOOTH",
"390.2 325 OFFCURVE",
"435 369.8 OFFCURVE",
"435 425 CURVE",
"235 425 LINE"
);
},
{
closed = 1;
nodes = (
"650 700.3 LINE",
"527.8 700.3 LINE",
"335 425 LINE",
"417 367.5 LINE"
);
},
{
closed = 1;
nodes = (
"335 425 LINE",
"142.2 700.3 LINE",
"20 700.3 LINE",
"253 367.5 LINE"
);
},
{
closed = 1;
nodes = (
"285 0 LINE",
"385 0 LINE",
"385 275 LINE",
"285 275 LINE"
);
}
);
width = 670;
}
);
leftKerningGroup = Y;
rightKerningGroup = Y;
unicode = 0079;
},
{
color = 4;
glyphname = z;
lastChange = "2024-03-02 09:09:53 +0000";
layers = (
{
layerId = "B204ABCD-8C29-4F1E-81B1-484861BEFD63";
paths = (
{
closed = 1;
nodes = (
"595.6 0 LINE",
"595.6 100 LINE",
"102.5 100 LINE",
"40 0 LINE"
);
},
{
closed = 1;
nodes = (
"415.1 600 LINE",
"133.8 150 LINE",
"251.8 150 LINE",
"595.6 700 LINE",
"65 700 LINE",
"65 600 LINE"
);
}
);
width = 635.6;
}
);
leftMetricsKey = O;
rightMetricsKey = O;
unicode = 007A;
},
{
glyphname = braceleft;
lastChange = "2024-03-13 11:24:47 +0000";
layers = (
{
layerId = "B204ABCD-8C29-4F1E-81B1-484861BEFD63";
paths = (
{
closed = 1;
nodes = (
"295 800 LINE",
"200 800 OFFCURVE",
"137 723 OFFCURVE",
"137 627 CURVE SMOOTH",
"137 465 LINE SMOOTH",
"137 433 OFFCURVE",
"112 408 OFFCURVE",
"80 408 CURVE",
"80 292 LINE",
"112 292 OFFCURVE",
"137 267 OFFCURVE",
"137 235 CURVE SMOOTH",
"137 73 LINE SMOOTH",
"137 -23 OFFCURVE",
"200 -100 OFFCURVE",
"295 -100 CURVE",
"295 0 LINE",
"263 0 OFFCURVE",
"238 25 OFFCURVE",
"238 58 CURVE SMOOTH",
"238 235 LINE SMOOTH",
"238 279 OFFCURVE",
"221 319 OFFCURVE",
"194 350 CURVE",
"221 381 OFFCURVE",
"238 421 OFFCURVE",
"238 465 CURVE SMOOTH",
"238 642 LINE SMOOTH",
"238 675 OFFCURVE",
"263 700 OFFCURVE",
"295 700 CURVE"
);
}
);
width = 375;
}
);
leftMetricsKey = H;
rightMetricsKey = H;
unicode = 007B;
},
{
glyphname = bar;
lastChange = "2024-03-13 11:24:47 +0000";
layers = (
{
layerId = "B204ABCD-8C29-4F1E-81B1-484861BEFD63";
paths = (
{
closed = 1;
nodes = (
"250 -100 LINE",
"325 -100 LINE",
"325 800 LINE",
"250 800 LINE"
);
}
);
width = 575;
}
);
unicode = 007C;
},
{
glyphname = braceright;
lastChange = "2024-03-13 11:24:47 +0000";
layers = (
{
layerId = "B204ABCD-8C29-4F1E-81B1-484861BEFD63";
paths = (
{
closed = 1;
nodes = (
"112 700 OFFCURVE",
"137 675 OFFCURVE",
"137 642 CURVE SMOOTH",
"137 465 LINE SMOOTH",
"137 421 OFFCURVE",
"154 381 OFFCURVE",
"181 350 CURVE",
"154 319 OFFCURVE",
"137 279 OFFCURVE",
"137 235 CURVE SMOOTH",
"137 58 LINE SMOOTH",
"137 25 OFFCURVE",
"112 0 OFFCURVE",
"80 0 CURVE",
"80 -100 LINE",
"175 -100 OFFCURVE",
"238 -23 OFFCURVE",
"238 73 CURVE SMOOTH",
"238 235 LINE SMOOTH",
"238 267 OFFCURVE",
"263 292 OFFCURVE",
"295 292 CURVE",
"295 408 LINE",
"263 408 OFFCURVE",
"238 433 OFFCURVE",
"238 465 CURVE SMOOTH",
"238 627 LINE SMOOTH",
"238 723 OFFCURVE",
"175 800 OFFCURVE",
"80 800 CURVE",
"80 700 LINE"
);
}
);
width = 375;
}
);
leftMetricsKey = H;
rightMetricsKey = H;
unicode = 007D;
},
{
glyphname = euro;
lastChange = "2024-03-13 11:24:47 +0000";
layers = (
{
layerId = "B204ABCD-8C29-4F1E-81B1-484861BEFD63";
paths = (
{
closed = 1;
nodes = (
"120 156.7 OFFCURVE",
"276.7 0 OFFCURVE",
"470 0 CURVE SMOOTH",
"566.6 0 OFFCURVE",
"654.1 39.2 OFFCURVE",
"717.5 102.5 CURVE",
"646.8 173.2 LINE",
"601.5 128 OFFCURVE",
"539 100 OFFCURVE",
"470 100 CURVE SMOOTH",
"331.9 100 OFFCURVE",
"220 211.9 OFFCURVE",
"220 350 CURVE SMOOTH",
"220 488.1 OFFCURVE",
"331.9 600 OFFCURVE",
"470 600 CURVE SMOOTH",
"539.1 600 OFFCURVE",
"601.5 572 OFFCURVE",
"646.8 526.8 CURVE",
"717.5 597.5 LINE",
"654.1 660.8 OFFCURVE",
"566.6 700 OFFCURVE",
"470 700 CURVE SMOOTH",
"276.7 700 OFFCURVE",
"120 543.3 OFFCURVE",
"120 350 CURVE SMOOTH"
);
},
{
closed = 1;
nodes = (
"530 371 LINE",
"530 446 LINE",
"80 446 LINE",
"80 371 LINE"
);
},
{
closed = 1;
nodes = (
"530 254 LINE",
"530 329 LINE",
"80 329 LINE",
"80 254 LINE"
);
}
);
width = 797.5;
}
);
leftMetricsKey = H;
rightMetricsKey = H;
unicode = 20AC;
},
{
glyphname = quotesinglbase;
lastChange = "2024-03-13 11:24:47 +0000";
layers = (
{
layerId = "B204ABCD-8C29-4F1E-81B1-484861BEFD63";
paths = (
{
closed = 1;
nodes = (
"183.6 -100 LINE",
"237.2 100 LINE",
"133.6 100 LINE",
"80 -100 LINE"
);
}
);
width = 317.2;
}
);
leftMetricsKey = H;
rightMetricsKey = H;
unicode = 201A;
},
{
glyphname = quotedblbase;
lastChange = "2024-03-15 09:56:36 +0000";
layers = (
{
layerId = "B204ABCD-8C29-4F1E-81B1-484861BEFD63";
paths = (
{
closed = 1;
nodes = (
"183.6 -100 LINE",
"237.2 100 LINE",
"133.6 100 LINE",
"80 -100 LINE"
);
},
{
closed = 1;
nodes = (
"383.6 -100 LINE",
"437.2 100 LINE",
"333.6 100 LINE",
"280 -100 LINE"
);
}
);
width = 517.2;
}
);
leftMetricsKey = H;
rightMetricsKey = H;
unicode = 201E;
},
{
glyphname = ellipsis;
lastChange = "2024-03-14 09:26:31 +0000";
layers = (
{
layerId = "B204ABCD-8C29-4F1E-81B1-484861BEFD63";
paths = (
{
closed = 1;
nodes = (
"80 0 LINE",
"180 0 LINE",
"180 100 LINE",
"80 100 LINE"
);
},
{
closed = 1;
nodes = (
"280 0 LINE",
"380 0 LINE",
"380 100 LINE",
"280 100 LINE"
);
},
{
closed = 1;
nodes = (
"480 0 LINE",
"580 0 LINE",
"580 100 LINE",
"480 100 LINE"
);
}
);
width = 660;
}
);
leftMetricsKey = H;
rightMetricsKey = H;
unicode = 2026;
},
{
glyphname = perthousand;
lastChange = "2024-03-13 11:24:47 +0000";
layers = (
{
layerId = "B204ABCD-8C29-4F1E-81B1-484861BEFD63";
paths = (
{
closed = 1;
nodes = (
"225 0 LINE",
"596.4 700 LINE",
"492.9 700 LINE",
"121.5 0 LINE"
);
},
{
closed = 1;
nodes = (
"80 480.5 OFFCURVE",
"143.4 417.1 OFFCURVE",
"221.5 417.1 CURVE SMOOTH",
"299.6 417.1 OFFCURVE",
"363 480.5 OFFCURVE",
"363 558.6 CURVE",
"363 636.6 OFFCURVE",
"299.5 700 OFFCURVE",
"221.5 700 CURVE SMOOTH",
"143.5 700 OFFCURVE",
"80 636.6 OFFCURVE",
"80 558.6 CURVE SMOOTH"
);
},
{
closed = 1;
nodes = (
"158.2 593.7 OFFCURVE",
"186.4 621.9 OFFCURVE",
"221.5 621.9 CURVE SMOOTH",
"256.6 621.9 OFFCURVE",
"284.8 593.7 OFFCURVE",
"284.8 558.6 CURVE SMOOTH",
"284.8 523.4 OFFCURVE",
"256.7 495.2 OFFCURVE",
"221.5 495.2 CURVE SMOOTH",
"186.3 495.2 OFFCURVE",
"158.2 523.4 OFFCURVE",
"158.2 558.6 CURVE SMOOTH"
);
},
{
closed = 1;
nodes = (
"354.9 63.4 OFFCURVE",
"418.3 0 OFFCURVE",
"496.4 0 CURVE",
"574.4 0 OFFCURVE",
"637.8 63.5 OFFCURVE",
"637.8 141.5 CURVE",
"637.8 219.5 OFFCURVE",
"574.4 283 OFFCURVE",
"496.4 283 CURVE",
"418.3 283 OFFCURVE",
"354.9 219.6 OFFCURVE",
"354.9 141.5 CURVE"
);
},
{
closed = 1;
nodes = (
"433 176.7 OFFCURVE",
"461.2 204.8 OFFCURVE",
"496.4 204.8 CURVE",
"531.5 204.8 OFFCURVE",
"559.7 176.6 OFFCURVE",
"559.7 141.5 CURVE",
"559.7 106.4 OFFCURVE",
"531.5 78.2 OFFCURVE",
"496.4 78.2 CURVE",
"461.2 78.2 OFFCURVE",
"433 106.3 OFFCURVE",
"433 141.5 CURVE"
);
},
{
closed = 1;
nodes = (
"654.9 63.4 OFFCURVE",
"718.3 0 OFFCURVE",
"796.4 0 CURVE",
"874.4 0 OFFCURVE",
"937.8 63.5 OFFCURVE",
"937.8 141.5 CURVE",
"937.8 219.5 OFFCURVE",
"874.4 283 OFFCURVE",
"796.4 283 CURVE",
"718.3 283 OFFCURVE",
"654.9 219.6 OFFCURVE",
"654.9 141.5 CURVE"
);
},
{
closed = 1;
nodes = (
"733 176.7 OFFCURVE",
"761.2 204.8 OFFCURVE",
"796.4 204.8 CURVE",
"831.5 204.8 OFFCURVE",
"859.7 176.6 OFFCURVE",
"859.7 141.5 CURVE",
"859.7 106.4 OFFCURVE",
"831.5 78.2 OFFCURVE",
"796.4 78.2 CURVE",
"761.2 78.2 OFFCURVE",
"733 106.3 OFFCURVE",
"733 141.5 CURVE"
);
}
);
width = 1017.8;
}
);
leftMetricsKey = H;
rightMetricsKey = H;
unicode = 2030;
},
{
glyphname = Scaron;
lastChange = "2024-03-14 09:21:16 +0000";
layers = (
{
layerId = "B204ABCD-8C29-4F1E-81B1-484861BEFD63";
paths = (
{
closed = 1;
nodes = (
"240 400 LINE",
"184.8 400 OFFCURVE",
"140 444.8 OFFCURVE",
"140 500 CURVE SMOOTH",
"140 555.2 OFFCURVE",
"184.8 600 OFFCURVE",
"240 600 CURVE",
"240 700 LINE",
"129.5 700 OFFCURVE",
"40 610.4 OFFCURVE",
"40 500 CURVE SMOOTH",
"40 389.5 OFFCURVE",
"129.5 300 OFFCURVE",
"240 300 CURVE"
);
},
{
closed = 1;
nodes = (
"450.5 0 OFFCURVE",
"540 89.5 OFFCURVE",
"540 200 CURVE SMOOTH",
"540 310.4 OFFCURVE",
"450.5 400 OFFCURVE",
"340 400 CURVE",
"340 300 LINE",
"395.2 300 OFFCURVE",
"440 255.2 OFFCURVE",
"440 200 CURVE SMOOTH",
"440 144.8 OFFCURVE",
"395.2 100 OFFCURVE",
"340 100 CURVE",
"340 0 LINE"
);
},
{
closed = 1;
nodes = (
"490 600 LINE",
"515 700 LINE",
"240 700 LINE",
"240 600 LINE"
);
},
{
closed = 1;
nodes = (
"340 0 LINE",
"340 100 LINE",
"90 100 LINE",
"65 0 LINE"
);
},
{
closed = 1;
nodes = (
"240 300 LINE",
"340 300 LINE",
"340 400 LINE",
"240 400 LINE"
);
},
{
closed = 1;
nodes = (
"330.5 715 LINE SMOOTH",
"353.2 715 OFFCURVE",
"373.4 723.4 OFFCURVE",
"389.4 739.4 CURVE SMOOTH",
"465 815 LINE",
"365 815 LINE",
"300 750 LINE",
"235 815 LINE",
"135 815 LINE",
"210.6 739.4 LINE SMOOTH",
"226.6 723.4 OFFCURVE",
"246.8 715 OFFCURVE",
"269.5 715 CURVE SMOOTH"
);
}
);
width = 580;
}
);
leftMetricsKey = O;
rightMetricsKey = O;
unicode = 0160;
},
{
glyphname = guilsinglleft;
lastChange = "2024-03-13 11:24:47 +0000";
layers = (
{
layerId = "B204ABCD-8C29-4F1E-81B1-484861BEFD63";
paths = (
{
closed = 1;
nodes = (
"116.6 427.3 LINE",
"94.2 409 OFFCURVE",
"80 381.2 OFFCURVE",
"80 350 CURVE SMOOTH",
"80 319.1 OFFCURVE",
"94 291.4 OFFCURVE",
"116.1 273.1 CURVE",
"279.2 126.2 LINE",
"279.2 260.7 LINE",
"180 350 LINE",
"279.2 439.3 LINE",
"279.2 573.8 LINE"
);
}
);
width = 359.2;
}
);
leftMetricsKey = H;
rightMetricsKey = H;
unicode = 2039;
},
{
glyphname = OE;
lastChange = "2024-03-14 17:27:35 +0000";
layers = (
{
layerId = "B204ABCD-8C29-4F1E-81B1-484861BEFD63";
paths = (
{
closed = 1;
nodes = (
"40 156.7 OFFCURVE",
"196.7 0 OFFCURVE",
"390 0 CURVE SMOOTH",
"583.3 0 OFFCURVE",
"740 156.7 OFFCURVE",
"740 350 CURVE SMOOTH",
"740 543.3 OFFCURVE",
"583.3 700 OFFCURVE",
"390 700 CURVE SMOOTH",
"196.7 700 OFFCURVE",
"40 543.3 OFFCURVE",
"40 350 CURVE SMOOTH"
);
},
{
closed = 1;
nodes = (
"140 488.1 OFFCURVE",
"251.9 600 OFFCURVE",
"390 600 CURVE SMOOTH",
"528.1 600 OFFCURVE",
"640 488.1 OFFCURVE",
"640 350 CURVE SMOOTH",
"640 211.9 OFFCURVE",
"528.1 100 OFFCURVE",
"390 100 CURVE SMOOTH",
"251.9 100 OFFCURVE",
"140 211.9 OFFCURVE",
"140 350 CURVE SMOOTH"
);
},
{
closed = 1;
nodes = (
"640 0 LINE",
"740 0 LINE",
"740 400 LINE",
"640 400 LINE"
);
},
{
closed = 1;
nodes = (
"1090 600 LINE",
"1065 700 LINE",
"640 700 LINE",
"640 600 LINE"
);
},
{
closed = 1;
nodes = (
"1090 0 LINE",
"1090 100 LINE",
"640 100 LINE",
"640 0 LINE"
);
},
{
closed = 1;
nodes = (
"990 300 LINE",
"990 400 LINE",
"640 400 LINE",
"640 300 LINE"
);
}
);
width = 1170;
}
);
leftKerningGroup = O;
rightMetricsKey = H;
unicode = 0152;
},
{
glyphname = quoteleft;
lastChange = "2024-03-15 09:55:07 +0000";
layers = (
{
layerId = "B204ABCD-8C29-4F1E-81B1-484861BEFD63";
paths = (
{
closed = 1;
nodes = (
"183.6 600 LINE",
"237.2 800 LINE",
"133.6 800 LINE",
"80 600 LINE"
);
}
);
width = 317.2;
}
);
leftMetricsKey = H;
rightMetricsKey = H;
unicode = 2018;
},
{
glyphname = quoteright;
lastChange = "2024-03-13 11:24:47 +0000";
layers = (
{
layerId = "B204ABCD-8C29-4F1E-81B1-484861BEFD63";
paths = (
{
closed = 1;
nodes = (
"183.6 600 LINE",
"237.2 800 LINE",
"133.6 800 LINE",
"80 600 LINE"
);
}
);
width = 317.2;
}
);
leftMetricsKey = H;
rightMetricsKey = H;
unicode = 2019;
},
{
glyphname = quotedblleft;
lastChange = "2024-03-15 09:55:19 +0000";
layers = (
{
layerId = "B204ABCD-8C29-4F1E-81B1-484861BEFD63";
paths = (
{
closed = 1;
nodes = (
"183.6 600 LINE",
"237.2 800 LINE",
"133.6 800 LINE",
"80 600 LINE"
);
},
{
closed = 1;
nodes = (
"383.6 600 LINE",
"437.2 800 LINE",
"333.6 800 LINE",
"280 600 LINE"
);
}
);
width = 517.2;
}
);
leftMetricsKey = H;
rightMetricsKey = H;
unicode = 201C;
},
{
glyphname = quotedblright;
lastChange = "2024-03-13 11:24:47 +0000";
layers = (
{
layerId = "B204ABCD-8C29-4F1E-81B1-484861BEFD63";
paths = (
{
closed = 1;
nodes = (
"183.6 600 LINE",
"237.2 800 LINE",
"133.6 800 LINE",
"80 600 LINE"
);
},
{
closed = 1;
nodes = (
"383.6 600 LINE",
"437.2 800 LINE",
"333.6 800 LINE",
"280 600 LINE"
);
}
);
width = 517.2;
}
);
leftMetricsKey = H;
rightMetricsKey = H;
unicode = 201D;
},
{
glyphname = bullet;
lastChange = "2024-03-13 11:24:47 +0000";
layers = (
{
layerId = "B204ABCD-8C29-4F1E-81B1-484861BEFD63";
paths = (
{
closed = 1;
nodes = (
"219.7 260 OFFCURVE",
"260 300.3 OFFCURVE",
"260 350 CURVE SMOOTH",
"260 399.7 OFFCURVE",
"219.7 440 OFFCURVE",
"170 440 CURVE SMOOTH",
"120.3 440 OFFCURVE",
"80 399.7 OFFCURVE",
"80 350 CURVE SMOOTH",
"80 300.3 OFFCURVE",
"120.3 260 OFFCURVE",
"170 260 CURVE SMOOTH"
);
}
);
width = 340;
}
);
leftMetricsKey = H;
rightMetricsKey = H;
unicode = 2022;
},
{
glyphname = endash;
lastChange = "2024-03-13 11:24:47 +0000";
layers = (
{
layerId = "B204ABCD-8C29-4F1E-81B1-484861BEFD63";
paths = (
{
closed = 1;
nodes = (
"380 300 LINE",
"380 400 LINE",
"80 400 LINE",
"80 300 LINE"
);
}
);
width = 460;
}
);
leftMetricsKey = H;
rightMetricsKey = H;
unicode = 2013;
},
{
glyphname = emdash;
lastChange = "2024-03-13 11:24:47 +0000";
layers = (
{
layerId = "B204ABCD-8C29-4F1E-81B1-484861BEFD63";
paths = (
{
closed = 1;
nodes = (
"580 300 LINE",
"580 400 LINE",
"80 400 LINE",
"80 300 LINE"
);
}
);
width = 660;
}
);
leftMetricsKey = H;
rightMetricsKey = H;
unicode = 2014;
},
{
glyphname = scaron;
lastChange = "2024-03-14 09:21:41 +0000";
layers = (
{
layerId = "B204ABCD-8C29-4F1E-81B1-484861BEFD63";
paths = (
{
closed = 1;
nodes = (
"240 400 LINE",
"184.8 400 OFFCURVE",
"140 444.8 OFFCURVE",
"140 500 CURVE SMOOTH",
"140 555.2 OFFCURVE",
"184.8 600 OFFCURVE",
"240 600 CURVE",
"240 700 LINE",
"129.5 700 OFFCURVE",
"40 610.4 OFFCURVE",
"40 500 CURVE SMOOTH",
"40 389.5 OFFCURVE",
"129.5 300 OFFCURVE",
"240 300 CURVE"
);
},
{
closed = 1;
nodes = (
"450.5 0 OFFCURVE",
"540 89.5 OFFCURVE",
"540 200 CURVE SMOOTH",
"540 310.4 OFFCURVE",
"450.5 400 OFFCURVE",
"340 400 CURVE",
"340 300 LINE",
"395.2 300 OFFCURVE",
"440 255.2 OFFCURVE",
"440 200 CURVE SMOOTH",
"440 144.8 OFFCURVE",
"395.2 100 OFFCURVE",
"340 100 CURVE",
"340 0 LINE"
);
},
{
closed = 1;
nodes = (
"490 600 LINE",
"515 700 LINE",
"240 700 LINE",
"240 600 LINE"
);
},
{
closed = 1;
nodes = (
"340 0 LINE",
"340 100 LINE",
"90 100 LINE",
"65 0 LINE"
);
},
{
closed = 1;
nodes = (
"240 300 LINE",
"340 300 LINE",
"340 400 LINE",
"240 400 LINE"
);
},
{
closed = 1;
nodes = (
"330.5 715 LINE SMOOTH",
"353.2 715 OFFCURVE",
"373.4 723.4 OFFCURVE",
"389.4 739.4 CURVE SMOOTH",
"465 815 LINE",
"365 815 LINE",
"300 750 LINE",
"235 815 LINE",
"135 815 LINE",
"210.6 739.4 LINE SMOOTH",
"226.6 723.4 OFFCURVE",
"246.8 715 OFFCURVE",
"269.5 715 CURVE SMOOTH"
);
}
);
width = 580;
}
);
leftMetricsKey = O;
rightMetricsKey = O;
unicode = 0161;
},
{
glyphname = guilsinglright;
lastChange = "2024-03-13 11:24:47 +0000";
layers = (
{
layerId = "B204ABCD-8C29-4F1E-81B1-484861BEFD63";
paths = (
{
closed = 1;
nodes = (
"80 439.3 LINE",
"179.2 350 LINE",
"80 260.7 LINE",
"80 126.2 LINE",
"243.1 273.1 LINE",
"265.2 291.4 OFFCURVE",
"279.2 319.1 OFFCURVE",
"279.2 350 CURVE SMOOTH",
"279.2 381.2 OFFCURVE",
"265 409 OFFCURVE",
"242.6 427.3 CURVE",
"80 573.8 LINE"
);
}
);
width = 359.2;
}
);
leftMetricsKey = H;
rightMetricsKey = H;
unicode = 203A;
},
{
glyphname = oe;
lastChange = "2024-03-14 17:27:41 +0000";
layers = (
{
layerId = "B204ABCD-8C29-4F1E-81B1-484861BEFD63";
paths = (
{
closed = 1;
nodes = (
"40 156.7 OFFCURVE",
"196.7 0 OFFCURVE",
"390 0 CURVE SMOOTH",
"583.3 0 OFFCURVE",
"740 156.7 OFFCURVE",
"740 350 CURVE SMOOTH",
"740 543.3 OFFCURVE",
"583.3 700 OFFCURVE",
"390 700 CURVE SMOOTH",
"196.7 700 OFFCURVE",
"40 543.3 OFFCURVE",
"40 350 CURVE SMOOTH"
);
},
{
closed = 1;
nodes = (
"140 488.1 OFFCURVE",
"251.9 600 OFFCURVE",
"390 600 CURVE SMOOTH",
"528.1 600 OFFCURVE",
"640 488.1 OFFCURVE",
"640 350 CURVE SMOOTH",
"640 211.9 OFFCURVE",
"528.1 100 OFFCURVE",
"390 100 CURVE SMOOTH",
"251.9 100 OFFCURVE",
"140 211.9 OFFCURVE",
"140 350 CURVE SMOOTH"
);
},
{
closed = 1;
nodes = (
"640 0 LINE",
"740 0 LINE",
"740 400 LINE",
"640 400 LINE"
);
},
{
closed = 1;
nodes = (
"1090 600 LINE",
"1065 700 LINE",
"640 700 LINE",
"640 600 LINE"
);
},
{
closed = 1;
nodes = (
"1090 0 LINE",
"1090 100 LINE",
"640 100 LINE",
"640 0 LINE"
);
},
{
closed = 1;
nodes = (
"990 300 LINE",
"990 400 LINE",
"640 400 LINE",
"640 300 LINE"
);
}
);
width = 1170;
}
);
leftKerningGroup = O;
leftMetricsKey = O;
rightMetricsKey = H;
unicode = 0153;
},
{
glyphname = zcaron;
lastChange = "2024-03-15 10:08:44 +0000";
layers = (
{
layerId = "B204ABCD-8C29-4F1E-81B1-484861BEFD63";
paths = (
{
closed = 1;
nodes = (
"251.8 150 LINE",
"595.6 700 LINE",
"348 700 LINE SMOOTH",
"370.7 700 OFFCURVE",
"390.9 708.4 OFFCURVE",
"406.9 724.4 CURVE SMOOTH",
"482.5 800 LINE",
"382.5 800 LINE",
"317.5 735 LINE",
"252.5 800 LINE",
"152.5 800 LINE",
"228.1 724.4 LINE SMOOTH",
"244.1 708.4 OFFCURVE",
"264.3 700 OFFCURVE",
"287 700 CURVE SMOOTH",
"65 700 LINE",
"65 600 LINE",
"415.1 600 LINE",
"133.8 150 LINE"
);
},
{
closed = 1;
nodes = (
"595.6 0 LINE",
"595.6 100 LINE",
"102.5 100 LINE",
"40 0 LINE"
);
}
);
width = 635.6;
}
);
leftMetricsKey = O;
rightMetricsKey = O;
unicode = 017E;
},
{
glyphname = Ydieresis;
lastChange = "2024-03-14 17:39:27 +0000";
layers = (
{
layerId = "B204ABCD-8C29-4F1E-81B1-484861BEFD63";
paths = (
{
closed = 1;
nodes = (
"235 369.8 OFFCURVE",
"279.7 325 OFFCURVE",
"335 325 CURVE SMOOTH",
"390.2 325 OFFCURVE",
"435 369.8 OFFCURVE",
"435 425 CURVE",
"235 425 LINE"
);
},
{
closed = 1;
nodes = (
"650 700.3 LINE",
"527.8 700.3 LINE",
"335 425 LINE",
"417 367.5 LINE"
);
},
{
closed = 1;
nodes = (
"335 425 LINE",
"142.2 700.3 LINE",
"20 700.3 LINE",
"253 367.5 LINE"
);
},
{
closed = 1;
nodes = (
"285 0 LINE",
"385 0 LINE",
"385 275 LINE",
"285 275 LINE"
);
},
{
closed = 1;
nodes = (
"185 745.6 LINE",
"185 727.9 OFFCURVE",
"197.9 715 OFFCURVE",
"215.6 715 CURVE",
"254.4 715 LINE",
"272.1 715 OFFCURVE",
"285 727.9 OFFCURVE",
"285 745.6 CURVE",
"285 784.4 LINE",
"285 802.1 OFFCURVE",
"272.1 815 OFFCURVE",
"254.4 815 CURVE",
"215.6 815 LINE",
"197.9 815 OFFCURVE",
"185 802.1 OFFCURVE",
"185 784.4 CURVE"
);
},
{
closed = 1;
nodes = (
"385 745.6 LINE",
"385 727.9 OFFCURVE",
"397.9 715 OFFCURVE",
"415.6 715 CURVE",
"454.4 715 LINE",
"472.1 715 OFFCURVE",
"485 727.9 OFFCURVE",
"485 745.6 CURVE",
"485 784.4 LINE",
"485 802.1 OFFCURVE",
"472.1 815 OFFCURVE",
"454.4 815 CURVE",
"415.6 815 LINE",
"397.9 815 OFFCURVE",
"385 802.1 OFFCURVE",
"385 784.4 CURVE"
);
}
);
width = 670;
}
);
leftKerningGroup = Y;
leftMetricsKey = Y;
rightKerningGroup = Y;
rightMetricsKey = Y;
unicode = 0178;
},
{
glyphname = exclamdown;
lastChange = "2024-03-15 09:59:46 +0000";
layers = (
{
layerId = "B204ABCD-8C29-4F1E-81B1-484861BEFD63";
paths = (
{
closed = 0;
nodes = (
"150 -200 LINE"
);
},
{
closed = 1;
nodes = (
"250 -200 LINE",
"250 300 LINE",
"150 300 LINE",
"150 -200 LINE"
);
},
{
closed = 1;
nodes = (
"250 400 LINE",
"250 500 LINE",
"150 500 LINE",
"150 400 LINE"
);
}
);
width = 330;
}
);
rightMetricsKey = H;
unicode = 00A1;
},
{
glyphname = cent;
lastChange = "2024-03-13 11:24:47 +0000";
layers = (
{
layerId = "B204ABCD-8C29-4F1E-81B1-484861BEFD63";
paths = (
{
closed = 1;
nodes = (
"80 149 OFFCURVE",
"189 40 OFFCURVE",
"323.3 40 CURVE SMOOTH",
"391.4 40 OFFCURVE",
"456 68.2 OFFCURVE",
"502.3 118.4 CURVE",
"441 179.8 LINE",
"410.9 145.7 OFFCURVE",
"368.2 126.6 OFFCURVE",
"323.3 126.6 CURVE SMOOTH",
"236.7 126.6 OFFCURVE",
"166.7 196.7 OFFCURVE",
"166.7 283.3 CURVE SMOOTH",
"166.7 369.9 OFFCURVE",
"236.7 440 OFFCURVE",
"323.3 440 CURVE SMOOTH",
"368.3 440 OFFCURVE",
"410.8 420.9 OFFCURVE",
"441 386.9 CURVE",
"502.3 448.2 LINE",
"456 498.4 OFFCURVE",
"391.4 526.6 OFFCURVE",
"323.3 526.6 CURVE SMOOTH",
"189 526.6 OFFCURVE",
"80 417.6 OFFCURVE",
"80 283.3 CURVE SMOOTH"
);
},
{
closed = 1;
nodes = (
"297.3 0 LINE",
"347.3 0 LINE",
"347.3 566.6 LINE",
"297.3 566.6 LINE"
);
}
);
width = 582.3;
}
);
leftMetricsKey = H;
rightMetricsKey = H;
unicode = 00A2;
},
{
glyphname = sterling;
lastChange = "2024-03-13 11:24:47 +0000";
layers = (
{
layerId = "B204ABCD-8C29-4F1E-81B1-484861BEFD63";
paths = (
{
closed = 1;
nodes = (
"477.3 0 LINE",
"477.3 94 LINE",
"190.9 94 LINE",
"252.1 195.5 LINE",
"257.5 207.5 OFFCURVE",
"261.6 219.9 OFFCURVE",
"264.5 232.5 CURVE",
"380 232.5 LINE",
"380 307.5 LINE",
"267.7 307.5 LINE",
"261.6 349.1 OFFCURVE",
"242.7 389.1 OFFCURVE",
"210.8 421 CURVE",
"190.5 442.8 OFFCURVE",
"178.1 467.5 OFFCURVE",
"178.1 498.2 CURVE SMOOTH",
"178.1 559.8 OFFCURVE",
"223.9 605.7 OFFCURVE",
"285.6 605.7 CURVE SMOOTH",
"347.2 605.7 OFFCURVE",
"393.1 559.8 OFFCURVE",
"393.1 498.2 CURVE",
"487.3 498.2 LINE",
"487.3 609.4 OFFCURVE",
"396.9 700 OFFCURVE",
"285.6 700 CURVE SMOOTH",
"174.3 700 OFFCURVE",
"83.8 609.4 OFFCURVE",
"83.8 498.2 CURVE SMOOTH",
"83.8 441.9 OFFCURVE",
"106.9 390.9 OFFCURVE",
"144.1 354.3 CURVE SMOOTH",
"158 340.4 OFFCURVE",
"167.4 324.4 OFFCURVE",
"172.5 307.5 CURVE",
"80 307.5 LINE",
"80 232.5 LINE",
"164.4 232.5 LINE",
"80 92.5 LINE",
"80 0 LINE"
);
}
);
width = 567.3;
}
);
leftMetricsKey = H;
rightMetricsKey = H;
unicode = 00A3;
},
{
glyphname = yen;
lastChange = "2024-03-13 11:24:47 +0000";
layers = (
{
layerId = "B204ABCD-8C29-4F1E-81B1-484861BEFD63";
paths = (
{
closed = 1;
nodes = (
"295 371.3 OFFCURVE",
"339.7 325 OFFCURVE",
"395 325 CURVE SMOOTH",
"450.2 325 OFFCURVE",
"495 369.8 OFFCURVE",
"495 425 CURVE",
"295 425 LINE"
);
},
{
closed = 1;
nodes = (
"710 700.3 LINE",
"587.8 700.3 LINE",
"395 425 LINE",
"477 367.5 LINE"
);
},
{
closed = 1;
nodes = (
"395 425 LINE",
"202.2 700.3 LINE",
"80 700.3 LINE",
"313 367.5 LINE"
);
},
{
closed = 1;
nodes = (
"345 0 LINE",
"445 0 LINE",
"445 275 LINE",
"345 275 LINE"
);
},
{
closed = 1;
nodes = (
"620 162.5 LINE",
"620 237.5 LINE",
"170 237.5 LINE",
"170 162.5 LINE"
);
}
);
width = 790;
}
);
leftMetricsKey = H;
rightMetricsKey = H;
unicode = 00A5;
},
{
glyphname = section;
lastChange = "2024-03-13 11:24:47 +0000";
layers = (
{
layerId = "B204ABCD-8C29-4F1E-81B1-484861BEFD63";
paths = (
{
closed = 1;
nodes = (
"80 270.6 OFFCURVE",
"147.3 207 OFFCURVE",
"227.5 212.7 CURVE",
"227.5 278 LINE",
"183.2 272.3 OFFCURVE",
"145.2 306.5 OFFCURVE",
"145.2 350 CURVE SMOOTH",
"145.2 393.5 OFFCURVE",
"183.2 427.7 OFFCURVE",
"227.5 422 CURVE",
"227.5 487.3 LINE",
"147.3 493 OFFCURVE",
"80 429.4 OFFCURVE",
"80 350 CURVE SMOOTH"
);
},
{
closed = 1;
nodes = (
"80 480.9 OFFCURVE",
"147.3 417.3 OFFCURVE",
"227.5 422.9 CURVE",
"227.5 488.3 LINE",
"183.2 482.5 OFFCURVE",
"145.2 516.7 OFFCURVE",
"145.2 560.3 CURVE",
"145.2 603.8 OFFCURVE",
"183.1 637.9 OFFCURVE",
"227.5 632.2 CURVE",
"227.5 697.5 LINE",
"147.3 703.1 OFFCURVE",
"80 639.5 OFFCURVE",
"80 560.3 CURVE SMOOTH"
);
},
{
closed = 1;
nodes = (
"355.4 429.4 OFFCURVE",
"288.1 493 OFFCURVE",
"207.9 487.3 CURVE",
"207.9 422 LINE",
"252.2 427.7 OFFCURVE",
"290.2 393.5 OFFCURVE",
"290.2 350 CURVE SMOOTH",
"290.2 306.5 OFFCURVE",
"252.2 272.3 OFFCURVE",
"207.9 278 CURVE",
"207.9 212.7 LINE",
"288.1 207 OFFCURVE",
"355.4 270.6 OFFCURVE",
"355.4 350 CURVE SMOOTH"
);
},
{
closed = 1;
nodes = (
"355.4 219.1 OFFCURVE",
"288.1 282.7 OFFCURVE",
"207.9 277.1 CURVE",
"207.9 211.7 LINE",
"252.2 217.5 OFFCURVE",
"290.2 183.3 OFFCURVE",
"290.2 139.7 CURVE SMOOTH",
"290.2 96.2 OFFCURVE",
"252.3 62.1 OFFCURVE",
"207.9 67.8 CURVE",
"207.9 2.5 LINE",
"288.1 -3.1 OFFCURVE",
"355.4 60.5 OFFCURVE",
"355.4 139.7 CURVE SMOOTH"
);
},
{
closed = 1;
nodes = (
"297.1 2.2 OFFCURVE",
"360.7 69.4 OFFCURVE",
"355 149.5 CURVE",
"289.7 149.5 LINE",
"295.4 105.2 OFFCURVE",
"261.2 67.2 OFFCURVE",
"217.7 67.2 CURVE SMOOTH",
"174.2 67.2 OFFCURVE",
"140 105.2 OFFCURVE",
"145.7 149.5 CURVE",
"80.4 149.5 LINE",
"74.7 69.4 OFFCURVE",
"138.3 2.2 OFFCURVE",
"217.7 2.2 CURVE SMOOTH"
);
},
{
closed = 1;
nodes = (
"138.3 697.8 OFFCURVE",
"74.7 630.6 OFFCURVE",
"80.4 550.5 CURVE",
"145.7 550.5 LINE",
"140 594.8 OFFCURVE",
"174.2 632.8 OFFCURVE",
"217.7 632.8 CURVE SMOOTH",
"261.2 632.8 OFFCURVE",
"295.4 594.8 OFFCURVE",
"289.7 550.5 CURVE",
"355 550.5 LINE",
"360.7 630.6 OFFCURVE",
"297.1 697.8 OFFCURVE",
"217.7 697.8 CURVE SMOOTH"
);
}
);
width = 435.4;
}
);
leftMetricsKey = H;
rightMetricsKey = H;
unicode = 00A7;
},
{
glyphname = copyright;
lastChange = "2024-03-13 11:24:47 +0000";
layers = (
{
layerId = "B204ABCD-8C29-4F1E-81B1-484861BEFD63";
paths = (
{
closed = 1;
nodes = (
"84 441 OFFCURVE",
"132 394 OFFCURVE",
"191 394 CURVE SMOOTH",
"220 394 OFFCURVE",
"247 406 OFFCURVE",
"266 425 CURVE",
"241 450 LINE",
"228 437 OFFCURVE",
"210 429 OFFCURVE",
"191 429 CURVE SMOOTH",
"151 429 OFFCURVE",
"120 461 OFFCURVE",
"120 500 CURVE SMOOTH",
"120 539 OFFCURVE",
"151 571 OFFCURVE",
"191 571 CURVE SMOOTH",
"210 571 OFFCURVE",
"228 563 OFFCURVE",
"241 550 CURVE",
"266 575 LINE",
"247 594 OFFCURVE",
"220 606 OFFCURVE",
"191 606 CURVE SMOOTH",
"132 606 OFFCURVE",
"84 559 OFFCURVE",
"84 500 CURVE SMOOTH"
);
},
{
closed = 1;
nodes = (
"40 417 OFFCURVE",
"107 350 OFFCURVE",
"190 350 CURVE SMOOTH",
"273 350 OFFCURVE",
"340 417 OFFCURVE",
"340 500 CURVE SMOOTH",
"340 583 OFFCURVE",
"273 650 OFFCURVE",
"190 650 CURVE SMOOTH",
"107 650 OFFCURVE",
"40 583 OFFCURVE",
"40 500 CURVE SMOOTH"
);
},
{
closed = 1;
nodes = (
"65 569 OFFCURVE",
"121 625 OFFCURVE",
"190 625 CURVE SMOOTH",
"259 625 OFFCURVE",
"315 569 OFFCURVE",
"315 500 CURVE SMOOTH",
"315 431 OFFCURVE",
"259 375 OFFCURVE",
"190 375 CURVE SMOOTH",
"121 375 OFFCURVE",
"65 431 OFFCURVE",
"65 500 CURVE SMOOTH"
);
}
);
width = 590;
}
);
leftMetricsKey = O;
unicode = 00A9;
},
{
glyphname = ordfeminine;
lastChange = "2024-03-13 19:02:30 +0000";
layers = (
{
layerId = "B204ABCD-8C29-4F1E-81B1-484861BEFD63";
paths = (
{
closed = 1;
nodes = (
"297.3 642.9 LINE",
"297.3 674.4 OFFCURVE",
"271.7 700 OFFCURVE",
"240.2 700 CURVE SMOOTH",
"208.6 700 OFFCURVE",
"183.1 674.4 OFFCURVE",
"183.1 642.9 CURVE"
);
},
{
closed = 1;
nodes = (
"40 300 LINE",
"101.7 300 LINE",
"240.2 642.9 LINE",
"187.2 664.3 LINE"
);
},
{
closed = 1;
nodes = (
"240.2 642.9 LINE",
"378.7 300 LINE",
"440.4 300 LINE",
"293.2 664.3 LINE"
);
}
);
width = 590.4;
}
);
leftMetricsKey = O;
unicode = 00AA;
},
{
glyphname = guillemetleft;
lastChange = "2024-03-13 11:24:47 +0000";
layers = (
{
layerId = "B204ABCD-8C29-4F1E-81B1-484861BEFD63";
paths = (
{
closed = 1;
nodes = (
"116.6 427.3 LINE",
"94.2 409 OFFCURVE",
"80 381.2 OFFCURVE",
"80 350 CURVE SMOOTH",
"80 319.1 OFFCURVE",
"94 291.4 OFFCURVE",
"116.1 273.1 CURVE",
"279.2 126.2 LINE",
"279.2 260.7 LINE",
"180 350 LINE",
"279.2 439.3 LINE",
"279.2 573.8 LINE"
);
},
{
closed = 1;
nodes = (
"316.6 427.3 LINE",
"294.2 409 OFFCURVE",
"280 381.2 OFFCURVE",
"280 350 CURVE SMOOTH",
"280 319.1 OFFCURVE",
"294 291.4 OFFCURVE",
"316.1 273.1 CURVE",
"479.2 126.2 LINE",
"479.2 260.7 LINE",
"380 350 LINE",
"479.2 439.3 LINE",
"479.2 573.8 LINE"
);
}
);
width = 559.2;
}
);
leftMetricsKey = H;
rightMetricsKey = H;
unicode = 00AB;
},
{
glyphname = registered;
lastChange = "2024-03-13 11:24:47 +0000";
layers = (
{
layerId = "B204ABCD-8C29-4F1E-81B1-484861BEFD63";
paths = (
{
closed = 1;
nodes = (
"40 417 OFFCURVE",
"107 350 OFFCURVE",
"190 350 CURVE SMOOTH",
"273 350 OFFCURVE",
"340 417 OFFCURVE",
"340 500 CURVE SMOOTH",
"340 583 OFFCURVE",
"273 650 OFFCURVE",
"190 650 CURVE SMOOTH",
"107 650 OFFCURVE",
"40 583 OFFCURVE",
"40 500 CURVE SMOOTH"
);
},
{
closed = 1;
nodes = (
"65 569 OFFCURVE",
"121 625 OFFCURVE",
"190 625 CURVE SMOOTH",
"259 625 OFFCURVE",
"315 569 OFFCURVE",
"315 500 CURVE SMOOTH",
"315 431 OFFCURVE",
"259 375 OFFCURVE",
"190 375 CURVE SMOOTH",
"121 375 OFFCURVE",
"65 431 OFFCURVE",
"65 500 CURVE SMOOTH"
);
},
{
closed = 1;
nodes = (
"127.4 605.7 LINE",
"120 576.1 LINE",
"194.1 576.1 LINE SMOOTH",
"214.5 576.1 OFFCURVE",
"231.1 559.5 OFFCURVE",
"231.1 539 CURVE SMOOTH",
"231.1 518.6 OFFCURVE",
"214.5 502 OFFCURVE",
"194.1 502 CURVE SMOOTH",
"120 502 LINE",
"120 398.3 LINE",
"149.7 398.3 LINE",
"149.7 472.4 LINE",
"194.1 472.4 LINE SMOOTH",
"230.9 472.4 OFFCURVE",
"260.8 502.2 OFFCURVE",
"260.8 539 CURVE SMOOTH",
"260.8 575.9 OFFCURVE",
"230.9 605.7 OFFCURVE",
"194.1 605.7 CURVE SMOOTH"
);
},
{
closed = 1;
nodes = (
"228.7 398.3 LINE",
"260.8 398.3 LINE",
"236.8 457.6 LINE",
"204.9 457.6 LINE"
);
}
);
width = 590;
}
);
leftMetricsKey = O;
unicode = 00AE;
},
{
glyphname = degree;
lastChange = "2024-03-13 11:24:47 +0000";
layers = (
{
layerId = "B204ABCD-8C29-4F1E-81B1-484861BEFD63";
paths = (
{
closed = 1;
nodes = (
"80 480.5 OFFCURVE",
"143.4 417.1 OFFCURVE",
"221.5 417.1 CURVE SMOOTH",
"299.6 417.1 OFFCURVE",
"363 480.5 OFFCURVE",
"363 558.6 CURVE",
"363 636.6 OFFCURVE",
"299.5 700 OFFCURVE",
"221.5 700 CURVE SMOOTH",
"143.5 700 OFFCURVE",
"80 636.6 OFFCURVE",
"80 558.6 CURVE SMOOTH"
);
},
{
closed = 1;
nodes = (
"158.2 593.7 OFFCURVE",
"186.4 621.9 OFFCURVE",
"221.5 621.9 CURVE SMOOTH",
"256.6 621.9 OFFCURVE",
"284.8 593.7 OFFCURVE",
"284.8 558.6 CURVE SMOOTH",
"284.8 523.4 OFFCURVE",
"256.7 495.2 OFFCURVE",
"221.5 495.2 CURVE SMOOTH",
"186.3 495.2 OFFCURVE",
"158.2 523.4 OFFCURVE",
"158.2 558.6 CURVE SMOOTH"
);
}
);
width = 443;
}
);
leftMetricsKey = H;
rightMetricsKey = H;
unicode = 00B0;
},
{
glyphname = plusminus;
lastChange = "2024-03-19 11:31:54 +0000";
layers = (
{
layerId = "B204ABCD-8C29-4F1E-81B1-484861BEFD63";
paths = (
{
closed = 1;
nodes = (
"480 100 LINE",
"80 100 LINE",
"80 0 LINE",
"480 0 LINE"
);
},
{
closed = 1;
nodes = (
"230 150 LINE",
"330 150 LINE",
"330 550 LINE",
"230 550 LINE"
);
},
{
closed = 1;
nodes = (
"480 300 LINE",
"480 400 LINE",
"80 400 LINE",
"80 300 LINE"
);
}
);
width = 560;
}
);
leftMetricsKey = H;
rightMetricsKey = H;
unicode = 00B1;
},
{
glyphname = twosuperior;
lastChange = "2024-03-13 17:47:02 +0000";
layers = (
{
layerId = "B204ABCD-8C29-4F1E-81B1-484861BEFD63";
paths = (
{
closed = 1;
nodes = (
"114.6 300 LINE",
"303.1 300 LINE",
"303.1 357.1 LINE",
"162.5 357.1 LINE",
"87.9 357.1 LINE",
"73.7 340.1 OFFCURVE",
"57.8 321.2 OFFCURVE",
"40 300 CURVE"
);
},
{
closed = 1;
nodes = (
"186.5 385.7 LINE",
"272.2 487.9 LINE SMOOTH",
"291.2 510.5 OFFCURVE",
"303.1 539.5 OFFCURVE",
"303.1 571.4 CURVE SMOOTH",
"303.1 642.5 OFFCURVE",
"245.5 700 OFFCURVE",
"174.5 700 CURVE",
"174.5 642.9 LINE",
"213.9 642.9 OFFCURVE",
"245.9 610.9 OFFCURVE",
"245.9 571.4 CURVE SMOOTH",
"245.9 553.9 OFFCURVE",
"239.6 537.9 OFFCURVE",
"229.2 525.5 CURVE SMOOTH",
"201.2 492.1 OFFCURVE",
"175.1 461 OFFCURVE",
"111.9 385.7 CURVE"
);
},
{
closed = 1;
nodes = (
"68.6 642.9 LINE",
"174.5 642.9 LINE",
"174.5 700 LINE",
"82.9 700 LINE"
);
}
);
width = 453.1;
}
);
leftMetricsKey = O;
unicode = 00B2;
},
{
glyphname = threesuperior;
lastChange = "2024-03-13 17:46:54 +0000";
layers = (
{
layerId = "B204ABCD-8C29-4F1E-81B1-484861BEFD63";
paths = (
{
closed = 1;
nodes = (
"168.6 300 LINE SMOOTH",
"239.6 300 OFFCURVE",
"297.2 357.5 OFFCURVE",
"297.2 428.6 CURVE SMOOTH",
"297.2 499.6 OFFCURVE",
"239.6 557.1 OFFCURVE",
"168.6 557.1 CURVE SMOOTH",
"140.4 557.1 LINE",
"104.7 500 LINE",
"168.6 500 LINE SMOOTH",
"208 500 OFFCURVE",
"240 468 OFFCURVE",
"240 428.6 CURVE SMOOTH",
"240 389.1 OFFCURVE",
"208 357.1 OFFCURVE",
"168.6 357.1 CURVE SMOOTH",
"40 357.1 LINE",
"40 300 LINE"
);
},
{
closed = 1;
nodes = (
"194 642.9 LINE",
"158.3 585.7 LINE",
"225.7 585.7 LINE",
"297.2 700 LINE",
"54.3 700 LINE",
"40 642.9 LINE"
);
}
);
width = 447.2;
}
);
leftMetricsKey = O;
unicode = 00B3;
},
{
glyphname = periodcentered;
lastChange = "2024-03-13 11:24:47 +0000";
layers = (
{
layerId = "B204ABCD-8C29-4F1E-81B1-484861BEFD63";
paths = (
{
closed = 1;
nodes = (
"80 300 LINE",
"180 300 LINE",
"180 400 LINE",
"80 400 LINE"
);
}
);
width = 260;
}
);
leftMetricsKey = H;
rightMetricsKey = H;
unicode = 00B7;
},
{
glyphname = onesuperior;
lastChange = "2024-03-13 17:47:08 +0000";
layers = (
{
layerId = "B204ABCD-8C29-4F1E-81B1-484861BEFD63";
paths = (
{
closed = 1;
nodes = (
"40 300 LINE",
"97.2 300 LINE",
"97.2 642.9 LINE",
"40 642.9 LINE"
);
},
{
closed = 1;
nodes = (
"40 642.9 LINE",
"97.2 642.9 LINE",
"97.2 700 LINE",
"54.3 700 LINE"
);
}
);
width = 247.2;
}
);
leftMetricsKey = O;
unicode = 00B9;
},
{
glyphname = ordmasculine;
lastChange = "2024-03-13 19:06:08 +0000";
layers = (
{
layerId = "B204ABCD-8C29-4F1E-81B1-484861BEFD63";
paths = (
{
closed = 1;
nodes = (
"40 389.5 OFFCURVE",
"129.4 300 OFFCURVE",
"239.9 300 CURVE SMOOTH",
"350.4 300 OFFCURVE",
"440 389.5 OFFCURVE",
"440 499.9 CURVE SMOOTH",
"440 610.4 OFFCURVE",
"350.4 700 OFFCURVE",
"239.9 700 CURVE SMOOTH",
"129.4 700 OFFCURVE",
"40 610.4 OFFCURVE",
"40 499.9 CURVE SMOOTH"
);
},
{
closed = 1;
nodes = (
"97 578.9 OFFCURVE",
"160.9 643 OFFCURVE",
"239.9 643 CURVE SMOOTH",
"318.9 643 OFFCURVE",
"383 578.9 OFFCURVE",
"383 499.9 CURVE SMOOTH",
"383 421 OFFCURVE",
"318.9 357 OFFCURVE",
"239.9 357 CURVE SMOOTH",
"160.9 357 OFFCURVE",
"97 421 OFFCURVE",
"97 499.9 CURVE SMOOTH"
);
}
);
width = 590;
}
);
leftMetricsKey = O;
unicode = 00BA;
},
{
glyphname = guillemetright;
lastChange = "2024-03-13 11:24:47 +0000";
layers = (
{
layerId = "B204ABCD-8C29-4F1E-81B1-484861BEFD63";
paths = (
{
closed = 1;
nodes = (
"80 439.3 LINE",
"179.2 350 LINE",
"80 260.7 LINE",
"80 126.2 LINE",
"243.1 273.1 LINE",
"265.2 291.4 OFFCURVE",
"279.2 319.1 OFFCURVE",
"279.2 350 CURVE SMOOTH",
"279.2 381.2 OFFCURVE",
"265 409 OFFCURVE",
"242.6 427.3 CURVE",
"80 573.8 LINE"
);
},
{
closed = 1;
nodes = (
"280 439.3 LINE",
"379.2 350 LINE",
"280 260.7 LINE",
"280 126.2 LINE",
"443.1 273.1 LINE",
"465.2 291.4 OFFCURVE",
"479.2 319.1 OFFCURVE",
"479.2 350 CURVE SMOOTH",
"479.2 381.2 OFFCURVE",
"465 409 OFFCURVE",
"442.6 427.3 CURVE",
"280 573.8 LINE"
);
}
);
width = 559.2;
}
);
leftMetricsKey = H;
rightMetricsKey = H;
unicode = 00BB;
},
{
glyphname = questiondown;
lastChange = "2024-03-15 10:00:00 +0000";
layers = (
{
layerId = "B204ABCD-8C29-4F1E-81B1-484861BEFD63";
paths = (
{
closed = 1;
nodes = (
"375 -100 LINE",
"306 -100 OFFCURVE",
"250 -44 OFFCURVE",
"250 25 CURVE SMOOTH",
"250 94 OFFCURVE",
"306 150 OFFCURVE",
"375 150 CURVE",
"375 250 LINE",
"250.7 250 OFFCURVE",
"150 149.3 OFFCURVE",
"150 25 CURVE SMOOTH",
"150 -99.3 OFFCURVE",
"250.7 -200 OFFCURVE",
"375 -200 CURVE"
);
},
{
closed = 1;
nodes = (
"375 250 LINE",
"375 150 LINE",
"545 150 LINE",
"545 250 LINE"
);
},
{
closed = 1;
nodes = (
"375 -100 LINE",
"375 -200 LINE",
"545 -200 LINE",
"570 -100 LINE"
);
},
{
closed = 1;
nodes = (
"545 300 LINE",
"445 300 LINE",
"445 150 LINE",
"545 150 LINE"
);
},
{
closed = 1;
nodes = (
"545 500 LINE",
"445 500 LINE",
"445 400 LINE",
"545 400 LINE"
);
}
);
width = 650;
}
);
rightMetricsKey = H;
unicode = 00BF;
},
{
glyphname = Agrave;
lastChange = "2024-03-14 17:21:57 +0000";
layers = (
{
layerId = "B204ABCD-8C29-4F1E-81B1-484861BEFD63";
paths = (
{
closed = 1;
nodes = (
"470.3 600 LINE",
"470.3 655.2 OFFCURVE",
"425.5 700 OFFCURVE",
"370.3 700 CURVE SMOOTH",
"315 700 OFFCURVE",
"270.3 655.2 OFFCURVE",
"270.3 600 CURVE"
);
},
{
closed = 1;
nodes = (
"20 0 LINE",
"127.9 0 LINE",
"370.3 600 LINE",
"277.6 637.5 LINE"
);
},
{
closed = 1;
nodes = (
"370.3 600 LINE",
"612.7 0 LINE",
"720.6 0 LINE",
"463 637.5 LINE"
);
},
{
closed = 1;
nodes = (
"235.3 850 LINE",
"320.3 700 LINE",
"370.3 700 LINE",
"335.3 850 LINE"
);
}
);
width = 740.6;
}
);
leftKerningGroup = A;
leftMetricsKey = A;
rightKerningGroup = A;
rightMetricsKey = A;
unicode = 00C0;
},
{
glyphname = Aacute;
lastChange = "2024-03-14 17:20:10 +0000";
layers = (
{
layerId = "B204ABCD-8C29-4F1E-81B1-484861BEFD63";
paths = (
{
closed = 1;
nodes = (
"470.3 600 LINE",
"470.3 655.2 OFFCURVE",
"425.5 700 OFFCURVE",
"370.3 700 CURVE SMOOTH",
"315 700 OFFCURVE",
"270.3 655.2 OFFCURVE",
"270.3 600 CURVE"
);
},
{
closed = 1;
nodes = (
"20 0 LINE",
"127.9 0 LINE",
"370.3 600 LINE",
"277.6 637.5 LINE"
);
},
{
closed = 1;
nodes = (
"370.3 600 LINE",
"612.7 0 LINE",
"720.6 0 LINE",
"463 637.5 LINE"
);
},
{
closed = 1;
nodes = (
"370.3 700 LINE",
"420.3 700 LINE",
"505.3 850 LINE",
"405.3 850 LINE"
);
}
);
width = 740.6;
}
);
leftKerningGroup = A;
leftMetricsKey = A;
rightKerningGroup = A;
rightMetricsKey = A;
unicode = 00C1;
},
{
glyphname = Acircumflex;
lastChange = "2024-03-19 11:30:55 +0000";
layers = (
{
layerId = "B204ABCD-8C29-4F1E-81B1-484861BEFD63";
paths = (
{
closed = 1;
nodes = (
"470.3 600 LINE",
"470.3 655.2 OFFCURVE",
"425.5 700 OFFCURVE",
"370.3 700 CURVE SMOOTH",
"315 700 OFFCURVE",
"270.3 655.2 OFFCURVE",
"270.3 600 CURVE"
);
},
{
closed = 1;
nodes = (
"20 0 LINE",
"127.9 0 LINE",
"370.3 600 LINE",
"277.6 637.5 LINE"
);
},
{
closed = 1;
nodes = (
"370.3 600 LINE",
"612.7 0 LINE",
"720.6 0 LINE",
"463 637.5 LINE"
);
},
{
closed = 1;
nodes = (
"317.1 815 OFFCURVE",
"296.9 806.6 OFFCURVE",
"280.9 790.6 CURVE SMOOTH",
"205.3 715 LINE",
"305.3 715 LINE",
"370.3 780 LINE",
"435.3 715 LINE",
"535.3 715 LINE",
"459.7 790.6 LINE SMOOTH",
"443.7 806.6 OFFCURVE",
"423.5 815 OFFCURVE",
"400.8 815 CURVE SMOOTH",
"339.8 815 LINE SMOOTH"
);
}
);
width = 740.6;
}
);
leftKerningGroup = A;
leftMetricsKey = A;
rightKerningGroup = A;
rightMetricsKey = A;
unicode = 00C2;
},
{
glyphname = Atilde;
lastChange = "2024-03-14 17:20:10 +0000";
layers = (
{
layerId = "B204ABCD-8C29-4F1E-81B1-484861BEFD63";
paths = (
{
closed = 1;
nodes = (
"470.3 600 LINE",
"470.3 655.2 OFFCURVE",
"425.5 700 OFFCURVE",
"370.3 700 CURVE SMOOTH",
"315 700 OFFCURVE",
"270.3 655.2 OFFCURVE",
"270.3 600 CURVE"
);
},
{
closed = 1;
nodes = (
"20 0 LINE",
"127.9 0 LINE",
"370.3 600 LINE",
"277.6 637.5 LINE"
);
},
{
closed = 1;
nodes = (
"370.3 600 LINE",
"612.7 0 LINE",
"720.6 0 LINE",
"463 637.5 LINE"
);
},
{
closed = 1;
nodes = (
"285.7 700 OFFCURVE",
"348.9 700 OFFCURVE",
"388 739 CURVE SMOOTH",
"407.5 758.5 OFFCURVE",
"439.2 758.5 OFFCURVE",
"458.7 739 CURVE SMOOTH",
"465.1 732.5 OFFCURVE",
"469.5 724.7 OFFCURVE",
"471.6 716.4 CURVE",
"522.5 716.4 LINE",
"519.8 737.6 OFFCURVE",
"510.4 758.1 OFFCURVE",
"494.1 774.4 CURVE SMOOTH",
"454.9 813.4 OFFCURVE",
"391.7 813.4 OFFCURVE",
"352.6 774.4 CURVE SMOOTH",
"333.1 754.9 OFFCURVE",
"301.4 754.9 OFFCURVE",
"281.9 774.4 CURVE SMOOTH",
"275.5 780.9 OFFCURVE",
"271.1 788.7 OFFCURVE",
"269 797 CURVE",
"218.1 797 LINE",
"220.8 775.8 OFFCURVE",
"230.2 755.3 OFFCURVE",
"246.5 739 CURVE SMOOTH"
);
}
);
width = 740.6;
}
);
leftKerningGroup = A;
leftMetricsKey = A;
rightKerningGroup = A;
rightMetricsKey = A;
unicode = 00C3;
},
{
glyphname = Adieresis;
lastChange = "2024-03-14 17:20:10 +0000";
layers = (
{
layerId = "B204ABCD-8C29-4F1E-81B1-484861BEFD63";
paths = (
{
closed = 1;
nodes = (
"470.3 600 LINE",
"470.3 655.2 OFFCURVE",
"425.5 700 OFFCURVE",
"370.3 700 CURVE SMOOTH",
"315 700 OFFCURVE",
"270.3 655.2 OFFCURVE",
"270.3 600 CURVE"
);
},
{
closed = 1;
nodes = (
"20 0 LINE",
"127.9 0 LINE",
"370.3 600 LINE",
"277.6 637.5 LINE"
);
},
{
closed = 1;
nodes = (
"370.3 600 LINE",
"612.7 0 LINE",
"720.6 0 LINE",
"463 637.5 LINE"
);
},
{
closed = 1;
nodes = (
"220.3 745.6 LINE",
"220.3 727.9 OFFCURVE",
"233.2 715 OFFCURVE",
"250.9 715 CURVE",
"289.7 715 LINE",
"307.4 715 OFFCURVE",
"320.3 727.9 OFFCURVE",
"320.3 745.6 CURVE",
"320.3 784.4 LINE",
"320.3 802.1 OFFCURVE",
"307.4 815 OFFCURVE",
"289.7 815 CURVE",
"250.9 815 LINE",
"233.2 815 OFFCURVE",
"220.3 802.1 OFFCURVE",
"220.3 784.4 CURVE"
);
},
{
closed = 1;
nodes = (
"420.3 745.6 LINE",
"420.3 727.9 OFFCURVE",
"433.2 715 OFFCURVE",
"450.9 715 CURVE",
"489.7 715 LINE",
"507.4 715 OFFCURVE",
"520.3 727.9 OFFCURVE",
"520.3 745.6 CURVE",
"520.3 784.4 LINE",
"520.3 802.1 OFFCURVE",
"507.4 815 OFFCURVE",
"489.7 815 CURVE",
"450.9 815 LINE",
"433.2 815 OFFCURVE",
"420.3 802.1 OFFCURVE",
"420.3 784.4 CURVE"
);
}
);
width = 740.6;
}
);
leftKerningGroup = A;
leftMetricsKey = A;
rightKerningGroup = A;
rightMetricsKey = A;
unicode = 00C4;
},
{
glyphname = Aring;
lastChange = "2024-03-14 17:20:10 +0000";
layers = (
{
layerId = "B204ABCD-8C29-4F1E-81B1-484861BEFD63";
paths = (
{
closed = 1;
nodes = (
"470.3 600 LINE",
"470.3 655.2 OFFCURVE",
"425.5 700 OFFCURVE",
"370.3 700 CURVE SMOOTH",
"315 700 OFFCURVE",
"270.3 655.2 OFFCURVE",
"270.3 600 CURVE"
);
},
{
closed = 1;
nodes = (
"20 0 LINE",
"127.9 0 LINE",
"370.3 600 LINE",
"277.6 637.5 LINE"
);
},
{
closed = 1;
nodes = (
"370.3 600 LINE",
"612.7 0 LINE",
"720.6 0 LINE",
"463 637.5 LINE"
);
},
{
closed = 1;
nodes = (
"270.3 744.8 OFFCURVE",
"315.1 700 OFFCURVE",
"370.3 700 CURVE SMOOTH",
"425.5 700 OFFCURVE",
"470.3 744.8 OFFCURVE",
"470.3 800 CURVE SMOOTH",
"470.3 855.2 OFFCURVE",
"425.5 900 OFFCURVE",
"370.3 900 CURVE SMOOTH",
"315.1 900 OFFCURVE",
"270.3 855.2 OFFCURVE",
"270.3 800 CURVE SMOOTH"
);
},
{
closed = 1;
nodes = (
"320.3 827.6 OFFCURVE",
"342.7 850 OFFCURVE",
"370.3 850 CURVE SMOOTH",
"397.9 850 OFFCURVE",
"420.3 827.6 OFFCURVE",
"420.3 800 CURVE SMOOTH",
"420.3 772.4 OFFCURVE",
"397.9 750 OFFCURVE",
"370.3 750 CURVE SMOOTH",
"342.7 750 OFFCURVE",
"320.3 772.4 OFFCURVE",
"320.3 800 CURVE SMOOTH"
);
}
);
width = 740.6;
}
);
leftKerningGroup = A;
leftMetricsKey = A;
rightKerningGroup = A;
rightMetricsKey = A;
unicode = 00C5;
},
{
glyphname = AE;
lastChange = "2024-03-14 17:27:14 +0000";
layers = (
{
layerId = "B204ABCD-8C29-4F1E-81B1-484861BEFD63";
paths = (
{
closed = 1;
nodes = (
"470.3 600 LINE",
"470.3 655.2 OFFCURVE",
"425.5 700 OFFCURVE",
"370.3 700 CURVE SMOOTH",
"315 700 OFFCURVE",
"270.3 655.2 OFFCURVE",
"270.3 600 CURVE"
);
},
{
closed = 1;
nodes = (
"20 0 LINE",
"127.9 0 LINE",
"370.3 600 LINE",
"277.6 637.5 LINE"
);
},
{
closed = 1;
nodes = (
"370.3 0 LINE",
"470.3 0 LINE",
"470.3 400 LINE",
"370.3 400 LINE"
);
},
{
closed = 1;
nodes = (
"820.3 600 LINE",
"795.3 700 LINE",
"370.3 700 LINE",
"370.3 600 LINE"
);
},
{
closed = 1;
nodes = (
"820.3 0 LINE",
"820.3 100 LINE",
"370.3 100 LINE",
"370.3 0 LINE"
);
},
{
closed = 1;
nodes = (
"720.3 300 LINE",
"720.3 400 LINE",
"370.3 400 LINE",
"370.3 300 LINE"
);
}
);
width = 900.3;
}
);
leftKerningGroup = A;
leftMetricsKey = A;
rightMetricsKey = H;
unicode = 00C6;
},
{
glyphname = Ccedilla;
lastChange = "2024-03-14 09:13:24 +0000";
layers = (
{
layerId = "B204ABCD-8C29-4F1E-81B1-484861BEFD63";
paths = (
{
closed = 1;
nodes = (
"40 156.7 OFFCURVE",
"196.7 0 OFFCURVE",
"390 0 CURVE SMOOTH",
"486.6 0 OFFCURVE",
"574.1 39.2 OFFCURVE",
"637.5 102.5 CURVE",
"566.8 173.2 LINE",
"521.5 128 OFFCURVE",
"459 100 OFFCURVE",
"390 100 CURVE SMOOTH",
"251.9 100 OFFCURVE",
"140 211.9 OFFCURVE",
"140 350 CURVE SMOOTH",
"140 488.1 OFFCURVE",
"251.9 600 OFFCURVE",
"390 600 CURVE SMOOTH",
"459.1 600 OFFCURVE",
"521.5 572 OFFCURVE",
"566.8 526.8 CURVE",
"637.5 597.5 LINE",
"574.1 660.8 OFFCURVE",
"486.6 700 OFFCURVE",
"390 700 CURVE SMOOTH",
"196.7 700 OFFCURVE",
"40 543.3 OFFCURVE",
"40 350 CURVE SMOOTH"
);
},
{
closed = 1;
nodes = (
"445.2 -200 OFFCURVE",
"490 -155.2 OFFCURVE",
"490 -100 CURVE SMOOTH",
"490 -44.8 OFFCURVE",
"445.2 0 OFFCURVE",
"390 0 CURVE",
"390 -50 LINE",
"417.6 -50 OFFCURVE",
"440 -72.4 OFFCURVE",
"440 -100 CURVE SMOOTH",
"440 -127.6 OFFCURVE",
"417.6 -150 OFFCURVE",
"390 -150 CURVE",
"390 -200 LINE"
);
},
{
closed = 1;
nodes = (
"340 0 LINE",
"340 -50 LINE",
"390 -50 LINE",
"390 0 LINE"
);
}
);
width = 677.5;
}
);
leftMetricsKey = O;
rightMetricsKey = O;
unicode = 00C7;
},
{
glyphname = Egrave;
lastChange = "2024-03-12 20:07:05 +0000";
layers = (
{
layerId = "B204ABCD-8C29-4F1E-81B1-484861BEFD63";
paths = (
{
closed = 1;
nodes = (
"80 0 LINE",
"180 0 LINE",
"180 400 LINE",
"80 400 LINE"
);
},
{
closed = 1;
nodes = (
"530 600 LINE",
"505 700 LINE",
"80 700 LINE",
"80 600 LINE"
);
},
{
closed = 1;
nodes = (
"530 0 LINE",
"530 100 LINE",
"80 100 LINE",
"80 0 LINE"
);
},
{
closed = 1;
nodes = (
"430 300 LINE",
"430 400 LINE",
"80 400 LINE",
"80 300 LINE"
);
},
{
closed = 1;
nodes = (
"165 850 LINE",
"250 700 LINE",
"300 700 LINE",
"265 850 LINE"
);
}
);
width = 610;
}
);
leftMetricsKey = H;
rightMetricsKey = H;
unicode = 00C8;
},
{
glyphname = Eacute;
lastChange = "2024-03-14 08:39:13 +0000";
layers = (
{
layerId = "B204ABCD-8C29-4F1E-81B1-484861BEFD63";
paths = (
{
closed = 1;
nodes = (
"80 0 LINE",
"180 0 LINE",
"180 400 LINE",
"80 400 LINE"
);
},
{
closed = 1;
nodes = (
"530 600 LINE",
"505 700 LINE",
"80 700 LINE",
"80 600 LINE"
);
},
{
closed = 1;
nodes = (
"530 0 LINE",
"530 100 LINE",
"80 100 LINE",
"80 0 LINE"
);
},
{
closed = 1;
nodes = (
"430 300 LINE",
"430 400 LINE",
"80 400 LINE",
"80 300 LINE"
);
},
{
closed = 1;
nodes = (
"300 700 LINE",
"350 700 LINE",
"435 850 LINE",
"335 850 LINE"
);
}
);
width = 610;
}
);
leftMetricsKey = H;
rightMetricsKey = H;
unicode = 00C9;
},
{
glyphname = Ecircumflex;
lastChange = "2024-03-12 20:05:52 +0000";
layers = (
{
layerId = "B204ABCD-8C29-4F1E-81B1-484861BEFD63";
paths = (
{
closed = 1;
nodes = (
"80 0 LINE",
"180 0 LINE",
"180 400 LINE",
"80 400 LINE"
);
},
{
closed = 1;
nodes = (
"530 600 LINE",
"505 700 LINE",
"80 700 LINE",
"80 600 LINE"
);
},
{
closed = 1;
nodes = (
"530 0 LINE",
"530 100 LINE",
"80 100 LINE",
"80 0 LINE"
);
},
{
closed = 1;
nodes = (
"430 300 LINE",
"430 400 LINE",
"80 400 LINE",
"80 300 LINE"
);
},
{
closed = 1;
nodes = (
"246.8 815 OFFCURVE",
"226.6 806.6 OFFCURVE",
"210.6 790.6 CURVE SMOOTH",
"135 715 LINE",
"235 715 LINE",
"300 780 LINE",
"365 715 LINE",
"465 715 LINE",
"389.4 790.6 LINE SMOOTH",
"373.4 806.6 OFFCURVE",
"353.2 815 OFFCURVE",
"330.5 815 CURVE SMOOTH",
"269.5 815 LINE SMOOTH"
);
}
);
width = 610;
}
);
leftMetricsKey = H;
rightMetricsKey = H;
unicode = 00CA;
},
{
glyphname = Edieresis;
lastChange = "2024-03-14 08:38:58 +0000";
layers = (
{
layerId = "B204ABCD-8C29-4F1E-81B1-484861BEFD63";
paths = (
{
closed = 1;
nodes = (
"80 0 LINE",
"180 0 LINE",
"180 400 LINE",
"80 400 LINE"
);
},
{
closed = 1;
nodes = (
"530 600 LINE",
"505 700 LINE",
"80 700 LINE",
"80 600 LINE"
);
},
{
closed = 1;
nodes = (
"530 0 LINE",
"530 100 LINE",
"80 100 LINE",
"80 0 LINE"
);
},
{
closed = 1;
nodes = (
"430 300 LINE",
"430 400 LINE",
"80 400 LINE",
"80 300 LINE"
);
},
{
closed = 1;
nodes = (
"150 745.6 LINE",
"150 727.9 OFFCURVE",
"162.9 715 OFFCURVE",
"180.6 715 CURVE",
"219.4 715 LINE",
"237.1 715 OFFCURVE",
"250 727.9 OFFCURVE",
"250 745.6 CURVE",
"250 784.4 LINE",
"250 802.1 OFFCURVE",
"237.1 815 OFFCURVE",
"219.4 815 CURVE",
"180.6 815 LINE",
"162.9 815 OFFCURVE",
"150 802.1 OFFCURVE",
"150 784.4 CURVE"
);
},
{
closed = 1;
nodes = (
"350 745.6 LINE",
"350 727.9 OFFCURVE",
"362.9 715 OFFCURVE",
"380.6 715 CURVE",
"419.4 715 LINE",
"437.1 715 OFFCURVE",
"450 727.9 OFFCURVE",
"450 745.6 CURVE",
"450 784.4 LINE",
"450 802.1 OFFCURVE",
"437.1 815 OFFCURVE",
"419.4 815 CURVE",
"380.6 815 LINE",
"362.9 815 OFFCURVE",
"350 802.1 OFFCURVE",
"350 784.4 CURVE"
);
}
);
width = 610;
}
);
leftMetricsKey = H;
rightMetricsKey = H;
unicode = 00CB;
},
{
glyphname = Igrave;
lastChange = "2024-03-15 09:47:37 +0000";
layers = (
{
layerId = "B204ABCD-8C29-4F1E-81B1-484861BEFD63";
paths = (
{
closed = 1;
nodes = (
"125 0 LINE",
"225 0 LINE",
"225 700 LINE",
"125 700 LINE"
);
},
{
closed = 1;
nodes = (
"40 850 LINE",
"125 700 LINE",
"175 700 LINE",
"140 850 LINE"
);
}
);
width = 305;
}
);
rightMetricsKey = H;
unicode = 00CC;
},
{
glyphname = Iacute;
lastChange = "2024-03-15 09:45:56 +0000";
layers = (
{
layerId = "B204ABCD-8C29-4F1E-81B1-484861BEFD63";
paths = (
{
closed = 1;
nodes = (
"80 0 LINE",
"180 0 LINE",
"180 700 LINE",
"80 700 LINE"
);
},
{
closed = 1;
nodes = (
"130 700 LINE",
"180 700 LINE",
"265 850 LINE",
"165 850 LINE"
);
}
);
width = 305;
}
);
leftMetricsKey = H;
unicode = 00CD;
},
{
glyphname = Icircumflex;
lastChange = "2024-03-15 09:46:47 +0000";
layers = (
{
layerId = "B204ABCD-8C29-4F1E-81B1-484861BEFD63";
paths = (
{
closed = 1;
nodes = (
"155 0 LINE",
"255 0 LINE",
"255 700 LINE",
"155 700 LINE"
);
},
{
closed = 1;
nodes = (
"151.8 815 OFFCURVE",
"131.6 806.6 OFFCURVE",
"115.6 790.6 CURVE SMOOTH",
"40 715 LINE",
"140 715 LINE",
"205 780 LINE",
"270 715 LINE",
"370 715 LINE",
"294.4 790.6 LINE SMOOTH",
"278.4 806.6 OFFCURVE",
"258.2 815 OFFCURVE",
"235.5 815 CURVE SMOOTH",
"174.5 815 LINE SMOOTH"
);
}
);
width = 410;
}
);
unicode = 00CE;
},
{
glyphname = Idieresis;
lastChange = "2024-03-15 09:47:14 +0000";
layers = (
{
layerId = "B204ABCD-8C29-4F1E-81B1-484861BEFD63";
paths = (
{
closed = 1;
nodes = (
"140 0 LINE",
"240 0 LINE",
"240 700 LINE",
"140 700 LINE"
);
},
{
closed = 1;
nodes = (
"40 745.6 LINE",
"40 727.9 OFFCURVE",
"52.9 715 OFFCURVE",
"70.6 715 CURVE",
"109.4 715 LINE",
"127.1 715 OFFCURVE",
"140 727.9 OFFCURVE",
"140 745.6 CURVE",
"140 784.4 LINE",
"140 802.1 OFFCURVE",
"127.1 815 OFFCURVE",
"109.4 815 CURVE",
"70.6 815 LINE",
"52.9 815 OFFCURVE",
"40 802.1 OFFCURVE",
"40 784.4 CURVE"
);
},
{
closed = 1;
nodes = (
"240 745.6 LINE",
"240 727.9 OFFCURVE",
"252.9 715 OFFCURVE",
"270.6 715 CURVE",
"309.4 715 LINE",
"327.1 715 OFFCURVE",
"340 727.9 OFFCURVE",
"340 745.6 CURVE",
"340 784.4 LINE",
"340 802.1 OFFCURVE",
"327.1 815 OFFCURVE",
"309.4 815 CURVE",
"270.6 815 LINE",
"252.9 815 OFFCURVE",
"240 802.1 OFFCURVE",
"240 784.4 CURVE"
);
}
);
width = 380;
}
);
unicode = 00CF;
},
{
glyphname = Ntilde;
lastChange = "2024-03-14 08:42:15 +0000";
layers = (
{
layerId = "B204ABCD-8C29-4F1E-81B1-484861BEFD63";
paths = (
{
closed = 1;
nodes = (
"474 600 OFFCURVE",
"530 544 OFFCURVE",
"530 475 CURVE",
"630 475 LINE",
"630 599.3 OFFCURVE",
"529.3 700 OFFCURVE",
"405 700 CURVE",
"405 600 LINE"
);
},
{
closed = 1;
nodes = (
"530 0 LINE",
"630 0 LINE",
"630 475 LINE",
"530 475 LINE"
);
},
{
closed = 1;
nodes = (
"405 600 LINE",
"405 700 LINE",
"105 700 LINE",
"80 600 LINE"
);
},
{
closed = 1;
nodes = (
"80 0 LINE",
"180 0 LINE",
"180 550 LINE",
"80 550 LINE"
);
},
{
closed = 1;
nodes = (
"270.4 700 OFFCURVE",
"333.6 700 OFFCURVE",
"372.7 739 CURVE SMOOTH",
"392.2 758.5 OFFCURVE",
"423.9 758.5 OFFCURVE",
"443.4 739 CURVE SMOOTH",
"449.8 732.5 OFFCURVE",
"454.2 724.7 OFFCURVE",
"456.3 716.4 CURVE",
"507.2 716.4 LINE",
"504.5 737.6 OFFCURVE",
"495.1 758.1 OFFCURVE",
"478.8 774.4 CURVE SMOOTH",
"439.6 813.4 OFFCURVE",
"376.4 813.4 OFFCURVE",
"337.3 774.4 CURVE SMOOTH",
"317.8 754.9 OFFCURVE",
"286.1 754.9 OFFCURVE",
"266.6 774.4 CURVE SMOOTH",
"260.2 780.9 OFFCURVE",
"255.8 788.7 OFFCURVE",
"253.7 797 CURVE",
"202.8 797 LINE",
"205.5 775.8 OFFCURVE",
"214.9 755.3 OFFCURVE",
"231.2 739 CURVE SMOOTH"
);
}
);
width = 710;
}
);
leftMetricsKey = H;
rightMetricsKey = H;
unicode = 00D1;
},
{
glyphname = Ograve;
lastChange = "2024-03-14 17:26:22 +0000";
layers = (
{
layerId = "B204ABCD-8C29-4F1E-81B1-484861BEFD63";
paths = (
{
closed = 1;
nodes = (
"40 156.7 OFFCURVE",
"196.7 0 OFFCURVE",
"390 0 CURVE SMOOTH",
"583.3 0 OFFCURVE",
"740 156.7 OFFCURVE",
"740 350 CURVE SMOOTH",
"740 543.3 OFFCURVE",
"583.3 700 OFFCURVE",
"390 700 CURVE SMOOTH",
"196.7 700 OFFCURVE",
"40 543.3 OFFCURVE",
"40 350 CURVE SMOOTH"
);
},
{
closed = 1;
nodes = (
"140 488.1 OFFCURVE",
"251.9 600 OFFCURVE",
"390 600 CURVE SMOOTH",
"528.1 600 OFFCURVE",
"640 488.1 OFFCURVE",
"640 350 CURVE SMOOTH",
"640 211.9 OFFCURVE",
"528.1 100 OFFCURVE",
"390 100 CURVE SMOOTH",
"251.9 100 OFFCURVE",
"140 211.9 OFFCURVE",
"140 350 CURVE SMOOTH"
);
},
{
closed = 1;
nodes = (
"255 850 LINE",
"340 700 LINE",
"390 700 LINE",
"355 850 LINE"
);
}
);
width = 780;
}
);
leftKerningGroup = O;
leftMetricsKey = O;
rightKerningGroup = O;
rightMetricsKey = O;
unicode = 00D2;
},
{
glyphname = Oacute;
lastChange = "2024-03-14 17:26:22 +0000";
layers = (
{
layerId = "B204ABCD-8C29-4F1E-81B1-484861BEFD63";
paths = (
{
closed = 1;
nodes = (
"40 156.7 OFFCURVE",
"196.7 0 OFFCURVE",
"390 0 CURVE SMOOTH",
"583.3 0 OFFCURVE",
"740 156.7 OFFCURVE",
"740 350 CURVE SMOOTH",
"740 543.3 OFFCURVE",
"583.3 700 OFFCURVE",
"390 700 CURVE SMOOTH",
"196.7 700 OFFCURVE",
"40 543.3 OFFCURVE",
"40 350 CURVE SMOOTH"
);
},
{
closed = 1;
nodes = (
"140 488.1 OFFCURVE",
"251.9 600 OFFCURVE",
"390 600 CURVE SMOOTH",
"528.1 600 OFFCURVE",
"640 488.1 OFFCURVE",
"640 350 CURVE SMOOTH",
"640 211.9 OFFCURVE",
"528.1 100 OFFCURVE",
"390 100 CURVE SMOOTH",
"251.9 100 OFFCURVE",
"140 211.9 OFFCURVE",
"140 350 CURVE SMOOTH"
);
},
{
closed = 1;
nodes = (
"390 700 LINE",
"440 700 LINE",
"525 850 LINE",
"425 850 LINE"
);
}
);
width = 780;
}
);
leftKerningGroup = O;
leftMetricsKey = O;
rightKerningGroup = O;
rightMetricsKey = O;
unicode = 00D3;
},
{
glyphname = Ocircumflex;
lastChange = "2024-03-14 17:26:22 +0000";
layers = (
{
layerId = "B204ABCD-8C29-4F1E-81B1-484861BEFD63";
paths = (
{
closed = 1;
nodes = (
"40 156.7 OFFCURVE",
"196.7 0 OFFCURVE",
"390 0 CURVE SMOOTH",
"583.3 0 OFFCURVE",
"740 156.7 OFFCURVE",
"740 350 CURVE SMOOTH",
"740 543.3 OFFCURVE",
"583.3 700 OFFCURVE",
"390 700 CURVE SMOOTH",
"196.7 700 OFFCURVE",
"40 543.3 OFFCURVE",
"40 350 CURVE SMOOTH"
);
},
{
closed = 1;
nodes = (
"140 488.1 OFFCURVE",
"251.9 600 OFFCURVE",
"390 600 CURVE SMOOTH",
"528.1 600 OFFCURVE",
"640 488.1 OFFCURVE",
"640 350 CURVE SMOOTH",
"640 211.9 OFFCURVE",
"528.1 100 OFFCURVE",
"390 100 CURVE SMOOTH",
"251.9 100 OFFCURVE",
"140 211.9 OFFCURVE",
"140 350 CURVE SMOOTH"
);
},
{
closed = 1;
nodes = (
"336.8 800 OFFCURVE",
"316.6 791.6 OFFCURVE",
"300.6 775.6 CURVE SMOOTH",
"225 700 LINE",
"325 700 LINE",
"390 765 LINE",
"455 700 LINE",
"555 700 LINE",
"479.4 775.6 LINE SMOOTH",
"463.4 791.6 OFFCURVE",
"443.2 800 OFFCURVE",
"420.5 800 CURVE SMOOTH",
"359.5 800 LINE SMOOTH"
);
}
);
width = 780;
}
);
leftKerningGroup = O;
leftMetricsKey = O;
rightKerningGroup = O;
rightMetricsKey = O;
unicode = 00D4;
},
{
glyphname = Otilde;
lastChange = "2024-03-14 17:26:22 +0000";
layers = (
{
layerId = "B204ABCD-8C29-4F1E-81B1-484861BEFD63";
paths = (
{
closed = 1;
nodes = (
"40 156.7 OFFCURVE",
"196.7 0 OFFCURVE",
"390 0 CURVE SMOOTH",
"583.3 0 OFFCURVE",
"740 156.7 OFFCURVE",
"740 350 CURVE SMOOTH",
"740 543.3 OFFCURVE",
"583.3 700 OFFCURVE",
"390 700 CURVE SMOOTH",
"196.7 700 OFFCURVE",
"40 543.3 OFFCURVE",
"40 350 CURVE SMOOTH"
);
},
{
closed = 1;
nodes = (
"140 488.1 OFFCURVE",
"251.9 600 OFFCURVE",
"390 600 CURVE SMOOTH",
"528.1 600 OFFCURVE",
"640 488.1 OFFCURVE",
"640 350 CURVE SMOOTH",
"640 211.9 OFFCURVE",
"528.1 100 OFFCURVE",
"390 100 CURVE SMOOTH",
"251.9 100 OFFCURVE",
"140 211.9 OFFCURVE",
"140 350 CURVE SMOOTH"
);
},
{
closed = 1;
nodes = (
"305.4 700 OFFCURVE",
"368.6 700 OFFCURVE",
"407.7 739 CURVE SMOOTH",
"427.2 758.5 OFFCURVE",
"458.9 758.5 OFFCURVE",
"478.4 739 CURVE SMOOTH",
"484.8 732.5 OFFCURVE",
"489.2 724.7 OFFCURVE",
"491.3 716.4 CURVE",
"542.2 716.4 LINE",
"539.5 737.6 OFFCURVE",
"530.1 758.1 OFFCURVE",
"513.8 774.4 CURVE SMOOTH",
"474.6 813.4 OFFCURVE",
"411.4 813.4 OFFCURVE",
"372.3 774.4 CURVE SMOOTH",
"352.8 754.9 OFFCURVE",
"321.1 754.9 OFFCURVE",
"301.6 774.4 CURVE SMOOTH",
"295.2 780.9 OFFCURVE",
"290.8 788.7 OFFCURVE",
"288.7 797 CURVE",
"237.8 797 LINE",
"240.5 775.8 OFFCURVE",
"249.9 755.3 OFFCURVE",
"266.2 739 CURVE SMOOTH"
);
}
);
width = 780;
}
);
leftKerningGroup = O;
leftMetricsKey = O;
rightKerningGroup = O;
rightMetricsKey = O;
unicode = 00D5;
},
{
glyphname = Odieresis;
lastChange = "2024-03-14 17:26:22 +0000";
layers = (
{
layerId = "B204ABCD-8C29-4F1E-81B1-484861BEFD63";
paths = (
{
closed = 1;
nodes = (
"40 156.7 OFFCURVE",
"196.7 0 OFFCURVE",
"390 0 CURVE SMOOTH",
"583.3 0 OFFCURVE",
"740 156.7 OFFCURVE",
"740 350 CURVE SMOOTH",
"740 543.3 OFFCURVE",
"583.3 700 OFFCURVE",
"390 700 CURVE SMOOTH",
"196.7 700 OFFCURVE",
"40 543.3 OFFCURVE",
"40 350 CURVE SMOOTH"
);
},
{
closed = 1;
nodes = (
"140 488.1 OFFCURVE",
"251.9 600 OFFCURVE",
"390 600 CURVE SMOOTH",
"528.1 600 OFFCURVE",
"640 488.1 OFFCURVE",
"640 350 CURVE SMOOTH",
"640 211.9 OFFCURVE",
"528.1 100 OFFCURVE",
"390 100 CURVE SMOOTH",
"251.9 100 OFFCURVE",
"140 211.9 OFFCURVE",
"140 350 CURVE SMOOTH"
);
},
{
closed = 1;
nodes = (
"240 745.6 LINE",
"240 727.9 OFFCURVE",
"252.9 715 OFFCURVE",
"270.6 715 CURVE",
"309.4 715 LINE",
"327.1 715 OFFCURVE",
"340 727.9 OFFCURVE",
"340 745.6 CURVE",
"340 784.4 LINE",
"340 802.1 OFFCURVE",
"327.1 815 OFFCURVE",
"309.4 815 CURVE",
"270.6 815 LINE",
"252.9 815 OFFCURVE",
"240 802.1 OFFCURVE",
"240 784.4 CURVE"
);
},
{
closed = 1;
nodes = (
"440 745.6 LINE",
"440 727.9 OFFCURVE",
"452.9 715 OFFCURVE",
"470.6 715 CURVE",
"509.4 715 LINE",
"527.1 715 OFFCURVE",
"540 727.9 OFFCURVE",
"540 745.6 CURVE",
"540 784.4 LINE",
"540 802.1 OFFCURVE",
"527.1 815 OFFCURVE",
"509.4 815 CURVE",
"470.6 815 LINE",
"452.9 815 OFFCURVE",
"440 802.1 OFFCURVE",
"440 784.4 CURVE"
);
}
);
width = 780;
}
);
leftKerningGroup = O;
leftMetricsKey = O;
rightKerningGroup = O;
rightMetricsKey = O;
unicode = 00D6;
},
{
glyphname = multiply;
lastChange = "2024-03-13 11:24:47 +0000";
layers = (
{
layerId = "B204ABCD-8C29-4F1E-81B1-484861BEFD63";
paths = (
{
closed = 1;
nodes = (
"80 243.9 LINE",
"150.7 173.2 LINE",
"433.6 456.1 LINE",
"362.9 526.8 LINE"
);
},
{
closed = 1;
nodes = (
"362.9 173.2 LINE",
"433.6 243.9 LINE",
"150.7 526.8 LINE",
"80 456.1 LINE"
);
}
);
width = 513.6;
}
);
leftMetricsKey = H;
rightMetricsKey = H;
unicode = 00D7;
},
{
glyphname = Oslash;
lastChange = "2024-03-14 17:26:22 +0000";
layers = (
{
layerId = "B204ABCD-8C29-4F1E-81B1-484861BEFD63";
paths = (
{
closed = 1;
nodes = (
"40 156.7 OFFCURVE",
"196.7 0 OFFCURVE",
"390 0 CURVE SMOOTH",
"583.3 0 OFFCURVE",
"740 156.7 OFFCURVE",
"740 350 CURVE SMOOTH",
"740 543.3 OFFCURVE",
"583.3 700 OFFCURVE",
"390 700 CURVE SMOOTH",
"196.7 700 OFFCURVE",
"40 543.3 OFFCURVE",
"40 350 CURVE SMOOTH"
);
},
{
closed = 1;
nodes = (
"140 488.1 OFFCURVE",
"251.9 600 OFFCURVE",
"390 600 CURVE SMOOTH",
"528.1 600 OFFCURVE",
"640 488.1 OFFCURVE",
"640 350 CURVE SMOOTH",
"640 211.9 OFFCURVE",
"528.1 100 OFFCURVE",
"390 100 CURVE SMOOTH",
"251.9 100 OFFCURVE",
"140 211.9 OFFCURVE",
"140 350 CURVE SMOOTH"
);
},
{
closed = 1;
nodes = (
"225.5 0 LINE",
"658 700 LINE",
"554.5 700 LINE",
"122 0 LINE"
);
}
);
width = 780;
}
);
leftKerningGroup = O;
leftMetricsKey = O;
rightKerningGroup = O;
rightMetricsKey = O;
unicode = 00D8;
},
{
glyphname = Ugrave;
lastChange = "2024-03-12 20:22:52 +0000";
layers = (
{
layerId = "B204ABCD-8C29-4F1E-81B1-484861BEFD63";
paths = (
{
closed = 1;
nodes = (
"405 0 LINE",
"529.3 0 OFFCURVE",
"630 100.7 OFFCURVE",
"630 225 CURVE",
"530 225 LINE",
"530 156 OFFCURVE",
"474 100 OFFCURVE",
"405 100 CURVE"
);
},
{
closed = 1;
nodes = (
"630 225 LINE",
"630 700 LINE",
"530 700 LINE",
"530 225 LINE"
);
},
{
closed = 1;
nodes = (
"105 0 LINE",
"405 0 LINE",
"405 100 LINE",
"80 100 LINE"
);
},
{
closed = 1;
nodes = (
"180 150 LINE",
"180 700 LINE",
"80 700 LINE",
"80 150 LINE"
);
},
{
closed = 1;
nodes = (
"220 850 LINE",
"305 700 LINE",
"355 700 LINE",
"320 850 LINE"
);
}
);
width = 710;
}
);
leftMetricsKey = H;
rightMetricsKey = H;
unicode = 00D9;
},
{
glyphname = Uacute;
lastChange = "2024-03-14 08:46:17 +0000";
layers = (
{
layerId = "B204ABCD-8C29-4F1E-81B1-484861BEFD63";
paths = (
{
closed = 1;
nodes = (
"405 0 LINE",
"529.3 0 OFFCURVE",
"630 100.7 OFFCURVE",
"630 225 CURVE",
"530 225 LINE",
"530 156 OFFCURVE",
"474 100 OFFCURVE",
"405 100 CURVE"
);
},
{
closed = 1;
nodes = (
"630 225 LINE",
"630 700 LINE",
"530 700 LINE",
"530 225 LINE"
);
},
{
closed = 1;
nodes = (
"105 0 LINE",
"405 0 LINE",
"405 100 LINE",
"80 100 LINE"
);
},
{
closed = 1;
nodes = (
"180 150 LINE",
"180 700 LINE",
"80 700 LINE",
"80 150 LINE"
);
},
{
closed = 1;
nodes = (
"300 700 LINE",
"350 700 LINE",
"435 850 LINE",
"335 850 LINE"
);
}
);
width = 710;
}
);
leftMetricsKey = H;
rightMetricsKey = H;
unicode = 00DA;
},
{
glyphname = Ucircumflex;
lastChange = "2024-03-12 20:23:59 +0000";
layers = (
{
layerId = "B204ABCD-8C29-4F1E-81B1-484861BEFD63";
paths = (
{
closed = 1;
nodes = (
"405 0 LINE",
"529.3 0 OFFCURVE",
"630 100.7 OFFCURVE",
"630 225 CURVE",
"530 225 LINE",
"530 156 OFFCURVE",
"474 100 OFFCURVE",
"405 100 CURVE"
);
},
{
closed = 1;
nodes = (
"630 225 LINE",
"630 700 LINE",
"530 700 LINE",
"530 225 LINE"
);
},
{
closed = 1;
nodes = (
"105 0 LINE",
"405 0 LINE",
"405 100 LINE",
"80 100 LINE"
);
},
{
closed = 1;
nodes = (
"180 150 LINE",
"180 700 LINE",
"80 700 LINE",
"80 150 LINE"
);
},
{
closed = 1;
nodes = (
"301.8 815 OFFCURVE",
"281.6 806.6 OFFCURVE",
"265.6 790.6 CURVE SMOOTH",
"190 715 LINE",
"290 715 LINE",
"355 780 LINE",
"420 715 LINE",
"520 715 LINE",
"444.4 790.6 LINE SMOOTH",
"428.4 806.6 OFFCURVE",
"408.2 815 OFFCURVE",
"385.5 815 CURVE SMOOTH",
"324.5 815 LINE SMOOTH"
);
}
);
width = 710;
}
);
leftMetricsKey = H;
rightMetricsKey = H;
unicode = 00DB;
},
{
glyphname = Udieresis;
lastChange = "2024-03-14 08:47:21 +0000";
layers = (
{
layerId = "B204ABCD-8C29-4F1E-81B1-484861BEFD63";
paths = (
{
closed = 1;
nodes = (
"405 0 LINE",
"529.3 0 OFFCURVE",
"630 100.7 OFFCURVE",
"630 225 CURVE",
"530 225 LINE",
"530 156 OFFCURVE",
"474 100 OFFCURVE",
"405 100 CURVE"
);
},
{
closed = 1;
nodes = (
"630 225 LINE",
"630 700 LINE",
"530 700 LINE",
"530 225 LINE"
);
},
{
closed = 1;
nodes = (
"105 0 LINE",
"405 0 LINE",
"405 100 LINE",
"80 100 LINE"
);
},
{
closed = 1;
nodes = (
"180 150 LINE",
"180 700 LINE",
"80 700 LINE",
"80 150 LINE"
);
},
{
closed = 1;
nodes = (
"205 745.6 LINE",
"205 727.9 OFFCURVE",
"217.9 715 OFFCURVE",
"235.6 715 CURVE",
"274.4 715 LINE",
"292.1 715 OFFCURVE",
"305 727.9 OFFCURVE",
"305 745.6 CURVE",
"305 784.4 LINE",
"305 802.1 OFFCURVE",
"292.1 815 OFFCURVE",
"274.4 815 CURVE",
"235.6 815 LINE",
"217.9 815 OFFCURVE",
"205 802.1 OFFCURVE",
"205 784.4 CURVE"
);
},
{
closed = 1;
nodes = (
"405 745.6 LINE",
"405 727.9 OFFCURVE",
"417.9 715 OFFCURVE",
"435.6 715 CURVE",
"474.4 715 LINE",
"492.1 715 OFFCURVE",
"505 727.9 OFFCURVE",
"505 745.6 CURVE",
"505 784.4 LINE",
"505 802.1 OFFCURVE",
"492.1 815 OFFCURVE",
"474.4 815 CURVE",
"435.6 815 LINE",
"417.9 815 OFFCURVE",
"405 802.1 OFFCURVE",
"405 784.4 CURVE"
);
}
);
width = 710;
}
);
leftMetricsKey = H;
rightMetricsKey = H;
unicode = 00DC;
},
{
glyphname = Yacute;
lastChange = "2024-03-14 17:39:27 +0000";
layers = (
{
layerId = "B204ABCD-8C29-4F1E-81B1-484861BEFD63";
paths = (
{
closed = 1;
nodes = (
"235 369.8 OFFCURVE",
"279.7 325 OFFCURVE",
"335 325 CURVE SMOOTH",
"390.2 325 OFFCURVE",
"435 369.8 OFFCURVE",
"435 425 CURVE",
"235 425 LINE"
);
},
{
closed = 1;
nodes = (
"650 700.3 LINE",
"527.8 700.3 LINE",
"335 425 LINE",
"417 367.5 LINE"
);
},
{
closed = 1;
nodes = (
"335 425 LINE",
"142.2 700.3 LINE",
"20 700.3 LINE",
"253 367.5 LINE"
);
},
{
closed = 1;
nodes = (
"285 0 LINE",
"385 0 LINE",
"385 275 LINE",
"285 275 LINE"
);
},
{
closed = 1;
nodes = (
"300 700 LINE",
"350 700 LINE",
"435 850 LINE",
"335 850 LINE"
);
}
);
width = 670;
}
);
leftKerningGroup = Y;
leftMetricsKey = Y;
rightKerningGroup = Y;
rightMetricsKey = Y;
unicode = 00DD;
},
{
glyphname = germandbls;
lastChange = "2024-03-14 09:04:44 +0000";
layers = (
{
layerId = "B204ABCD-8C29-4F1E-81B1-484861BEFD63";
paths = (
{
closed = 1;
nodes = (
"180 525 LINE",
"180 566.4 OFFCURVE",
"213.6 600 OFFCURVE",
"255 600 CURVE",
"255 700 LINE",
"158.3 700 OFFCURVE",
"80 621.7 OFFCURVE",
"80 525 CURVE"
);
},
{
closed = 1;
nodes = (
"180 -100 LINE",
"180 525 LINE",
"80 525 LINE",
"80 -100 LINE"
);
},
{
closed = 1;
nodes = (
"355 0 LINE SMOOTH",
"479.3 0 OFFCURVE",
"580 100.7 OFFCURVE",
"580 225 CURVE SMOOTH",
"580 300.6 OFFCURVE",
"542.7 367.6 OFFCURVE",
"485.5 408.3 CURVE",
"513.2 439.3 OFFCURVE",
"530 480.2 OFFCURVE",
"530 525 CURVE SMOOTH",
"530 621.7 OFFCURVE",
"451.7 700 OFFCURVE",
"355 700 CURVE",
"355 600 LINE",
"396.4 600 OFFCURVE",
"430 566.4 OFFCURVE",
"430 525 CURVE SMOOTH",
"430 483.6 OFFCURVE",
"396.4 450 OFFCURVE",
"355 450 CURVE SMOOTH",
"255 450 LINE",
"255 350 LINE",
"355 350 LINE SMOOTH",
"424 350 OFFCURVE",
"480 294 OFFCURVE",
"480 225 CURVE SMOOTH",
"480 156 OFFCURVE",
"424 100 OFFCURVE",
"355 100 CURVE SMOOTH",
"255 100 LINE",
"230 0 LINE"
);
},
{
closed = 1;
nodes = (
"255 600 LINE",
"355 600 LINE",
"355 700 LINE",
"255 700 LINE"
);
}
);
width = 660;
}
);
leftMetricsKey = H;
rightMetricsKey = H;
unicode = 00DF;
},
{
glyphname = agrave;
lastChange = "2024-03-14 17:20:10 +0000";
layers = (
{
layerId = "B204ABCD-8C29-4F1E-81B1-484861BEFD63";
paths = (
{
closed = 1;
nodes = (
"470.3 600 LINE",
"470.3 655.2 OFFCURVE",
"425.5 700 OFFCURVE",
"370.3 700 CURVE SMOOTH",
"315 700 OFFCURVE",
"270.3 655.2 OFFCURVE",
"270.3 600 CURVE"
);
},
{
closed = 1;
nodes = (
"20 0 LINE",
"127.9 0 LINE",
"370.3 600 LINE",
"277.6 637.5 LINE"
);
},
{
closed = 1;
nodes = (
"370.3 600 LINE",
"612.7 0 LINE",
"720.6 0 LINE",
"463 637.5 LINE"
);
},
{
closed = 1;
nodes = (
"235.3 850 LINE",
"320.3 700 LINE",
"370.3 700 LINE",
"335.3 850 LINE"
);
}
);
width = 740.6;
}
);
leftKerningGroup = A;
leftMetricsKey = A;
rightKerningGroup = A;
rightMetricsKey = A;
unicode = 00E0;
},
{
glyphname = aacute;
lastChange = "2024-03-14 17:20:10 +0000";
layers = (
{
layerId = "B204ABCD-8C29-4F1E-81B1-484861BEFD63";
paths = (
{
closed = 1;
nodes = (
"470.3 600 LINE",
"470.3 655.2 OFFCURVE",
"425.5 700 OFFCURVE",
"370.3 700 CURVE SMOOTH",
"315 700 OFFCURVE",
"270.3 655.2 OFFCURVE",
"270.3 600 CURVE"
);
},
{
closed = 1;
nodes = (
"20 0 LINE",
"127.9 0 LINE",
"370.3 600 LINE",
"277.6 637.5 LINE"
);
},
{
closed = 1;
nodes = (
"370.3 600 LINE",
"612.7 0 LINE",
"720.6 0 LINE",
"463 637.5 LINE"
);
},
{
closed = 1;
nodes = (
"370.3 700 LINE",
"420.3 700 LINE",
"505.3 850 LINE",
"405.3 850 LINE"
);
}
);
width = 740.6;
}
);
leftKerningGroup = A;
leftMetricsKey = A;
rightKerningGroup = A;
rightMetricsKey = A;
unicode = 00E1;
},
{
glyphname = acircumflex;
lastChange = "2024-03-14 17:20:10 +0000";
layers = (
{
layerId = "B204ABCD-8C29-4F1E-81B1-484861BEFD63";
paths = (
{
closed = 1;
nodes = (
"470.3 600 LINE",
"470.3 655.2 OFFCURVE",
"425.5 700 OFFCURVE",
"370.3 700 CURVE SMOOTH",
"315 700 OFFCURVE",
"270.3 655.2 OFFCURVE",
"270.3 600 CURVE"
);
},
{
closed = 1;
nodes = (
"20 0 LINE",
"127.9 0 LINE",
"370.3 600 LINE",
"277.6 637.5 LINE"
);
},
{
closed = 1;
nodes = (
"370.3 600 LINE",
"612.7 0 LINE",
"720.6 0 LINE",
"463 637.5 LINE"
);
},
{
closed = 1;
nodes = (
"317.1 815 OFFCURVE",
"296.9 806.6 OFFCURVE",
"280.9 790.6 CURVE SMOOTH",
"205.3 715 LINE",
"305.3 715 LINE",
"370.3 780 LINE",
"435.3 715 LINE",
"535.3 715 LINE",
"459.7 790.6 LINE SMOOTH",
"443.7 806.6 OFFCURVE",
"423.5 815 OFFCURVE",
"400.8 815 CURVE SMOOTH",
"339.8 815 LINE SMOOTH"
);
}
);
width = 740.6;
}
);
leftKerningGroup = A;
leftMetricsKey = A;
rightKerningGroup = A;
rightMetricsKey = A;
unicode = 00E2;
},
{
glyphname = atilde;
lastChange = "2024-03-14 17:20:10 +0000";
layers = (
{
layerId = "B204ABCD-8C29-4F1E-81B1-484861BEFD63";
paths = (
{
closed = 1;
nodes = (
"470.3 600 LINE",
"470.3 655.2 OFFCURVE",
"425.5 700 OFFCURVE",
"370.3 700 CURVE SMOOTH",
"315 700 OFFCURVE",
"270.3 655.2 OFFCURVE",
"270.3 600 CURVE"
);
},
{
closed = 1;
nodes = (
"20 0 LINE",
"127.9 0 LINE",
"370.3 600 LINE",
"277.6 637.5 LINE"
);
},
{
closed = 1;
nodes = (
"370.3 600 LINE",
"612.7 0 LINE",
"720.6 0 LINE",
"463 637.5 LINE"
);
},
{
closed = 1;
nodes = (
"285.7 700 OFFCURVE",
"348.9 700 OFFCURVE",
"388 739 CURVE SMOOTH",
"407.5 758.5 OFFCURVE",
"439.2 758.5 OFFCURVE",
"458.7 739 CURVE SMOOTH",
"465.1 732.5 OFFCURVE",
"469.5 724.7 OFFCURVE",
"471.6 716.4 CURVE",
"522.5 716.4 LINE",
"519.8 737.6 OFFCURVE",
"510.4 758.1 OFFCURVE",
"494.1 774.4 CURVE SMOOTH",
"454.9 813.4 OFFCURVE",
"391.7 813.4 OFFCURVE",
"352.6 774.4 CURVE SMOOTH",
"333.1 754.9 OFFCURVE",
"301.4 754.9 OFFCURVE",
"281.9 774.4 CURVE SMOOTH",
"275.5 780.9 OFFCURVE",
"271.1 788.7 OFFCURVE",
"269 797 CURVE",
"218.1 797 LINE",
"220.8 775.8 OFFCURVE",
"230.2 755.3 OFFCURVE",
"246.5 739 CURVE SMOOTH"
);
}
);
width = 740.6;
}
);
leftKerningGroup = A;
leftMetricsKey = A;
rightKerningGroup = A;
rightMetricsKey = A;
unicode = 00E3;
},
{
glyphname = adieresis;
lastChange = "2024-03-14 17:20:10 +0000";
layers = (
{
layerId = "B204ABCD-8C29-4F1E-81B1-484861BEFD63";
paths = (
{
closed = 1;
nodes = (
"470.3 600 LINE",
"470.3 655.2 OFFCURVE",
"425.5 700 OFFCURVE",
"370.3 700 CURVE SMOOTH",
"315 700 OFFCURVE",
"270.3 655.2 OFFCURVE",
"270.3 600 CURVE"
);
},
{
closed = 1;
nodes = (
"20 0 LINE",
"127.9 0 LINE",
"370.3 600 LINE",
"277.6 637.5 LINE"
);
},
{
closed = 1;
nodes = (
"370.3 600 LINE",
"612.7 0 LINE",
"720.6 0 LINE",
"463 637.5 LINE"
);
},
{
closed = 1;
nodes = (
"220.3 745.6 LINE",
"220.3 727.9 OFFCURVE",
"233.2 715 OFFCURVE",
"250.9 715 CURVE",
"289.7 715 LINE",
"307.4 715 OFFCURVE",
"320.3 727.9 OFFCURVE",
"320.3 745.6 CURVE",
"320.3 784.4 LINE",
"320.3 802.1 OFFCURVE",
"307.4 815 OFFCURVE",
"289.7 815 CURVE",
"250.9 815 LINE",
"233.2 815 OFFCURVE",
"220.3 802.1 OFFCURVE",
"220.3 784.4 CURVE"
);
},
{
closed = 1;
nodes = (
"420.3 745.6 LINE",
"420.3 727.9 OFFCURVE",
"433.2 715 OFFCURVE",
"450.9 715 CURVE",
"489.7 715 LINE",
"507.4 715 OFFCURVE",
"520.3 727.9 OFFCURVE",
"520.3 745.6 CURVE",
"520.3 784.4 LINE",
"520.3 802.1 OFFCURVE",
"507.4 815 OFFCURVE",
"489.7 815 CURVE",
"450.9 815 LINE",
"433.2 815 OFFCURVE",
"420.3 802.1 OFFCURVE",
"420.3 784.4 CURVE"
);
}
);
width = 740.6;
}
);
leftKerningGroup = A;
leftMetricsKey = A;
rightKerningGroup = A;
rightMetricsKey = A;
unicode = 00E4;
},
{
glyphname = aring;
lastChange = "2024-03-14 17:20:10 +0000";
layers = (
{
layerId = "B204ABCD-8C29-4F1E-81B1-484861BEFD63";
paths = (
{
closed = 1;
nodes = (
"470.3 600 LINE",
"470.3 655.2 OFFCURVE",
"425.5 700 OFFCURVE",
"370.3 700 CURVE SMOOTH",
"315 700 OFFCURVE",
"270.3 655.2 OFFCURVE",
"270.3 600 CURVE"
);
},
{
closed = 1;
nodes = (
"20 0 LINE",
"127.9 0 LINE",
"370.3 600 LINE",
"277.6 637.5 LINE"
);
},
{
closed = 1;
nodes = (
"370.3 600 LINE",
"612.7 0 LINE",
"720.6 0 LINE",
"463 637.5 LINE"
);
},
{
closed = 1;
nodes = (
"270.3 744.8 OFFCURVE",
"315.1 700 OFFCURVE",
"370.3 700 CURVE SMOOTH",
"425.5 700 OFFCURVE",
"470.3 744.8 OFFCURVE",
"470.3 800 CURVE SMOOTH",
"470.3 855.2 OFFCURVE",
"425.5 900 OFFCURVE",
"370.3 900 CURVE SMOOTH",
"315.1 900 OFFCURVE",
"270.3 855.2 OFFCURVE",
"270.3 800 CURVE SMOOTH"
);
},
{
closed = 1;
nodes = (
"320.3 827.6 OFFCURVE",
"342.7 850 OFFCURVE",
"370.3 850 CURVE SMOOTH",
"397.9 850 OFFCURVE",
"420.3 827.6 OFFCURVE",
"420.3 800 CURVE SMOOTH",
"420.3 772.4 OFFCURVE",
"397.9 750 OFFCURVE",
"370.3 750 CURVE SMOOTH",
"342.7 750 OFFCURVE",
"320.3 772.4 OFFCURVE",
"320.3 800 CURVE SMOOTH"
);
}
);
width = 740.6;
}
);
leftKerningGroup = A;
leftMetricsKey = A;
rightKerningGroup = A;
rightMetricsKey = A;
unicode = 00E5;
},
{
glyphname = ae;
lastChange = "2024-03-14 17:27:21 +0000";
layers = (
{
layerId = "B204ABCD-8C29-4F1E-81B1-484861BEFD63";
paths = (
{
closed = 1;
nodes = (
"470.3 600 LINE",
"470.3 655.2 OFFCURVE",
"425.5 700 OFFCURVE",
"370.3 700 CURVE SMOOTH",
"315 700 OFFCURVE",
"270.3 655.2 OFFCURVE",
"270.3 600 CURVE"
);
},
{
closed = 1;
nodes = (
"20 0 LINE",
"127.9 0 LINE",
"370.3 600 LINE",
"277.6 637.5 LINE"
);
},
{
closed = 1;
nodes = (
"370.3 0 LINE",
"470.3 0 LINE",
"470.3 400 LINE",
"370.3 400 LINE"
);
},
{
closed = 1;
nodes = (
"820.3 600 LINE",
"795.3 700 LINE",
"370.3 700 LINE",
"370.3 600 LINE"
);
},
{
closed = 1;
nodes = (
"820.3 0 LINE",
"820.3 100 LINE",
"370.3 100 LINE",
"370.3 0 LINE"
);
},
{
closed = 1;
nodes = (
"720.3 300 LINE",
"720.3 400 LINE",
"370.3 400 LINE",
"370.3 300 LINE"
);
}
);
width = 900.3;
}
);
leftKerningGroup = A;
leftMetricsKey = A;
rightMetricsKey = H;
unicode = 00E6;
},
{
glyphname = ccedilla;
lastChange = "2024-03-14 09:13:42 +0000";
layers = (
{
layerId = "B204ABCD-8C29-4F1E-81B1-484861BEFD63";
paths = (
{
closed = 1;
nodes = (
"40 156.7 OFFCURVE",
"196.7 0 OFFCURVE",
"390 0 CURVE SMOOTH",
"486.6 0 OFFCURVE",
"574.1 39.2 OFFCURVE",
"637.5 102.5 CURVE",
"566.8 173.2 LINE",
"521.5 128 OFFCURVE",
"459 100 OFFCURVE",
"390 100 CURVE SMOOTH",
"251.9 100 OFFCURVE",
"140 211.9 OFFCURVE",
"140 350 CURVE SMOOTH",
"140 488.1 OFFCURVE",
"251.9 600 OFFCURVE",
"390 600 CURVE SMOOTH",
"459.1 600 OFFCURVE",
"521.5 572 OFFCURVE",
"566.8 526.8 CURVE",
"637.5 597.5 LINE",
"574.1 660.8 OFFCURVE",
"486.6 700 OFFCURVE",
"390 700 CURVE SMOOTH",
"196.7 700 OFFCURVE",
"40 543.3 OFFCURVE",
"40 350 CURVE SMOOTH"
);
},
{
closed = 1;
nodes = (
"445.2 -200 OFFCURVE",
"490 -155.2 OFFCURVE",
"490 -100 CURVE SMOOTH",
"490 -44.8 OFFCURVE",
"445.2 0 OFFCURVE",
"390 0 CURVE",
"390 -50 LINE",
"417.6 -50 OFFCURVE",
"440 -72.4 OFFCURVE",
"440 -100 CURVE SMOOTH",
"440 -127.6 OFFCURVE",
"417.6 -150 OFFCURVE",
"390 -150 CURVE",
"390 -200 LINE"
);
},
{
closed = 1;
nodes = (
"340 0 LINE",
"340 -50 LINE",
"390 -50 LINE",
"390 0 LINE"
);
}
);
width = 677.5;
}
);
leftMetricsKey = O;
rightMetricsKey = O;
unicode = 00E7;
},
{
glyphname = egrave;
lastChange = "2024-03-13 07:19:12 +0000";
layers = (
{
layerId = "B204ABCD-8C29-4F1E-81B1-484861BEFD63";
paths = (
{
closed = 1;
nodes = (
"80 0 LINE",
"180 0 LINE",
"180 400 LINE",
"80 400 LINE"
);
},
{
closed = 1;
nodes = (
"530 600 LINE",
"505 700 LINE",
"80 700 LINE",
"80 600 LINE"
);
},
{
closed = 1;
nodes = (
"530 0 LINE",
"530 100 LINE",
"80 100 LINE",
"80 0 LINE"
);
},
{
closed = 1;
nodes = (
"430 300 LINE",
"430 400 LINE",
"80 400 LINE",
"80 300 LINE"
);
},
{
closed = 1;
nodes = (
"165 850 LINE",
"250 700 LINE",
"300 700 LINE",
"265 850 LINE"
);
}
);
width = 610;
}
);
leftMetricsKey = H;
rightMetricsKey = H;
unicode = 00E8;
},
{
glyphname = eacute;
lastChange = "2024-03-14 09:07:39 +0000";
layers = (
{
layerId = "B204ABCD-8C29-4F1E-81B1-484861BEFD63";
paths = (
{
closed = 1;
nodes = (
"80 0 LINE",
"180 0 LINE",
"180 400 LINE",
"80 400 LINE"
);
},
{
closed = 1;
nodes = (
"530 600 LINE",
"505 700 LINE",
"80 700 LINE",
"80 600 LINE"
);
},
{
closed = 1;
nodes = (
"530 0 LINE",
"530 100 LINE",
"80 100 LINE",
"80 0 LINE"
);
},
{
closed = 1;
nodes = (
"430 300 LINE",
"430 400 LINE",
"80 400 LINE",
"80 300 LINE"
);
},
{
closed = 1;
nodes = (
"300 700 LINE",
"350 700 LINE",
"435 850 LINE",
"335 850 LINE"
);
}
);
width = 610;
}
);
leftMetricsKey = H;
rightMetricsKey = H;
unicode = 00E9;
},
{
glyphname = ecircumflex;
lastChange = "2024-03-13 07:18:28 +0000";
layers = (
{
layerId = "B204ABCD-8C29-4F1E-81B1-484861BEFD63";
paths = (
{
closed = 1;
nodes = (
"80 0 LINE",
"180 0 LINE",
"180 400 LINE",
"80 400 LINE"
);
},
{
closed = 1;
nodes = (
"530 600 LINE",
"505 700 LINE",
"80 700 LINE",
"80 600 LINE"
);
},
{
closed = 1;
nodes = (
"530 0 LINE",
"530 100 LINE",
"80 100 LINE",
"80 0 LINE"
);
},
{
closed = 1;
nodes = (
"430 300 LINE",
"430 400 LINE",
"80 400 LINE",
"80 300 LINE"
);
},
{
closed = 1;
nodes = (
"246.8 815 OFFCURVE",
"226.6 806.6 OFFCURVE",
"210.6 790.6 CURVE SMOOTH",
"135 715 LINE",
"235 715 LINE",
"300 780 LINE",
"365 715 LINE",
"465 715 LINE",
"389.4 790.6 LINE SMOOTH",
"373.4 806.6 OFFCURVE",
"353.2 815 OFFCURVE",
"330.5 815 CURVE SMOOTH",
"269.5 815 LINE SMOOTH"
);
}
);
width = 610;
}
);
leftMetricsKey = H;
rightMetricsKey = H;
unicode = 00EA;
},
{
glyphname = edieresis;
lastChange = "2024-03-14 09:07:59 +0000";
layers = (
{
layerId = "B204ABCD-8C29-4F1E-81B1-484861BEFD63";
paths = (
{
closed = 1;
nodes = (
"80 0 LINE",
"180 0 LINE",
"180 400 LINE",
"80 400 LINE"
);
},
{
closed = 1;
nodes = (
"530 600 LINE",
"505 700 LINE",
"80 700 LINE",
"80 600 LINE"
);
},
{
closed = 1;
nodes = (
"530 0 LINE",
"530 100 LINE",
"80 100 LINE",
"80 0 LINE"
);
},
{
closed = 1;
nodes = (
"430 300 LINE",
"430 400 LINE",
"80 400 LINE",
"80 300 LINE"
);
},
{
closed = 1;
nodes = (
"150 745.6 LINE",
"150 727.9 OFFCURVE",
"162.9 715 OFFCURVE",
"180.6 715 CURVE",
"219.4 715 LINE",
"237.1 715 OFFCURVE",
"250 727.9 OFFCURVE",
"250 745.6 CURVE",
"250 784.4 LINE",
"250 802.1 OFFCURVE",
"237.1 815 OFFCURVE",
"219.4 815 CURVE",
"180.6 815 LINE",
"162.9 815 OFFCURVE",
"150 802.1 OFFCURVE",
"150 784.4 CURVE"
);
},
{
closed = 1;
nodes = (
"350 745.6 LINE",
"350 727.9 OFFCURVE",
"362.9 715 OFFCURVE",
"380.6 715 CURVE",
"419.4 715 LINE",
"437.1 715 OFFCURVE",
"450 727.9 OFFCURVE",
"450 745.6 CURVE",
"450 784.4 LINE",
"450 802.1 OFFCURVE",
"437.1 815 OFFCURVE",
"419.4 815 CURVE",
"380.6 815 LINE",
"362.9 815 OFFCURVE",
"350 802.1 OFFCURVE",
"350 784.4 CURVE"
);
}
);
width = 610;
}
);
leftMetricsKey = H;
rightMetricsKey = H;
unicode = 00EB;
},
{
glyphname = igrave;
lastChange = "2024-03-15 09:47:49 +0000";
layers = (
{
layerId = "B204ABCD-8C29-4F1E-81B1-484861BEFD63";
paths = (
{
closed = 1;
nodes = (
"125 0 LINE",
"225 0 LINE",
"225 700 LINE",
"125 700 LINE"
);
},
{
closed = 1;
nodes = (
"40 850 LINE",
"125 700 LINE",
"175 700 LINE",
"140 850 LINE"
);
}
);
width = 305;
}
);
rightMetricsKey = H;
unicode = 00EC;
},
{
glyphname = iacute;
lastChange = "2024-03-15 09:46:33 +0000";
layers = (
{
layerId = "B204ABCD-8C29-4F1E-81B1-484861BEFD63";
paths = (
{
closed = 1;
nodes = (
"80 0 LINE",
"180 0 LINE",
"180 700 LINE",
"80 700 LINE"
);
},
{
closed = 1;
nodes = (
"130 700 LINE",
"180 700 LINE",
"265 850 LINE",
"165 850 LINE"
);
}
);
width = 305;
}
);
leftMetricsKey = H;
unicode = 00ED;
},
{
glyphname = icircumflex;
lastChange = "2024-03-15 09:47:03 +0000";
layers = (
{
layerId = "B204ABCD-8C29-4F1E-81B1-484861BEFD63";
paths = (
{
closed = 1;
nodes = (
"155 0 LINE",
"255 0 LINE",
"255 700 LINE",
"155 700 LINE"
);
},
{
closed = 1;
nodes = (
"151.8 815 OFFCURVE",
"131.6 806.6 OFFCURVE",
"115.6 790.6 CURVE SMOOTH",
"40 715 LINE",
"140 715 LINE",
"205 780 LINE",
"270 715 LINE",
"370 715 LINE",
"294.4 790.6 LINE SMOOTH",
"278.4 806.6 OFFCURVE",
"258.2 815 OFFCURVE",
"235.5 815 CURVE SMOOTH",
"174.5 815 LINE SMOOTH"
);
}
);
width = 410;
}
);
unicode = 00EE;
},
{
glyphname = idieresis;
lastChange = "2024-03-15 09:47:26 +0000";
layers = (
{
layerId = "B204ABCD-8C29-4F1E-81B1-484861BEFD63";
paths = (
{
closed = 1;
nodes = (
"140 0 LINE",
"240 0 LINE",
"240 700 LINE",
"140 700 LINE"
);
},
{
closed = 1;
nodes = (
"40 745.6 LINE",
"40 727.9 OFFCURVE",
"52.9 715 OFFCURVE",
"70.6 715 CURVE",
"109.4 715 LINE",
"127.1 715 OFFCURVE",
"140 727.9 OFFCURVE",
"140 745.6 CURVE",
"140 784.4 LINE",
"140 802.1 OFFCURVE",
"127.1 815 OFFCURVE",
"109.4 815 CURVE",
"70.6 815 LINE",
"52.9 815 OFFCURVE",
"40 802.1 OFFCURVE",
"40 784.4 CURVE"
);
},
{
closed = 1;
nodes = (
"240 745.6 LINE",
"240 727.9 OFFCURVE",
"252.9 715 OFFCURVE",
"270.6 715 CURVE",
"309.4 715 LINE",
"327.1 715 OFFCURVE",
"340 727.9 OFFCURVE",
"340 745.6 CURVE",
"340 784.4 LINE",
"340 802.1 OFFCURVE",
"327.1 815 OFFCURVE",
"309.4 815 CURVE",
"270.6 815 LINE",
"252.9 815 OFFCURVE",
"240 802.1 OFFCURVE",
"240 784.4 CURVE"
);
}
);
width = 380;
}
);
unicode = 00EF;
},
{
glyphname = ntilde;
lastChange = "2024-03-14 09:06:52 +0000";
layers = (
{
layerId = "B204ABCD-8C29-4F1E-81B1-484861BEFD63";
paths = (
{
closed = 1;
nodes = (
"474 600 OFFCURVE",
"530 544 OFFCURVE",
"530 475 CURVE",
"630 475 LINE",
"630 599.3 OFFCURVE",
"529.3 700 OFFCURVE",
"405 700 CURVE",
"405 600 LINE"
);
},
{
closed = 1;
nodes = (
"530 0 LINE",
"630 0 LINE",
"630 475 LINE",
"530 475 LINE"
);
},
{
closed = 1;
nodes = (
"405 600 LINE",
"405 700 LINE",
"105 700 LINE",
"80 600 LINE"
);
},
{
closed = 1;
nodes = (
"80 0 LINE",
"180 0 LINE",
"180 550 LINE",
"80 550 LINE"
);
},
{
closed = 1;
nodes = (
"270.4 700 OFFCURVE",
"333.6 700 OFFCURVE",
"372.7 739 CURVE SMOOTH",
"392.2 758.5 OFFCURVE",
"423.9 758.5 OFFCURVE",
"443.4 739 CURVE SMOOTH",
"449.8 732.5 OFFCURVE",
"454.2 724.7 OFFCURVE",
"456.3 716.4 CURVE",
"507.2 716.4 LINE",
"504.5 737.6 OFFCURVE",
"495.1 758.1 OFFCURVE",
"478.8 774.4 CURVE SMOOTH",
"439.6 813.4 OFFCURVE",
"376.4 813.4 OFFCURVE",
"337.3 774.4 CURVE SMOOTH",
"317.8 754.9 OFFCURVE",
"286.1 754.9 OFFCURVE",
"266.6 774.4 CURVE SMOOTH",
"260.2 780.9 OFFCURVE",
"255.8 788.7 OFFCURVE",
"253.7 797 CURVE",
"202.8 797 LINE",
"205.5 775.8 OFFCURVE",
"214.9 755.3 OFFCURVE",
"231.2 739 CURVE SMOOTH"
);
}
);
width = 710;
}
);
leftMetricsKey = H;
rightMetricsKey = H;
unicode = 00F1;
},
{
glyphname = ograve;
lastChange = "2024-03-14 17:26:22 +0000";
layers = (
{
layerId = "B204ABCD-8C29-4F1E-81B1-484861BEFD63";
paths = (
{
closed = 1;
nodes = (
"40 156.7 OFFCURVE",
"196.7 0 OFFCURVE",
"390 0 CURVE SMOOTH",
"583.3 0 OFFCURVE",
"740 156.7 OFFCURVE",
"740 350 CURVE SMOOTH",
"740 543.3 OFFCURVE",
"583.3 700 OFFCURVE",
"390 700 CURVE SMOOTH",
"196.7 700 OFFCURVE",
"40 543.3 OFFCURVE",
"40 350 CURVE SMOOTH"
);
},
{
closed = 1;
nodes = (
"140 488.1 OFFCURVE",
"251.9 600 OFFCURVE",
"390 600 CURVE SMOOTH",
"528.1 600 OFFCURVE",
"640 488.1 OFFCURVE",
"640 350 CURVE SMOOTH",
"640 211.9 OFFCURVE",
"528.1 100 OFFCURVE",
"390 100 CURVE SMOOTH",
"251.9 100 OFFCURVE",
"140 211.9 OFFCURVE",
"140 350 CURVE SMOOTH"
);
},
{
closed = 1;
nodes = (
"255 850 LINE",
"340 700 LINE",
"390 700 LINE",
"355 850 LINE"
);
}
);
width = 780;
}
);
leftKerningGroup = O;
leftMetricsKey = O;
rightKerningGroup = O;
rightMetricsKey = O;
unicode = 00F2;
},
{
glyphname = oacute;
lastChange = "2024-03-14 17:26:22 +0000";
layers = (
{
layerId = "B204ABCD-8C29-4F1E-81B1-484861BEFD63";
paths = (
{
closed = 1;
nodes = (
"40 156.7 OFFCURVE",
"196.7 0 OFFCURVE",
"390 0 CURVE SMOOTH",
"583.3 0 OFFCURVE",
"740 156.7 OFFCURVE",
"740 350 CURVE SMOOTH",
"740 543.3 OFFCURVE",
"583.3 700 OFFCURVE",
"390 700 CURVE SMOOTH",
"196.7 700 OFFCURVE",
"40 543.3 OFFCURVE",
"40 350 CURVE SMOOTH"
);
},
{
closed = 1;
nodes = (
"140 488.1 OFFCURVE",
"251.9 600 OFFCURVE",
"390 600 CURVE SMOOTH",
"528.1 600 OFFCURVE",
"640 488.1 OFFCURVE",
"640 350 CURVE SMOOTH",
"640 211.9 OFFCURVE",
"528.1 100 OFFCURVE",
"390 100 CURVE SMOOTH",
"251.9 100 OFFCURVE",
"140 211.9 OFFCURVE",
"140 350 CURVE SMOOTH"
);
},
{
closed = 1;
nodes = (
"390 700 LINE",
"440 700 LINE",
"525 850 LINE",
"425 850 LINE"
);
}
);
width = 780;
}
);
leftKerningGroup = O;
leftMetricsKey = O;
rightKerningGroup = O;
rightMetricsKey = O;
unicode = 00F3;
},
{
glyphname = ocircumflex;
lastChange = "2024-03-14 17:26:22 +0000";
layers = (
{
layerId = "B204ABCD-8C29-4F1E-81B1-484861BEFD63";
paths = (
{
closed = 1;
nodes = (
"40 156.7 OFFCURVE",
"196.7 0 OFFCURVE",
"390 0 CURVE SMOOTH",
"583.3 0 OFFCURVE",
"740 156.7 OFFCURVE",
"740 350 CURVE SMOOTH",
"740 543.3 OFFCURVE",
"583.3 700 OFFCURVE",
"390 700 CURVE SMOOTH",
"196.7 700 OFFCURVE",
"40 543.3 OFFCURVE",
"40 350 CURVE SMOOTH"
);
},
{
closed = 1;
nodes = (
"140 488.1 OFFCURVE",
"251.9 600 OFFCURVE",
"390 600 CURVE SMOOTH",
"528.1 600 OFFCURVE",
"640 488.1 OFFCURVE",
"640 350 CURVE SMOOTH",
"640 211.9 OFFCURVE",
"528.1 100 OFFCURVE",
"390 100 CURVE SMOOTH",
"251.9 100 OFFCURVE",
"140 211.9 OFFCURVE",
"140 350 CURVE SMOOTH"
);
},
{
closed = 1;
nodes = (
"336.8 800 OFFCURVE",
"316.6 791.6 OFFCURVE",
"300.6 775.6 CURVE SMOOTH",
"225 700 LINE",
"325 700 LINE",
"390 765 LINE",
"455 700 LINE",
"555 700 LINE",
"479.4 775.6 LINE SMOOTH",
"463.4 791.6 OFFCURVE",
"443.2 800 OFFCURVE",
"420.5 800 CURVE SMOOTH",
"359.5 800 LINE SMOOTH"
);
}
);
width = 780;
}
);
leftKerningGroup = O;
leftMetricsKey = O;
rightKerningGroup = O;
rightMetricsKey = O;
unicode = 00F4;
},
{
glyphname = otilde;
lastChange = "2024-03-14 17:26:22 +0000";
layers = (
{
layerId = "B204ABCD-8C29-4F1E-81B1-484861BEFD63";
paths = (
{
closed = 1;
nodes = (
"40 156.7 OFFCURVE",
"196.7 0 OFFCURVE",
"390 0 CURVE SMOOTH",
"583.3 0 OFFCURVE",
"740 156.7 OFFCURVE",
"740 350 CURVE SMOOTH",
"740 543.3 OFFCURVE",
"583.3 700 OFFCURVE",
"390 700 CURVE SMOOTH",
"196.7 700 OFFCURVE",
"40 543.3 OFFCURVE",
"40 350 CURVE SMOOTH"
);
},
{
closed = 1;
nodes = (
"140 488.1 OFFCURVE",
"251.9 600 OFFCURVE",
"390 600 CURVE SMOOTH",
"528.1 600 OFFCURVE",
"640 488.1 OFFCURVE",
"640 350 CURVE SMOOTH",
"640 211.9 OFFCURVE",
"528.1 100 OFFCURVE",
"390 100 CURVE SMOOTH",
"251.9 100 OFFCURVE",
"140 211.9 OFFCURVE",
"140 350 CURVE SMOOTH"
);
},
{
closed = 1;
nodes = (
"305.4 700 OFFCURVE",
"368.6 700 OFFCURVE",
"407.7 739 CURVE SMOOTH",
"427.2 758.5 OFFCURVE",
"458.9 758.5 OFFCURVE",
"478.4 739 CURVE SMOOTH",
"484.8 732.5 OFFCURVE",
"489.2 724.7 OFFCURVE",
"491.3 716.4 CURVE",
"542.2 716.4 LINE",
"539.5 737.6 OFFCURVE",
"530.1 758.1 OFFCURVE",
"513.8 774.4 CURVE SMOOTH",
"474.6 813.4 OFFCURVE",
"411.4 813.4 OFFCURVE",
"372.3 774.4 CURVE SMOOTH",
"352.8 754.9 OFFCURVE",
"321.1 754.9 OFFCURVE",
"301.6 774.4 CURVE SMOOTH",
"295.2 780.9 OFFCURVE",
"290.8 788.7 OFFCURVE",
"288.7 797 CURVE",
"237.8 797 LINE",
"240.5 775.8 OFFCURVE",
"249.9 755.3 OFFCURVE",
"266.2 739 CURVE SMOOTH"
);
}
);
width = 780;
}
);
leftKerningGroup = O;
leftMetricsKey = O;
rightKerningGroup = O;
rightMetricsKey = O;
unicode = 00F5;
},
{
glyphname = odieresis;
lastChange = "2024-03-14 17:26:22 +0000";
layers = (
{
layerId = "B204ABCD-8C29-4F1E-81B1-484861BEFD63";
paths = (
{
closed = 1;
nodes = (
"40 156.7 OFFCURVE",
"196.7 0 OFFCURVE",
"390 0 CURVE SMOOTH",
"583.3 0 OFFCURVE",
"740 156.7 OFFCURVE",
"740 350 CURVE SMOOTH",
"740 543.3 OFFCURVE",
"583.3 700 OFFCURVE",
"390 700 CURVE SMOOTH",
"196.7 700 OFFCURVE",
"40 543.3 OFFCURVE",
"40 350 CURVE SMOOTH"
);
},
{
closed = 1;
nodes = (
"140 488.1 OFFCURVE",
"251.9 600 OFFCURVE",
"390 600 CURVE SMOOTH",
"528.1 600 OFFCURVE",
"640 488.1 OFFCURVE",
"640 350 CURVE SMOOTH",
"640 211.9 OFFCURVE",
"528.1 100 OFFCURVE",
"390 100 CURVE SMOOTH",
"251.9 100 OFFCURVE",
"140 211.9 OFFCURVE",
"140 350 CURVE SMOOTH"
);
},
{
closed = 1;
nodes = (
"240 745.6 LINE",
"240 727.9 OFFCURVE",
"252.9 715 OFFCURVE",
"270.6 715 CURVE",
"309.4 715 LINE",
"327.1 715 OFFCURVE",
"340 727.9 OFFCURVE",
"340 745.6 CURVE",
"340 784.4 LINE",
"340 802.1 OFFCURVE",
"327.1 815 OFFCURVE",
"309.4 815 CURVE",
"270.6 815 LINE",
"252.9 815 OFFCURVE",
"240 802.1 OFFCURVE",
"240 784.4 CURVE"
);
},
{
closed = 1;
nodes = (
"440 745.6 LINE",
"440 727.9 OFFCURVE",
"452.9 715 OFFCURVE",
"470.6 715 CURVE",
"509.4 715 LINE",
"527.1 715 OFFCURVE",
"540 727.9 OFFCURVE",
"540 745.6 CURVE",
"540 784.4 LINE",
"540 802.1 OFFCURVE",
"527.1 815 OFFCURVE",
"509.4 815 CURVE",
"470.6 815 LINE",
"452.9 815 OFFCURVE",
"440 802.1 OFFCURVE",
"440 784.4 CURVE"
);
}
);
width = 780;
}
);
leftKerningGroup = O;
leftMetricsKey = O;
rightKerningGroup = O;
rightMetricsKey = O;
unicode = 00F6;
},
{
glyphname = divide;
lastChange = "2024-03-19 11:31:54 +0000";
layers = (
{
layerId = "B204ABCD-8C29-4F1E-81B1-484861BEFD63";
paths = (
{
closed = 1;
nodes = (
"480 300 LINE",
"480 400 LINE",
"80 400 LINE",
"80 300 LINE"
);
},
{
closed = 1;
nodes = (
"230 472.4 OFFCURVE",
"252.4 450 OFFCURVE",
"280 450 CURVE SMOOTH",
"307.6 450 OFFCURVE",
"330 472.4 OFFCURVE",
"330 500 CURVE SMOOTH",
"330 527.6 OFFCURVE",
"307.6 550 OFFCURVE",
"280 550 CURVE SMOOTH",
"252.4 550 OFFCURVE",
"230 527.6 OFFCURVE",
"230 500 CURVE SMOOTH"
);
},
{
closed = 1;
nodes = (
"230 172.4 OFFCURVE",
"252.4 150 OFFCURVE",
"280 150 CURVE SMOOTH",
"307.6 150 OFFCURVE",
"330 172.4 OFFCURVE",
"330 200 CURVE SMOOTH",
"330 227.6 OFFCURVE",
"307.6 250 OFFCURVE",
"280 250 CURVE SMOOTH",
"252.4 250 OFFCURVE",
"230 227.6 OFFCURVE",
"230 200 CURVE SMOOTH"
);
}
);
width = 560;
}
);
leftMetricsKey = H;
rightMetricsKey = H;
unicode = 00F7;
},
{
glyphname = oslash;
lastChange = "2024-03-14 17:26:22 +0000";
layers = (
{
layerId = "B204ABCD-8C29-4F1E-81B1-484861BEFD63";
paths = (
{
closed = 1;
nodes = (
"40 156.7 OFFCURVE",
"196.7 0 OFFCURVE",
"390 0 CURVE SMOOTH",
"583.3 0 OFFCURVE",
"740 156.7 OFFCURVE",
"740 350 CURVE SMOOTH",
"740 543.3 OFFCURVE",
"583.3 700 OFFCURVE",
"390 700 CURVE SMOOTH",
"196.7 700 OFFCURVE",
"40 543.3 OFFCURVE",
"40 350 CURVE SMOOTH"
);
},
{
closed = 1;
nodes = (
"140 488.1 OFFCURVE",
"251.9 600 OFFCURVE",
"390 600 CURVE SMOOTH",
"528.1 600 OFFCURVE",
"640 488.1 OFFCURVE",
"640 350 CURVE SMOOTH",
"640 211.9 OFFCURVE",
"528.1 100 OFFCURVE",
"390 100 CURVE SMOOTH",
"251.9 100 OFFCURVE",
"140 211.9 OFFCURVE",
"140 350 CURVE SMOOTH"
);
},
{
closed = 1;
nodes = (
"225.5 0 LINE",
"658 700 LINE",
"554.5 700 LINE",
"122 0 LINE"
);
}
);
width = 780;
}
);
leftKerningGroup = O;
leftMetricsKey = O;
rightKerningGroup = O;
rightMetricsKey = O;
unicode = 00F8;
},
{
glyphname = ugrave;
lastChange = "2024-03-13 07:22:35 +0000";
layers = (
{
layerId = "B204ABCD-8C29-4F1E-81B1-484861BEFD63";
paths = (
{
closed = 1;
nodes = (
"405 0 LINE",
"529.3 0 OFFCURVE",
"630 100.7 OFFCURVE",
"630 225 CURVE",
"530 225 LINE",
"530 156 OFFCURVE",
"474 100 OFFCURVE",
"405 100 CURVE"
);
},
{
closed = 1;
nodes = (
"630 225 LINE",
"630 700 LINE",
"530 700 LINE",
"530 225 LINE"
);
},
{
closed = 1;
nodes = (
"105 0 LINE",
"405 0 LINE",
"405 100 LINE",
"80 100 LINE"
);
},
{
closed = 1;
nodes = (
"180 150 LINE",
"180 700 LINE",
"80 700 LINE",
"80 150 LINE"
);
},
{
closed = 1;
nodes = (
"220 850 LINE",
"305 700 LINE",
"355 700 LINE",
"320 850 LINE"
);
}
);
width = 710;
}
);
leftMetricsKey = H;
rightMetricsKey = H;
unicode = 00F9;
},
{
glyphname = uacute;
lastChange = "2024-03-14 08:57:30 +0000";
layers = (
{
layerId = "B204ABCD-8C29-4F1E-81B1-484861BEFD63";
paths = (
{
closed = 1;
nodes = (
"405 0 LINE",
"529.3 0 OFFCURVE",
"630 100.7 OFFCURVE",
"630 225 CURVE",
"530 225 LINE",
"530 156 OFFCURVE",
"474 100 OFFCURVE",
"405 100 CURVE"
);
},
{
closed = 1;
nodes = (
"630 225 LINE",
"630 700 LINE",
"530 700 LINE",
"530 225 LINE"
);
},
{
closed = 1;
nodes = (
"105 0 LINE",
"405 0 LINE",
"405 100 LINE",
"80 100 LINE"
);
},
{
closed = 1;
nodes = (
"180 150 LINE",
"180 700 LINE",
"80 700 LINE",
"80 150 LINE"
);
},
{
closed = 1;
nodes = (
"300 700 LINE",
"350 700 LINE",
"435 850 LINE",
"335 850 LINE"
);
}
);
width = 710;
}
);
leftMetricsKey = H;
rightMetricsKey = H;
unicode = 00FA;
},
{
glyphname = ucircumflex;
lastChange = "2024-03-13 07:21:30 +0000";
layers = (
{
layerId = "B204ABCD-8C29-4F1E-81B1-484861BEFD63";
paths = (
{
closed = 1;
nodes = (
"405 0 LINE",
"529.3 0 OFFCURVE",
"630 100.7 OFFCURVE",
"630 225 CURVE",
"530 225 LINE",
"530 156 OFFCURVE",
"474 100 OFFCURVE",
"405 100 CURVE"
);
},
{
closed = 1;
nodes = (
"630 225 LINE",
"630 700 LINE",
"530 700 LINE",
"530 225 LINE"
);
},
{
closed = 1;
nodes = (
"105 0 LINE",
"405 0 LINE",
"405 100 LINE",
"80 100 LINE"
);
},
{
closed = 1;
nodes = (
"180 150 LINE",
"180 700 LINE",
"80 700 LINE",
"80 150 LINE"
);
},
{
closed = 1;
nodes = (
"301.8 815 OFFCURVE",
"281.6 806.6 OFFCURVE",
"265.6 790.6 CURVE SMOOTH",
"190 715 LINE",
"290 715 LINE",
"355 780 LINE",
"420 715 LINE",
"520 715 LINE",
"444.4 790.6 LINE SMOOTH",
"428.4 806.6 OFFCURVE",
"408.2 815 OFFCURVE",
"385.5 815 CURVE SMOOTH",
"324.5 815 LINE SMOOTH"
);
}
);
width = 710;
}
);
leftMetricsKey = H;
rightMetricsKey = H;
unicode = 00FB;
},
{
glyphname = udieresis;
lastChange = "2024-03-14 08:58:01 +0000";
layers = (
{
layerId = "B204ABCD-8C29-4F1E-81B1-484861BEFD63";
paths = (
{
closed = 1;
nodes = (
"405 0 LINE",
"529.3 0 OFFCURVE",
"630 100.7 OFFCURVE",
"630 225 CURVE",
"530 225 LINE",
"530 156 OFFCURVE",
"474 100 OFFCURVE",
"405 100 CURVE"
);
},
{
closed = 1;
nodes = (
"630 225 LINE",
"630 700 LINE",
"530 700 LINE",
"530 225 LINE"
);
},
{
closed = 1;
nodes = (
"105 0 LINE",
"405 0 LINE",
"405 100 LINE",
"80 100 LINE"
);
},
{
closed = 1;
nodes = (
"180 150 LINE",
"180 700 LINE",
"80 700 LINE",
"80 150 LINE"
);
},
{
closed = 1;
nodes = (
"205 745.6 LINE",
"205 727.9 OFFCURVE",
"217.9 715 OFFCURVE",
"235.6 715 CURVE",
"274.4 715 LINE",
"292.1 715 OFFCURVE",
"305 727.9 OFFCURVE",
"305 745.6 CURVE",
"305 784.4 LINE",
"305 802.1 OFFCURVE",
"292.1 815 OFFCURVE",
"274.4 815 CURVE",
"235.6 815 LINE",
"217.9 815 OFFCURVE",
"205 802.1 OFFCURVE",
"205 784.4 CURVE"
);
},
{
closed = 1;
nodes = (
"405 745.6 LINE",
"405 727.9 OFFCURVE",
"417.9 715 OFFCURVE",
"435.6 715 CURVE",
"474.4 715 LINE",
"492.1 715 OFFCURVE",
"505 727.9 OFFCURVE",
"505 745.6 CURVE",
"505 784.4 LINE",
"505 802.1 OFFCURVE",
"492.1 815 OFFCURVE",
"474.4 815 CURVE",
"435.6 815 LINE",
"417.9 815 OFFCURVE",
"405 802.1 OFFCURVE",
"405 784.4 CURVE"
);
}
);
width = 710;
}
);
leftMetricsKey = H;
rightMetricsKey = H;
unicode = 00FC;
},
{
glyphname = yacute;
lastChange = "2024-03-14 17:39:27 +0000";
layers = (
{
layerId = "B204ABCD-8C29-4F1E-81B1-484861BEFD63";
paths = (
{
closed = 1;
nodes = (
"235 369.8 OFFCURVE",
"279.7 325 OFFCURVE",
"335 325 CURVE SMOOTH",
"390.2 325 OFFCURVE",
"435 369.8 OFFCURVE",
"435 425 CURVE",
"235 425 LINE"
);
},
{
closed = 1;
nodes = (
"650 700.3 LINE",
"527.8 700.3 LINE",
"335 425 LINE",
"417 367.5 LINE"
);
},
{
closed = 1;
nodes = (
"335 425 LINE",
"142.2 700.3 LINE",
"20 700.3 LINE",
"253 367.5 LINE"
);
},
{
closed = 1;
nodes = (
"285 0 LINE",
"385 0 LINE",
"385 275 LINE",
"285 275 LINE"
);
},
{
closed = 1;
nodes = (
"300 700 LINE",
"350 700 LINE",
"435 850 LINE",
"335 850 LINE"
);
}
);
width = 670;
}
);
leftKerningGroup = Y;
leftMetricsKey = Y;
rightKerningGroup = Y;
rightMetricsKey = Y;
unicode = 00FD;
},
{
glyphname = ydieresis;
lastChange = "2024-03-14 17:39:27 +0000";
layers = (
{
layerId = "B204ABCD-8C29-4F1E-81B1-484861BEFD63";
paths = (
{
closed = 1;
nodes = (
"235 369.8 OFFCURVE",
"279.7 325 OFFCURVE",
"335 325 CURVE SMOOTH",
"390.2 325 OFFCURVE",
"435 369.8 OFFCURVE",
"435 425 CURVE",
"235 425 LINE"
);
},
{
closed = 1;
nodes = (
"650 700.3 LINE",
"527.8 700.3 LINE",
"335 425 LINE",
"417 367.5 LINE"
);
},
{
closed = 1;
nodes = (
"335 425 LINE",
"142.2 700.3 LINE",
"20 700.3 LINE",
"253 367.5 LINE"
);
},
{
closed = 1;
nodes = (
"285 0 LINE",
"385 0 LINE",
"385 275 LINE",
"285 275 LINE"
);
},
{
closed = 1;
nodes = (
"185 745.6 LINE",
"185 727.9 OFFCURVE",
"197.9 715 OFFCURVE",
"215.6 715 CURVE",
"254.4 715 LINE",
"272.1 715 OFFCURVE",
"285 727.9 OFFCURVE",
"285 745.6 CURVE",
"285 784.4 LINE",
"285 802.1 OFFCURVE",
"272.1 815 OFFCURVE",
"254.4 815 CURVE",
"215.6 815 LINE",
"197.9 815 OFFCURVE",
"185 802.1 OFFCURVE",
"185 784.4 CURVE"
);
},
{
closed = 1;
nodes = (
"385 745.6 LINE",
"385 727.9 OFFCURVE",
"397.9 715 OFFCURVE",
"415.6 715 CURVE",
"454.4 715 LINE",
"472.1 715 OFFCURVE",
"485 727.9 OFFCURVE",
"485 745.6 CURVE",
"485 784.4 LINE",
"485 802.1 OFFCURVE",
"472.1 815 OFFCURVE",
"454.4 815 CURVE",
"415.6 815 LINE",
"397.9 815 OFFCURVE",
"385 802.1 OFFCURVE",
"385 784.4 CURVE"
);
}
);
width = 670;
}
);
leftKerningGroup = Y;
leftMetricsKey = Y;
rightKerningGroup = Y;
rightMetricsKey = Y;
unicode = 00FF;
},
{
export = 0;
glyphname = Eth;
lastChange = "2024-03-18 18:02:25 +0000";
layers = (
{
layerId = "B204ABCD-8C29-4F1E-81B1-484861BEFD63";
paths = (
{
closed = 1;
nodes = (
"483.3 0 OFFCURVE",
"640 156.7 OFFCURVE",
"640 350 CURVE SMOOTH",
"640 543.3 OFFCURVE",
"483.3 700 OFFCURVE",
"290 700 CURVE",
"290 600 LINE",
"428.1 600 OFFCURVE",
"540 488.1 OFFCURVE",
"540 350 CURVE SMOOTH",
"540 211.9 OFFCURVE",
"428.1 100 OFFCURVE",
"290 100 CURVE",
"290 0 LINE"
);
},
{
closed = 1;
nodes = (
"90 600 LINE",
"290 600 LINE",
"290 700 LINE",
"115 700 LINE"
);
},
{
closed = 1;
nodes = (
"90 0 LINE",
"290 0 LINE",
"290 100 LINE",
"90 100 LINE"
);
},
{
closed = 1;
nodes = (
"190 0 LINE",
"190 550 LINE",
"90 550 LINE",
"90 0 LINE"
);
},
{
closed = 1;
nodes = (
"40 300 LINE",
"340 300 LINE",
"340 400 LINE",
"40 400 LINE"
);
}
);
width = 680;
}
);
leftMetricsKey = O;
rightMetricsKey = O;
unicode = 00D0;
},
{
export = 0;
glyphname = Thorn;
lastChange = "2024-03-18 18:03:37 +0000";
layers = (
{
layerId = "B204ABCD-8C29-4F1E-81B1-484861BEFD63";
paths = (
{
closed = 1;
nodes = (
"429.3 125 OFFCURVE",
"530 225.7 OFFCURVE",
"530 350 CURVE SMOOTH",
"530 474.3 OFFCURVE",
"429.3 575 OFFCURVE",
"305 575 CURVE SMOOTH",
"180 575 LINE",
"180 700 LINE",
"80 700 LINE",
"80 0 LINE",
"180 0 LINE",
"180 125 LINE",
"305 125 LINE SMOOTH"
);
},
{
closed = 1;
nodes = (
"180 475 LINE",
"305 475 LINE SMOOTH",
"374 475 OFFCURVE",
"430 419 OFFCURVE",
"430 350 CURVE SMOOTH",
"430 281 OFFCURVE",
"374 225 OFFCURVE",
"305 225 CURVE SMOOTH",
"180 225 LINE"
);
}
);
width = 570;
}
);
leftMetricsKey = H;
rightMetricsKey = O;
unicode = 00DE;
},
{
export = 0;
glyphname = Wacute;
lastChange = "2024-03-18 18:07:44 +0000";
layers = (
{
layerId = "B204ABCD-8C29-4F1E-81B1-484861BEFD63";
paths = (
{
closed = 1;
nodes = (
"325 0 LINE",
"449.3 0 OFFCURVE",
"550 100.7 OFFCURVE",
"550 225 CURVE",
"450 225 LINE",
"450 156 OFFCURVE",
"394 100 OFFCURVE",
"325 100 CURVE"
);
},
{
closed = 1;
nodes = (
"550 225 LINE",
"550 700 LINE",
"450 700 LINE",
"450 225 LINE"
);
},
{
closed = 1;
nodes = (
"105 0 LINE",
"325 0 LINE",
"325 100 LINE",
"80 100 LINE"
);
},
{
closed = 1;
nodes = (
"180 150 LINE",
"180 700 LINE",
"80 700 LINE",
"80 150 LINE"
);
},
{
closed = 1;
nodes = (
"695 0 LINE",
"819.3 0 OFFCURVE",
"920 100.7 OFFCURVE",
"920 225 CURVE",
"820 225 LINE",
"820 156 OFFCURVE",
"764 100 OFFCURVE",
"695 100 CURVE"
);
},
{
closed = 1;
nodes = (
"920 225 LINE",
"920 700 LINE",
"820 700 LINE",
"820 225 LINE"
);
},
{
closed = 1;
nodes = (
"570 0 LINE",
"695 0 LINE",
"695 100 LINE",
"545 100 LINE"
);
},
{
closed = 1;
nodes = (
"450 700 LINE",
"500 700 LINE",
"585 850 LINE",
"485 850 LINE"
);
}
);
width = 1000;
}
);
leftMetricsKey = H;
rightMetricsKey = H;
unicode = 1E82;
},
{
export = 0;
glyphname = Wcircumflex;
lastChange = "2024-03-18 18:06:34 +0000";
layers = (
{
layerId = "B204ABCD-8C29-4F1E-81B1-484861BEFD63";
paths = (
{
closed = 1;
nodes = (
"325 0 LINE",
"449.3 0 OFFCURVE",
"550 100.7 OFFCURVE",
"550 225 CURVE",
"450 225 LINE",
"450 156 OFFCURVE",
"394 100 OFFCURVE",
"325 100 CURVE"
);
},
{
closed = 1;
nodes = (
"550 225 LINE",
"550 700 LINE",
"450 700 LINE",
"450 225 LINE"
);
},
{
closed = 1;
nodes = (
"105 0 LINE",
"325 0 LINE",
"325 100 LINE",
"80 100 LINE"
);
},
{
closed = 1;
nodes = (
"180 150 LINE",
"180 700 LINE",
"80 700 LINE",
"80 150 LINE"
);
},
{
closed = 1;
nodes = (
"695 0 LINE",
"819.3 0 OFFCURVE",
"920 100.7 OFFCURVE",
"920 225 CURVE",
"820 225 LINE",
"820 156 OFFCURVE",
"764 100 OFFCURVE",
"695 100 CURVE"
);
},
{
closed = 1;
nodes = (
"920 225 LINE",
"920 700 LINE",
"820 700 LINE",
"820 225 LINE"
);
},
{
closed = 1;
nodes = (
"570 0 LINE",
"695 0 LINE",
"695 100 LINE",
"545 100 LINE"
);
},
{
closed = 1;
nodes = (
"446.8 815 OFFCURVE",
"426.6 806.6 OFFCURVE",
"410.6 790.6 CURVE SMOOTH",
"335 715 LINE",
"435 715 LINE",
"500 780 LINE",
"565 715 LINE",
"665 715 LINE",
"589.4 790.6 LINE SMOOTH",
"573.4 806.6 OFFCURVE",
"553.2 815 OFFCURVE",
"530.5 815 CURVE SMOOTH",
"469.5 815 LINE SMOOTH"
);
}
);
width = 1000;
}
);
leftMetricsKey = H;
rightMetricsKey = H;
unicode = 0174;
},
{
export = 0;
glyphname = Wdieresis;
lastChange = "2024-03-18 18:07:43 +0000";
layers = (
{
layerId = "B204ABCD-8C29-4F1E-81B1-484861BEFD63";
paths = (
{
closed = 1;
nodes = (
"325 0 LINE",
"449.3 0 OFFCURVE",
"550 100.7 OFFCURVE",
"550 225 CURVE",
"450 225 LINE",
"450 156 OFFCURVE",
"394 100 OFFCURVE",
"325 100 CURVE"
);
},
{
closed = 1;
nodes = (
"550 225 LINE",
"550 700 LINE",
"450 700 LINE",
"450 225 LINE"
);
},
{
closed = 1;
nodes = (
"105 0 LINE",
"325 0 LINE",
"325 100 LINE",
"80 100 LINE"
);
},
{
closed = 1;
nodes = (
"180 150 LINE",
"180 700 LINE",
"80 700 LINE",
"80 150 LINE"
);
},
{
closed = 1;
nodes = (
"695 0 LINE",
"819.3 0 OFFCURVE",
"920 100.7 OFFCURVE",
"920 225 CURVE",
"820 225 LINE",
"820 156 OFFCURVE",
"764 100 OFFCURVE",
"695 100 CURVE"
);
},
{
closed = 1;
nodes = (
"920 225 LINE",
"920 700 LINE",
"820 700 LINE",
"820 225 LINE"
);
},
{
closed = 1;
nodes = (
"570 0 LINE",
"695 0 LINE",
"695 100 LINE",
"545 100 LINE"
);
},
{
closed = 1;
nodes = (
"350 745.6 LINE",
"350 727.9 OFFCURVE",
"362.9 715 OFFCURVE",
"380.6 715 CURVE",
"419.4 715 LINE",
"437.1 715 OFFCURVE",
"450 727.9 OFFCURVE",
"450 745.6 CURVE",
"450 784.4 LINE",
"450 802.1 OFFCURVE",
"437.1 815 OFFCURVE",
"419.4 815 CURVE",
"380.6 815 LINE",
"362.9 815 OFFCURVE",
"350 802.1 OFFCURVE",
"350 784.4 CURVE"
);
},
{
closed = 1;
nodes = (
"550 745.6 LINE",
"550 727.9 OFFCURVE",
"562.9 715 OFFCURVE",
"580.6 715 CURVE",
"619.4 715 LINE",
"637.1 715 OFFCURVE",
"650 727.9 OFFCURVE",
"650 745.6 CURVE",
"650 784.4 LINE",
"650 802.1 OFFCURVE",
"637.1 815 OFFCURVE",
"619.4 815 CURVE",
"580.6 815 LINE",
"562.9 815 OFFCURVE",
"550 802.1 OFFCURVE",
"550 784.4 CURVE"
);
}
);
width = 1000;
}
);
leftMetricsKey = H;
rightMetricsKey = H;
unicode = 1E84;
},
{
export = 0;
glyphname = Wgrave;
lastChange = "2024-03-18 18:07:46 +0000";
layers = (
{
layerId = "B204ABCD-8C29-4F1E-81B1-484861BEFD63";
paths = (
{
closed = 1;
nodes = (
"325 0 LINE",
"449.3 0 OFFCURVE",
"550 100.7 OFFCURVE",
"550 225 CURVE",
"450 225 LINE",
"450 156 OFFCURVE",
"394 100 OFFCURVE",
"325 100 CURVE"
);
},
{
closed = 1;
nodes = (
"550 225 LINE",
"550 700 LINE",
"450 700 LINE",
"450 225 LINE"
);
},
{
closed = 1;
nodes = (
"105 0 LINE",
"325 0 LINE",
"325 100 LINE",
"80 100 LINE"
);
},
{
closed = 1;
nodes = (
"180 150 LINE",
"180 700 LINE",
"80 700 LINE",
"80 150 LINE"
);
},
{
closed = 1;
nodes = (
"695 0 LINE",
"819.3 0 OFFCURVE",
"920 100.7 OFFCURVE",
"920 225 CURVE",
"820 225 LINE",
"820 156 OFFCURVE",
"764 100 OFFCURVE",
"695 100 CURVE"
);
},
{
closed = 1;
nodes = (
"920 225 LINE",
"920 700 LINE",
"820 700 LINE",
"820 225 LINE"
);
},
{
closed = 1;
nodes = (
"570 0 LINE",
"695 0 LINE",
"695 100 LINE",
"545 100 LINE"
);
},
{
closed = 1;
nodes = (
"415 850 LINE",
"500 700 LINE",
"550 700 LINE",
"515 850 LINE"
);
}
);
width = 1000;
}
);
leftMetricsKey = H;
rightMetricsKey = H;
unicode = 1E80;
},
{
export = 0;
glyphname = Ycircumflex;
lastChange = "2024-03-18 18:06:25 +0000";
layers = (
{
layerId = "B204ABCD-8C29-4F1E-81B1-484861BEFD63";
paths = (
{
closed = 1;
nodes = (
"235 369.8 OFFCURVE",
"279.7 325 OFFCURVE",
"335 325 CURVE SMOOTH",
"390.2 325 OFFCURVE",
"435 369.8 OFFCURVE",
"435 425 CURVE",
"235 425 LINE"
);
},
{
closed = 1;
nodes = (
"650 700.3 LINE",
"527.8 700.3 LINE",
"335 425 LINE",
"417 367.5 LINE"
);
},
{
closed = 1;
nodes = (
"335 425 LINE",
"142.2 700.3 LINE",
"20 700.3 LINE",
"253 367.5 LINE"
);
},
{
closed = 1;
nodes = (
"285 0 LINE",
"385 0 LINE",
"385 275 LINE",
"285 275 LINE"
);
},
{
closed = 1;
nodes = (
"281.8 815 OFFCURVE",
"261.6 806.6 OFFCURVE",
"245.6 790.6 CURVE SMOOTH",
"170 715 LINE",
"270 715 LINE",
"335 780 LINE",
"400 715 LINE",
"500 715 LINE",
"424.4 790.6 LINE SMOOTH",
"408.4 806.6 OFFCURVE",
"388.2 815 OFFCURVE",
"365.5 815 CURVE SMOOTH",
"304.5 815 LINE SMOOTH"
);
}
);
width = 670;
}
);
leftKerningGroup = Y;
leftMetricsKey = Y;
rightKerningGroup = Y;
rightMetricsKey = Y;
unicode = 0176;
},
{
export = 0;
glyphname = Ygrave;
lastChange = "2024-03-18 18:07:42 +0000";
layers = (
{
layerId = "B204ABCD-8C29-4F1E-81B1-484861BEFD63";
paths = (
{
closed = 1;
nodes = (
"235 369.8 OFFCURVE",
"279.7 325 OFFCURVE",
"335 325 CURVE SMOOTH",
"390.2 325 OFFCURVE",
"435 369.8 OFFCURVE",
"435 425 CURVE",
"235 425 LINE"
);
},
{
closed = 1;
nodes = (
"650 700.3 LINE",
"527.8 700.3 LINE",
"335 425 LINE",
"417 367.5 LINE"
);
},
{
closed = 1;
nodes = (
"335 425 LINE",
"142.2 700.3 LINE",
"20 700.3 LINE",
"253 367.5 LINE"
);
},
{
closed = 1;
nodes = (
"285 0 LINE",
"385 0 LINE",
"385 275 LINE",
"285 275 LINE"
);
},
{
closed = 1;
nodes = (
"200 850 LINE",
"285 700 LINE",
"335 700 LINE",
"300 850 LINE"
);
}
);
width = 670;
}
);
leftKerningGroup = Y;
leftMetricsKey = Y;
rightKerningGroup = Y;
rightMetricsKey = Y;
unicode = 1EF2;
},
{
glyphname = idotless;
lastChange = "2024-03-14 09:55:54 +0000";
layers = (
{
layerId = "B204ABCD-8C29-4F1E-81B1-484861BEFD63";
paths = (
{
closed = 1;
nodes = (
"80 0 LINE",
"180 0 LINE",
"180 500 LINE",
"80 500 LINE"
);
}
);
width = 260;
}
);
leftMetricsKey = H;
rightMetricsKey = H;
unicode = 0131;
},
{
export = 0;
glyphname = eth;
lastChange = "2024-03-18 18:04:42 +0000";
layers = (
{
layerId = "B204ABCD-8C29-4F1E-81B1-484861BEFD63";
paths = (
{
closed = 1;
nodes = (
"483.3 0 OFFCURVE",
"640 156.7 OFFCURVE",
"640 350 CURVE SMOOTH",
"640 543.3 OFFCURVE",
"483.3 700 OFFCURVE",
"290 700 CURVE",
"290 600 LINE",
"428.1 600 OFFCURVE",
"540 488.1 OFFCURVE",
"540 350 CURVE SMOOTH",
"540 211.9 OFFCURVE",
"428.1 100 OFFCURVE",
"290 100 CURVE",
"290 0 LINE"
);
},
{
closed = 1;
nodes = (
"90 600 LINE",
"290 600 LINE",
"290 700 LINE",
"115 700 LINE"
);
},
{
closed = 1;
nodes = (
"90 0 LINE",
"290 0 LINE",
"290 100 LINE",
"90 100 LINE"
);
},
{
closed = 1;
nodes = (
"190 0 LINE",
"190 550 LINE",
"90 550 LINE",
"90 0 LINE"
);
},
{
closed = 1;
nodes = (
"40 300 LINE",
"340 300 LINE",
"340 400 LINE",
"40 400 LINE"
);
}
);
width = 680;
}
);
leftMetricsKey = O;
rightMetricsKey = O;
unicode = 00F0;
},
{
export = 0;
glyphname = thorn;
lastChange = "2024-03-18 18:05:39 +0000";
layers = (
{
layerId = "B204ABCD-8C29-4F1E-81B1-484861BEFD63";
paths = (
{
closed = 1;
nodes = (
"429.3 125 OFFCURVE",
"530 225.7 OFFCURVE",
"530 350 CURVE SMOOTH",
"530 474.3 OFFCURVE",
"429.3 575 OFFCURVE",
"305 575 CURVE SMOOTH",
"180 575 LINE",
"180 700 LINE",
"80 700 LINE",
"80 0 LINE",
"180 0 LINE",
"180 125 LINE",
"305 125 LINE SMOOTH"
);
},
{
closed = 1;
nodes = (
"180 475 LINE",
"305 475 LINE SMOOTH",
"374 475 OFFCURVE",
"430 419 OFFCURVE",
"430 350 CURVE SMOOTH",
"430 281 OFFCURVE",
"374 225 OFFCURVE",
"305 225 CURVE SMOOTH",
"180 225 LINE"
);
}
);
width = 570;
}
);
leftMetricsKey = H;
rightMetricsKey = O;
unicode = 00FE;
},
{
export = 0;
glyphname = wacute;
lastChange = "2024-03-18 18:07:44 +0000";
layers = (
{
layerId = "B204ABCD-8C29-4F1E-81B1-484861BEFD63";
paths = (
{
closed = 1;
nodes = (
"325 0 LINE",
"449.3 0 OFFCURVE",
"550 100.7 OFFCURVE",
"550 225 CURVE",
"450 225 LINE",
"450 156 OFFCURVE",
"394 100 OFFCURVE",
"325 100 CURVE"
);
},
{
closed = 1;
nodes = (
"550 225 LINE",
"550 700 LINE",
"450 700 LINE",
"450 225 LINE"
);
},
{
closed = 1;
nodes = (
"105 0 LINE",
"325 0 LINE",
"325 100 LINE",
"80 100 LINE"
);
},
{
closed = 1;
nodes = (
"180 150 LINE",
"180 700 LINE",
"80 700 LINE",
"80 150 LINE"
);
},
{
closed = 1;
nodes = (
"695 0 LINE",
"819.3 0 OFFCURVE",
"920 100.7 OFFCURVE",
"920 225 CURVE",
"820 225 LINE",
"820 156 OFFCURVE",
"764 100 OFFCURVE",
"695 100 CURVE"
);
},
{
closed = 1;
nodes = (
"920 225 LINE",
"920 700 LINE",
"820 700 LINE",
"820 225 LINE"
);
},
{
closed = 1;
nodes = (
"570 0 LINE",
"695 0 LINE",
"695 100 LINE",
"545 100 LINE"
);
},
{
closed = 1;
nodes = (
"450 700 LINE",
"500 700 LINE",
"585 850 LINE",
"485 850 LINE"
);
}
);
width = 1000;
}
);
leftMetricsKey = H;
rightMetricsKey = H;
unicode = 1E83;
},
{
export = 0;
glyphname = wcircumflex;
lastChange = "2024-03-18 18:06:25 +0000";
layers = (
{
layerId = "B204ABCD-8C29-4F1E-81B1-484861BEFD63";
paths = (
{
closed = 1;
nodes = (
"325 0 LINE",
"449.3 0 OFFCURVE",
"550 100.7 OFFCURVE",
"550 225 CURVE",
"450 225 LINE",
"450 156 OFFCURVE",
"394 100 OFFCURVE",
"325 100 CURVE"
);
},
{
closed = 1;
nodes = (
"550 225 LINE",
"550 700 LINE",
"450 700 LINE",
"450 225 LINE"
);
},
{
closed = 1;
nodes = (
"105 0 LINE",
"325 0 LINE",
"325 100 LINE",
"80 100 LINE"
);
},
{
closed = 1;
nodes = (
"180 150 LINE",
"180 700 LINE",
"80 700 LINE",
"80 150 LINE"
);
},
{
closed = 1;
nodes = (
"695 0 LINE",
"819.3 0 OFFCURVE",
"920 100.7 OFFCURVE",
"920 225 CURVE",
"820 225 LINE",
"820 156 OFFCURVE",
"764 100 OFFCURVE",
"695 100 CURVE"
);
},
{
closed = 1;
nodes = (
"920 225 LINE",
"920 700 LINE",
"820 700 LINE",
"820 225 LINE"
);
},
{
closed = 1;
nodes = (
"570 0 LINE",
"695 0 LINE",
"695 100 LINE",
"545 100 LINE"
);
},
{
closed = 1;
nodes = (
"446.8 815 OFFCURVE",
"426.6 806.6 OFFCURVE",
"410.6 790.6 CURVE SMOOTH",
"335 715 LINE",
"435 715 LINE",
"500 780 LINE",
"565 715 LINE",
"665 715 LINE",
"589.4 790.6 LINE SMOOTH",
"573.4 806.6 OFFCURVE",
"553.2 815 OFFCURVE",
"530.5 815 CURVE SMOOTH",
"469.5 815 LINE SMOOTH"
);
}
);
width = 1000;
}
);
leftMetricsKey = H;
rightMetricsKey = H;
unicode = 0175;
},
{
export = 0;
glyphname = wdieresis;
lastChange = "2024-03-18 18:07:43 +0000";
layers = (
{
layerId = "B204ABCD-8C29-4F1E-81B1-484861BEFD63";
paths = (
{
closed = 1;
nodes = (
"325 0 LINE",
"449.3 0 OFFCURVE",
"550 100.7 OFFCURVE",
"550 225 CURVE",
"450 225 LINE",
"450 156 OFFCURVE",
"394 100 OFFCURVE",
"325 100 CURVE"
);
},
{
closed = 1;
nodes = (
"550 225 LINE",
"550 700 LINE",
"450 700 LINE",
"450 225 LINE"
);
},
{
closed = 1;
nodes = (
"105 0 LINE",
"325 0 LINE",
"325 100 LINE",
"80 100 LINE"
);
},
{
closed = 1;
nodes = (
"180 150 LINE",
"180 700 LINE",
"80 700 LINE",
"80 150 LINE"
);
},
{
closed = 1;
nodes = (
"695 0 LINE",
"819.3 0 OFFCURVE",
"920 100.7 OFFCURVE",
"920 225 CURVE",
"820 225 LINE",
"820 156 OFFCURVE",
"764 100 OFFCURVE",
"695 100 CURVE"
);
},
{
closed = 1;
nodes = (
"920 225 LINE",
"920 700 LINE",
"820 700 LINE",
"820 225 LINE"
);
},
{
closed = 1;
nodes = (
"570 0 LINE",
"695 0 LINE",
"695 100 LINE",
"545 100 LINE"
);
},
{
closed = 1;
nodes = (
"350 745.6 LINE",
"350 727.9 OFFCURVE",
"362.9 715 OFFCURVE",
"380.6 715 CURVE",
"419.4 715 LINE",
"437.1 715 OFFCURVE",
"450 727.9 OFFCURVE",
"450 745.6 CURVE",
"450 784.4 LINE",
"450 802.1 OFFCURVE",
"437.1 815 OFFCURVE",
"419.4 815 CURVE",
"380.6 815 LINE",
"362.9 815 OFFCURVE",
"350 802.1 OFFCURVE",
"350 784.4 CURVE"
);
},
{
closed = 1;
nodes = (
"550 745.6 LINE",
"550 727.9 OFFCURVE",
"562.9 715 OFFCURVE",
"580.6 715 CURVE",
"619.4 715 LINE",
"637.1 715 OFFCURVE",
"650 727.9 OFFCURVE",
"650 745.6 CURVE",
"650 784.4 LINE",
"650 802.1 OFFCURVE",
"637.1 815 OFFCURVE",
"619.4 815 CURVE",
"580.6 815 LINE",
"562.9 815 OFFCURVE",
"550 802.1 OFFCURVE",
"550 784.4 CURVE"
);
}
);
width = 1000;
}
);
leftMetricsKey = H;
rightMetricsKey = H;
unicode = 1E85;
},
{
export = 0;
glyphname = wgrave;
lastChange = "2024-03-18 18:07:45 +0000";
layers = (
{
layerId = "B204ABCD-8C29-4F1E-81B1-484861BEFD63";
paths = (
{
closed = 1;
nodes = (
"325 0 LINE",
"449.3 0 OFFCURVE",
"550 100.7 OFFCURVE",
"550 225 CURVE",
"450 225 LINE",
"450 156 OFFCURVE",
"394 100 OFFCURVE",
"325 100 CURVE"
);
},
{
closed = 1;
nodes = (
"550 225 LINE",
"550 700 LINE",
"450 700 LINE",
"450 225 LINE"
);
},
{
closed = 1;
nodes = (
"105 0 LINE",
"325 0 LINE",
"325 100 LINE",
"80 100 LINE"
);
},
{
closed = 1;
nodes = (
"180 150 LINE",
"180 700 LINE",
"80 700 LINE",
"80 150 LINE"
);
},
{
closed = 1;
nodes = (
"695 0 LINE",
"819.3 0 OFFCURVE",
"920 100.7 OFFCURVE",
"920 225 CURVE",
"820 225 LINE",
"820 156 OFFCURVE",
"764 100 OFFCURVE",
"695 100 CURVE"
);
},
{
closed = 1;
nodes = (
"920 225 LINE",
"920 700 LINE",
"820 700 LINE",
"820 225 LINE"
);
},
{
closed = 1;
nodes = (
"570 0 LINE",
"695 0 LINE",
"695 100 LINE",
"545 100 LINE"
);
},
{
closed = 1;
nodes = (
"415 850 LINE",
"500 700 LINE",
"550 700 LINE",
"515 850 LINE"
);
}
);
width = 1000;
}
);
leftMetricsKey = H;
rightMetricsKey = H;
unicode = 1E81;
},
{
export = 0;
glyphname = ycircumflex;
lastChange = "2024-03-18 18:06:24 +0000";
layers = (
{
layerId = "B204ABCD-8C29-4F1E-81B1-484861BEFD63";
paths = (
{
closed = 1;
nodes = (
"235 369.8 OFFCURVE",
"279.7 325 OFFCURVE",
"335 325 CURVE SMOOTH",
"390.2 325 OFFCURVE",
"435 369.8 OFFCURVE",
"435 425 CURVE",
"235 425 LINE"
);
},
{
closed = 1;
nodes = (
"650 700.3 LINE",
"527.8 700.3 LINE",
"335 425 LINE",
"417 367.5 LINE"
);
},
{
closed = 1;
nodes = (
"335 425 LINE",
"142.2 700.3 LINE",
"20 700.3 LINE",
"253 367.5 LINE"
);
},
{
closed = 1;
nodes = (
"285 0 LINE",
"385 0 LINE",
"385 275 LINE",
"285 275 LINE"
);
},
{
closed = 1;
nodes = (
"281.8 815 OFFCURVE",
"261.6 806.6 OFFCURVE",
"245.6 790.6 CURVE SMOOTH",
"170 715 LINE",
"270 715 LINE",
"335 780 LINE",
"400 715 LINE",
"500 715 LINE",
"424.4 790.6 LINE SMOOTH",
"408.4 806.6 OFFCURVE",
"388.2 815 OFFCURVE",
"365.5 815 CURVE SMOOTH",
"304.5 815 LINE SMOOTH"
);
}
);
width = 670;
}
);
leftKerningGroup = Y;
leftMetricsKey = Y;
rightKerningGroup = Y;
rightMetricsKey = Y;
unicode = 0177;
},
{
export = 0;
glyphname = ygrave;
lastChange = "2024-03-18 18:07:41 +0000";
layers = (
{
layerId = "B204ABCD-8C29-4F1E-81B1-484861BEFD63";
paths = (
{
closed = 1;
nodes = (
"235 369.8 OFFCURVE",
"279.7 325 OFFCURVE",
"335 325 CURVE SMOOTH",
"390.2 325 OFFCURVE",
"435 369.8 OFFCURVE",
"435 425 CURVE",
"235 425 LINE"
);
},
{
closed = 1;
nodes = (
"650 700.3 LINE",
"527.8 700.3 LINE",
"335 425 LINE",
"417 367.5 LINE"
);
},
{
closed = 1;
nodes = (
"335 425 LINE",
"142.2 700.3 LINE",
"20 700.3 LINE",
"253 367.5 LINE"
);
},
{
closed = 1;
nodes = (
"285 0 LINE",
"385 0 LINE",
"385 275 LINE",
"285 275 LINE"
);
},
{
closed = 1;
nodes = (
"200 850 LINE",
"285 700 LINE",
"335 700 LINE",
"300 850 LINE"
);
}
);
width = 670;
}
);
leftKerningGroup = Y;
leftMetricsKey = Y;
rightKerningGroup = Y;
rightMetricsKey = Y;
unicode = 1EF3;
},
{
export = 0;
glyphname = fraction;
lastChange = "2024-03-18 18:08:55 +0000";
layers = (
{
layerId = "B204ABCD-8C29-4F1E-81B1-484861BEFD63";
paths = (
{
closed = 1;
nodes = (
"183.5 0 LINE",
"554.9 700 LINE",
"451.4 700 LINE",
"80 0 LINE"
);
}
);
width = 634.9;
}
);
leftMetricsKey = H;
rightMetricsKey = H;
unicode = 2044;
},
{
export = 0;
glyphname = zerosuperior;
lastChange = "2024-03-18 18:09:10 +0000";
layers = (
{
layerId = "B204ABCD-8C29-4F1E-81B1-484861BEFD63";
paths = (
{
closed = 1;
nodes = (
"40 389.5 OFFCURVE",
"129.4 300 OFFCURVE",
"239.9 300 CURVE SMOOTH",
"350.4 300 OFFCURVE",
"440 389.5 OFFCURVE",
"440 499.9 CURVE SMOOTH",
"440 610.4 OFFCURVE",
"350.4 700 OFFCURVE",
"239.9 700 CURVE SMOOTH",
"129.4 700 OFFCURVE",
"40 610.4 OFFCURVE",
"40 499.9 CURVE SMOOTH"
);
},
{
closed = 1;
nodes = (
"97 578.9 OFFCURVE",
"160.9 643 OFFCURVE",
"239.9 643 CURVE SMOOTH",
"318.9 643 OFFCURVE",
"383 578.9 OFFCURVE",
"383 499.9 CURVE SMOOTH",
"383 421 OFFCURVE",
"318.9 357 OFFCURVE",
"239.9 357 CURVE SMOOTH",
"160.9 357 OFFCURVE",
"97 421 OFFCURVE",
"97 499.9 CURVE SMOOTH"
);
}
);
width = 590;
}
);
leftMetricsKey = O;
unicode = 2070;
},
{
export = 0;
glyphname = trademark;
lastChange = "2024-03-18 18:09:22 +0000";
layers = (
{
layerId = "B204ABCD-8C29-4F1E-81B1-484861BEFD63";
paths = (
{
closed = 1;
nodes = (
"113.8 385.3 LINE",
"146.5 385.3 LINE",
"146.5 614.7 LINE",
"113.8 614.7 LINE"
);
},
{
closed = 1;
nodes = (
"220.3 581.9 LINE",
"220.3 614.7 LINE",
"40 614.7 LINE",
"40 581.9 LINE"
);
},
{
closed = 1;
nodes = (
"359.2 581.9 OFFCURVE",
"377.6 563.6 OFFCURVE",
"377.6 541 CURVE",
"410.3 541 LINE",
"410.3 581.7 OFFCURVE",
"377.3 614.7 OFFCURVE",
"336.6 614.7 CURVE",
"336.6 581.9 LINE"
);
},
{
closed = 1;
nodes = (
"377.6 385.3 LINE",
"410.3 385.3 LINE",
"410.3 541 LINE",
"377.6 541 LINE"
);
},
{
closed = 1;
nodes = (
"336.6 581.9 LINE",
"336.6 614.7 LINE",
"264.5 614.7 LINE",
"256.3 581.9 LINE"
);
},
{
closed = 1;
nodes = (
"256.3 385.3 LINE",
"289.1 385.3 LINE",
"289.1 565.5 LINE",
"256.3 565.5 LINE"
);
},
{
closed = 1;
nodes = (
"480.4 581.9 OFFCURVE",
"498.8 563.6 OFFCURVE",
"498.8 541 CURVE",
"531.6 541 LINE",
"531.6 581.7 OFFCURVE",
"498.6 614.7 OFFCURVE",
"457.8 614.7 CURVE",
"457.8 581.9 LINE"
);
},
{
closed = 1;
nodes = (
"498.8 385.3 LINE",
"531.6 385.3 LINE",
"531.6 541 LINE",
"498.8 541 LINE"
);
},
{
closed = 1;
nodes = (
"457.8 581.9 LINE",
"457.8 614.7 LINE",
"416.8 614.7 LINE",
"408.7 581.9 LINE"
);
}
);
width = 781.6;
}
);
leftMetricsKey = O;
unicode = 2122;
},
{
export = 0;
glyphname = brokenbar;
lastChange = "2024-03-18 17:58:45 +0000";
layers = (
{
layerId = "B204ABCD-8C29-4F1E-81B1-484861BEFD63";
paths = (
{
closed = 1;
nodes = (
"325 -100 LINE",
"325 300 LINE",
"250 300 LINE",
"250 -100 LINE"
);
},
{
closed = 1;
nodes = (
"325 400 LINE",
"325 800 LINE",
"250 800 LINE",
"250 400 LINE"
);
}
);
width = 575;
}
);
unicode = 00A6;
},
{
export = 0;
glyphname = currency;
lastChange = "2024-03-18 17:58:34 +0000";
layers = (
{
layerId = "B204ABCD-8C29-4F1E-81B1-484861BEFD63";
paths = (
{
closed = 1;
nodes = (
"133 65.4 LINE",
"194.9 127.3 LINE",
"242 91.3 OFFCURVE",
"300.8 69.9 OFFCURVE",
"364.6 69.9 CURVE SMOOTH",
"428.5 69.9 OFFCURVE",
"487.3 91.3 OFFCURVE",
"534.4 127.3 CURVE",
"596.2 65.4 LINE",
"649.2 118.4 LINE",
"587.4 180.3 LINE",
"623.3 227.4 OFFCURVE",
"644.6 286.2 OFFCURVE",
"644.6 350 CURVE SMOOTH",
"644.6 413.8 OFFCURVE",
"623.3 472.6 OFFCURVE",
"587.4 519.7 CURVE",
"649.2 581.6 LINE",
"596.2 634.6 LINE",
"534.4 572.7 LINE",
"487.3 608.7 OFFCURVE",
"428.4 630 OFFCURVE",
"364.6 630 CURVE SMOOTH",
"300.9 630 OFFCURVE",
"242 608.7 OFFCURVE",
"194.9 572.7 CURVE",
"133 634.6 LINE",
"80 581.6 LINE",
"141.9 519.7 LINE",
"106 472.6 OFFCURVE",
"84.6 413.8 OFFCURVE",
"84.6 350 CURVE SMOOTH",
"84.6 286.2 OFFCURVE",
"106 227.4 OFFCURVE",
"141.9 180.3 CURVE",
"80 118.4 LINE"
);
},
{
closed = 1;
nodes = (
"184.6 449.3 OFFCURVE",
"265.2 530 OFFCURVE",
"364.6 530 CURVE SMOOTH",
"464 530 OFFCURVE",
"544.6 451.1 OFFCURVE",
"544.6 350 CURVE SMOOTH",
"544.6 250.6 OFFCURVE",
"464 169.9 OFFCURVE",
"364.6 169.9 CURVE SMOOTH",
"265.2 169.9 OFFCURVE",
"184.6 250.6 OFFCURVE",
"184.6 350 CURVE SMOOTH"
);
}
);
width = 729.2;
}
);
leftMetricsKey = H;
rightMetricsKey = H;
unicode = 00A4;
},
{
glyphname = minus;
lastChange = "2024-03-19 11:31:54 +0000";
layers = (
{
layerId = "B204ABCD-8C29-4F1E-81B1-484861BEFD63";
paths = (
{
closed = 1;
nodes = (
"480 300 LINE",
"480 400 LINE",
"80 400 LINE",
"80 300 LINE"
);
}
);
width = 560;
}
);
leftMetricsKey = H;
rightMetricsKey = H;
unicode = 2212;
},
{
glyphname = notequal;
lastChange = "2024-03-19 11:31:54 +0000";
layers = (
{
layerId = "B204ABCD-8C29-4F1E-81B1-484861BEFD63";
paths = (
{
closed = 1;
nodes = (
"148.714 200 LINE",
"95.657 100 LINE",
"199.157 100 LINE",
"252.214 200 LINE",
"480 200 LINE",
"480 300 LINE",
"305.271 300 LINE",
"358.329 400 LINE",
"480 400 LINE",
"480 500 LINE",
"411.386 500 LINE",
"464.443 600 LINE",
"360.943 600 LINE",
"307.886 500 LINE",
"80 500 LINE",
"80 400 LINE",
"254.829 400 LINE",
"201.771 300 LINE",
"80 300 LINE",
"80 200 LINE"
);
}
);
width = 560;
}
);
leftMetricsKey = H;
rightMetricsKey = H;
unicode = 2260;
},
{
glyphname = greaterequal;
lastChange = "2024-03-19 11:31:54 +0000";
layers = (
{
layerId = "B204ABCD-8C29-4F1E-81B1-484861BEFD63";
paths = (
{
closed = 1;
nodes = (
"480 392.7 OFFCURVE",
"452.9 428.4 OFFCURVE",
"415.5 443.5 CURVE SMOOTH",
"80 579.1 LINE",
"80 471.2 LINE",
"380 350 LINE",
"80 228.8 LINE",
"80 120.9 LINE",
"415.1 256.3 LINE SMOOTH",
"452.6 271.5 OFFCURVE",
"480 307.1 OFFCURVE",
"480 350 CURVE SMOOTH"
);
},
{
closed = 1;
nodes = (
"480 0 LINE",
"480 100 LINE",
"80 100 LINE",
"80 0 LINE"
);
}
);
width = 560;
}
);
leftMetricsKey = H;
rightMetricsKey = H;
unicode = 2265;
},
{
glyphname = lessequal;
lastChange = "2024-03-19 11:31:54 +0000";
layers = (
{
layerId = "B204ABCD-8C29-4F1E-81B1-484861BEFD63";
paths = (
{
closed = 1;
nodes = (
"80 307.1 OFFCURVE",
"107.4 271.5 OFFCURVE",
"144.9 256.3 CURVE SMOOTH",
"480 120.9 LINE",
"480 228.8 LINE",
"180 350 LINE",
"480 471.2 LINE",
"480 579.1 LINE",
"144.5 443.5 LINE SMOOTH",
"107.1 428.4 OFFCURVE",
"80 392.7 OFFCURVE",
"80 350 CURVE SMOOTH"
);
},
{
closed = 1;
nodes = (
"480 100 LINE",
"80 100 LINE",
"80 0 LINE",
"480 0 LINE"
);
}
);
width = 560;
}
);
leftMetricsKey = H;
rightMetricsKey = H;
unicode = 2264;
},
{
export = 0;
glyphname = emptyset;
lastChange = "2024-03-18 18:09:28 +0000";
layers = (
{
layerId = "B204ABCD-8C29-4F1E-81B1-484861BEFD63";
paths = (
{
closed = 1;
nodes = (
"40 156.7 OFFCURVE",
"196.7 0 OFFCURVE",
"390 0 CURVE SMOOTH",
"583.3 0 OFFCURVE",
"740 156.7 OFFCURVE",
"740 350 CURVE SMOOTH",
"740 543.3 OFFCURVE",
"583.3 700 OFFCURVE",
"390 700 CURVE SMOOTH",
"196.7 700 OFFCURVE",
"40 543.3 OFFCURVE",
"40 350 CURVE SMOOTH"
);
},
{
closed = 1;
nodes = (
"140 488.1 OFFCURVE",
"251.9 600 OFFCURVE",
"390 600 CURVE SMOOTH",
"528.1 600 OFFCURVE",
"640 488.1 OFFCURVE",
"640 350 CURVE SMOOTH",
"640 211.9 OFFCURVE",
"528.1 100 OFFCURVE",
"390 100 CURVE SMOOTH",
"251.9 100 OFFCURVE",
"140 211.9 OFFCURVE",
"140 350 CURVE SMOOTH"
);
},
{
closed = 1;
nodes = (
"225.5 0 LINE",
"658 700 LINE",
"554.5 700 LINE",
"122 0 LINE"
);
}
);
width = 780;
}
);
leftMetricsKey = O;
rightMetricsKey = O;
unicode = 2205;
},
{
export = 0;
glyphname = dieresis;
lastChange = "2024-03-13 09:38:36 +0000";
layers = (
{
layerId = "B204ABCD-8C29-4F1E-81B1-484861BEFD63";
paths = (
{
closed = 1;
nodes = (
"150 730.6 LINE",
"150 712.9 OFFCURVE",
"162.9 700 OFFCURVE",
"180.6 700 CURVE",
"219.4 700 LINE",
"237.1 700 OFFCURVE",
"250 712.9 OFFCURVE",
"250 730.6 CURVE",
"250 769.4 LINE",
"250 787.1 OFFCURVE",
"237.1 800 OFFCURVE",
"219.4 800 CURVE",
"180.6 800 LINE",
"162.9 800 OFFCURVE",
"150 787.1 OFFCURVE",
"150 769.4 CURVE"
);
},
{
closed = 1;
nodes = (
"350 730.6 LINE",
"350 712.9 OFFCURVE",
"362.9 700 OFFCURVE",
"380.6 700 CURVE",
"419.4 700 LINE",
"437.1 700 OFFCURVE",
"450 712.9 OFFCURVE",
"450 730.6 CURVE",
"450 769.4 LINE",
"450 787.1 OFFCURVE",
"437.1 800 OFFCURVE",
"419.4 800 CURVE",
"380.6 800 LINE",
"362.9 800 OFFCURVE",
"350 787.1 OFFCURVE",
"350 769.4 CURVE"
);
}
);
width = 600;
}
);
unicode = 00A8;
},
{
export = 0;
glyphname = dotaccent;
lastChange = "2024-03-13 09:38:36 +0000";
layers = (
{
layerId = "B204ABCD-8C29-4F1E-81B1-484861BEFD63";
paths = (
{
closed = 1;
nodes = (
"250 730.6 LINE SMOOTH",
"250 712.9 OFFCURVE",
"262.9 700 OFFCURVE",
"280.6 700 CURVE SMOOTH",
"319.4 700 LINE SMOOTH",
"337.1 700 OFFCURVE",
"350 712.9 OFFCURVE",
"350 730.6 CURVE SMOOTH",
"350 769.4 LINE SMOOTH",
"350 787.1 OFFCURVE",
"337.1 800 OFFCURVE",
"319.4 800 CURVE SMOOTH",
"280.6 800 LINE SMOOTH",
"262.9 800 OFFCURVE",
"250 787.1 OFFCURVE",
"250 769.4 CURVE SMOOTH"
);
}
);
width = 600;
}
);
unicode = 02D9;
},
{
export = 0;
glyphname = grave;
lastChange = "2024-03-13 09:38:36 +0000";
layers = (
{
layerId = "B204ABCD-8C29-4F1E-81B1-484861BEFD63";
paths = (
{
closed = 1;
nodes = (
"165 850 LINE",
"250 700 LINE",
"300 700 LINE",
"265 850 LINE"
);
}
);
width = 600;
}
);
unicode = 0060;
},
{
export = 0;
glyphname = acute;
lastChange = "2024-03-13 09:38:36 +0000";
layers = (
{
layerId = "B204ABCD-8C29-4F1E-81B1-484861BEFD63";
paths = (
{
closed = 1;
nodes = (
"300 700 LINE",
"350 700 LINE",
"435 850 LINE",
"335 850 LINE"
);
}
);
width = 600;
}
);
unicode = 00B4;
},
{
export = 0;
glyphname = hungarumlaut;
lastChange = "2024-03-13 09:38:36 +0000";
layers = (
{
layerId = "B204ABCD-8C29-4F1E-81B1-484861BEFD63";
paths = (
{
closed = 1;
nodes = (
"435 700 LINE",
"485 700 LINE",
"570 850 LINE",
"470 850 LINE"
);
},
{
closed = 1;
nodes = (
"300 700 LINE",
"350 700 LINE",
"435 850 LINE",
"335 850 LINE"
);
}
);
width = 600;
}
);
unicode = 02DD;
},
{
export = 0;
glyphname = circumflex;
lastChange = "2024-03-13 09:38:36 +0000";
layers = (
{
layerId = "B204ABCD-8C29-4F1E-81B1-484861BEFD63";
paths = (
{
closed = 1;
nodes = (
"246.8 800 OFFCURVE",
"226.6 791.6 OFFCURVE",
"210.6 775.6 CURVE SMOOTH",
"135 700 LINE",
"235 700 LINE",
"300 765 LINE",
"365 700 LINE",
"465 700 LINE",
"389.4 775.6 LINE SMOOTH",
"373.4 791.6 OFFCURVE",
"353.2 800 OFFCURVE",
"330.5 800 CURVE SMOOTH",
"269.5 800 LINE SMOOTH"
);
}
);
width = 600;
}
);
unicode = 02C6;
},
{
export = 0;
glyphname = caron;
lastChange = "2024-03-13 09:38:36 +0000";
layers = (
{
layerId = "B204ABCD-8C29-4F1E-81B1-484861BEFD63";
paths = (
{
closed = 1;
nodes = (
"330.5 700 LINE SMOOTH",
"353.2 700 OFFCURVE",
"373.4 708.4 OFFCURVE",
"389.4 724.4 CURVE SMOOTH",
"465 800 LINE",
"365 800 LINE",
"300 735 LINE",
"235 800 LINE",
"135 800 LINE",
"210.6 724.4 LINE SMOOTH",
"226.6 708.4 OFFCURVE",
"246.8 700 OFFCURVE",
"269.5 700 CURVE SMOOTH"
);
}
);
width = 600;
}
);
unicode = 02C7;
},
{
export = 0;
glyphname = breve;
lastChange = "2024-03-13 09:38:36 +0000";
layers = (
{
layerId = "B204ABCD-8C29-4F1E-81B1-484861BEFD63";
paths = (
{
closed = 1;
nodes = (
"189.096 742.966 OFFCURVE",
"239.561 700 OFFCURVE",
"300 700 CURVE SMOOTH",
"360.439 700 OFFCURVE",
"410.904 742.966 OFFCURVE",
"422.496 800 CURVE",
"370.727 800 LINE",
"360.424 770.879 OFFCURVE",
"332.635 750 OFFCURVE",
"300 750 CURVE SMOOTH",
"267.365 750 OFFCURVE",
"239.576 770.879 OFFCURVE",
"229.273 800 CURVE",
"177.504 800 LINE"
);
}
);
width = 600;
}
);
unicode = 02D8;
},
{
export = 0;
glyphname = ring;
lastChange = "2024-03-13 09:38:36 +0000";
layers = (
{
layerId = "B204ABCD-8C29-4F1E-81B1-484861BEFD63";
paths = (
{
closed = 1;
nodes = (
"200 744.8 OFFCURVE",
"244.8 700 OFFCURVE",
"300 700 CURVE SMOOTH",
"355.2 700 OFFCURVE",
"400 744.8 OFFCURVE",
"400 800 CURVE SMOOTH",
"400 855.2 OFFCURVE",
"355.2 900 OFFCURVE",
"300 900 CURVE SMOOTH",
"244.8 900 OFFCURVE",
"200 855.2 OFFCURVE",
"200 800 CURVE SMOOTH"
);
},
{
closed = 1;
nodes = (
"250 827.6 OFFCURVE",
"272.4 850 OFFCURVE",
"300 850 CURVE SMOOTH",
"327.6 850 OFFCURVE",
"350 827.6 OFFCURVE",
"350 800 CURVE SMOOTH",
"350 772.4 OFFCURVE",
"327.6 750 OFFCURVE",
"300 750 CURVE SMOOTH",
"272.4 750 OFFCURVE",
"250 772.4 OFFCURVE",
"250 800 CURVE SMOOTH"
);
}
);
width = 600;
}
);
unicode = 02DA;
},
{
export = 0;
glyphname = tilde;
lastChange = "2024-03-13 09:38:36 +0000";
layers = (
{
layerId = "B204ABCD-8C29-4F1E-81B1-484861BEFD63";
paths = (
{
closed = 1;
nodes = (
"215.4 700 OFFCURVE",
"278.6 700 OFFCURVE",
"317.7 739 CURVE SMOOTH",
"337.2 758.5 OFFCURVE",
"368.9 758.5 OFFCURVE",
"388.4 739 CURVE SMOOTH",
"394.8 732.5 OFFCURVE",
"399.2 724.7 OFFCURVE",
"401.3 716.4 CURVE",
"452.2 716.4 LINE",
"449.5 737.6 OFFCURVE",
"440.1 758.1 OFFCURVE",
"423.8 774.4 CURVE SMOOTH",
"384.6 813.4 OFFCURVE",
"321.4 813.4 OFFCURVE",
"282.3 774.4 CURVE SMOOTH",
"262.8 754.9 OFFCURVE",
"231.1 754.9 OFFCURVE",
"211.6 774.4 CURVE SMOOTH",
"205.2 780.9 OFFCURVE",
"200.8 788.7 OFFCURVE",
"198.7 797 CURVE",
"147.8 797 LINE",
"150.5 775.8 OFFCURVE",
"159.9 755.3 OFFCURVE",
"176.2 739 CURVE SMOOTH"
);
}
);
width = 600;
}
);
unicode = 02DC;
},
{
export = 0;
glyphname = macron;
lastChange = "2024-03-13 09:38:36 +0000";
layers = (
{
layerId = "B204ABCD-8C29-4F1E-81B1-484861BEFD63";
paths = (
{
closed = 1;
nodes = (
"150 745.6 LINE SMOOTH",
"150 727.9 OFFCURVE",
"162.9 715 OFFCURVE",
"180.6 715 CURVE SMOOTH",
"419.4 715 LINE SMOOTH",
"437.1 715 OFFCURVE",
"450 727.9 OFFCURVE",
"450 745.6 CURVE SMOOTH",
"450 784.4 LINE SMOOTH",
"450 802.1 OFFCURVE",
"437.1 815 OFFCURVE",
"419.4 815 CURVE SMOOTH",
"180.6 815 LINE SMOOTH",
"162.9 815 OFFCURVE",
"150 802.1 OFFCURVE",
"150 784.4 CURVE SMOOTH"
);
}
);
width = 600;
}
);
unicode = 00AF;
},
{
export = 0;
glyphname = cedilla;
lastChange = "2024-03-14 09:15:30 +0000";
layers = (
{
layerId = "B204ABCD-8C29-4F1E-81B1-484861BEFD63";
paths = (
{
closed = 1;
nodes = (
"445.2 -200 OFFCURVE",
"490 -155.2 OFFCURVE",
"490 -100 CURVE SMOOTH",
"490 -44.8 OFFCURVE",
"445.2 0 OFFCURVE",
"390 0 CURVE SMOOTH",
"340 0 LINE",
"340 -50 LINE",
"390 -50 LINE SMOOTH",
"417.6 -50 OFFCURVE",
"440 -72.4 OFFCURVE",
"440 -100 CURVE SMOOTH",
"440 -127.6 OFFCURVE",
"417.6 -150 OFFCURVE",
"390 -150 CURVE",
"390 -200 LINE"
);
}
);
width = 600;
}
);
unicode = 00B8;
},
{
export = 0;
glyphname = ogonek;
lastChange = "2024-03-14 09:16:57 +0000";
layers = (
{
layerId = "B204ABCD-8C29-4F1E-81B1-484861BEFD63";
paths = (
{
closed = 1;
nodes = (
"440 -150 LINE",
"412.4 -150 OFFCURVE",
"390 -127.6 OFFCURVE",
"390 -100 CURVE SMOOTH",
"390 -72.4 OFFCURVE",
"412.4 -50 OFFCURVE",
"440 -50 CURVE SMOOTH",
"490 -50 LINE",
"490 0 LINE",
"440 0 LINE SMOOTH",
"384.8 0 OFFCURVE",
"340 -44.8 OFFCURVE",
"340 -100 CURVE SMOOTH",
"340 -155.2 OFFCURVE",
"384.8 -200 OFFCURVE",
"440 -200 CURVE"
);
}
